<?xml version="1.0" encoding="UTF-8"?>
<svg version="1.1" xmlns="http://www.w3.org/2000/svg" width="512" height="512">
<path d="M0 0 C4.68950733 2.87421417 8.69922657 6.29749943 11.93579102 10.75390625 C14.41258979 13.60393604 16.50004581 14.86263208 19.87109375 16.52734375 C21.53688477 17.35588867 21.53688477 17.35588867 23.23632812 18.20117188 C24.39326172 18.76126953 25.55019531 19.32136719 26.7421875 19.8984375 C27.87205078 20.46240234 29.00191406 21.02636719 30.16601562 21.60742188 C45.96487642 29.3840632 59.90427776 32.3076524 77.4296875 33.2734375 C100.15003737 34.70081885 119.73653458 37.50268108 135.7421875 55.1484375 C138.09555442 57.81809693 140.20492396 60.37379219 142.1796875 63.3359375 C145.37079446 64.37032832 145.37079446 64.37032832 149.1171875 65.1484375 C156.06871566 66.81713968 162.24549714 69.23126037 168.1796875 73.3359375 C169.1796875 75.3359375 169.1796875 75.3359375 168.89453125 78.55859375 C169.27654106 83.61891552 171.18152648 85.39102173 174.7421875 88.7734375 C175.25587891 89.31419922 175.76957031 89.85496094 176.29882812 90.41210938 C179.30906068 93.36999006 180.45454588 94.31654869 184.83203125 94.43359375 C185.93675781 94.40136719 187.04148437 94.36914062 188.1796875 94.3359375 C191.70835388 96.89618772 193.13415332 99.91284784 194.7421875 103.8984375 C195.17273438 104.95675781 195.60328125 106.01507813 196.046875 107.10546875 C197.09887471 110.10548171 197.75091877 112.97421441 198.3671875 116.0859375 C199.81289515 121.8194826 202.87215471 124.02637244 207.55078125 127.390625 C218.48793954 135.48379711 224.82147282 148.12043915 227.1796875 161.3359375 C228.36958466 170.03070088 228.99700508 178.79435452 229.640625 187.54296875 C230.69036859 201.60452365 232.32753253 213.74198812 238.09375 226.7421875 C242.14888205 236.42782665 241.6445098 249.65507814 238.1796875 259.3984375 C233.1637591 270.45596034 225.24231663 279.16914727 213.828125 283.65234375 C208.79806415 285.28172012 204.47310611 286.42586473 199.1796875 286.3359375 C199.19926514 287.24363892 199.19926514 287.24363892 199.21923828 288.16967773 C199.53458355 314.18065678 192.33259235 340.58096176 182.1796875 364.3359375 C181.86273926 365.08278809 181.54579102 365.82963867 181.21923828 366.59912109 C171.33530081 389.53866907 156.95527443 409.95760312 139.60742188 427.86132812 C138.21918164 429.2951467 136.8475943 430.74503031 135.4765625 432.1953125 C129.05851003 438.8385598 122.17916185 444.56425144 114.81396484 450.10302734 C113.36870227 451.19334345 111.93896524 452.30417318 110.51171875 453.41796875 C66.46019209 486.95176656 7.84523563 499.33159057 -46.57080078 492.26000977 C-82.01634114 486.74016589 -116.29990674 473.24396893 -144.8203125 451.3359375 C-145.80128906 450.58957031 -146.78226562 449.84320313 -147.79296875 449.07421875 C-155.6932438 442.92450824 -155.6932438 442.92450824 -157.8203125 439.3359375 C-157.83203125 437.22265625 -157.83203125 437.22265625 -157.5078125 435.0234375 C-157.372964 431.88561653 -157.50901653 430.72980729 -159.484375 428.23046875 C-162.50818671 425.56401661 -164.97239628 423.61857624 -168.8203125 422.3359375 C-169.9340625 422.4184375 -171.0478125 422.5009375 -172.1953125 422.5859375 C-177.58766425 422.21405117 -179.4664989 418.8580359 -182.92578125 414.96875 C-211.51636054 380.53131678 -232.78705698 331.7895876 -230.8203125 286.3359375 C-231.43777344 286.31015625 -232.05523437 286.284375 -232.69140625 286.2578125 C-239.15968251 285.82462505 -244.14154777 284.44526115 -249.8203125 281.3359375 C-250.573125 280.92472656 -251.3259375 280.51351563 -252.1015625 280.08984375 C-261.67453828 274.30343887 -268.32441863 265.21691858 -271.34643555 254.46386719 C-274.05683658 242.29289582 -271.69186661 230.52300936 -266.8203125 219.3359375 C-262.29166393 207.63375738 -261.57022067 195.38785958 -260.8828125 182.9609375 C-259.50178288 161.02424067 -256.45941206 142.71547856 -239.5078125 127.2734375 C-237.00204025 125.09809676 -234.58435464 123.17863226 -231.8203125 121.3359375 C-230.93606513 118.68319538 -230.1930796 116.10151606 -229.5078125 113.3984375 C-224.73752873 96.0805097 -214.33221332 81.23993593 -198.6003418 72.13793945 C-192.7591938 68.91232024 -187.48412606 66.88240779 -180.9453125 65.5234375 C-173.79942888 63.854326 -170.97830937 60.96496675 -166.79296875 55.08984375 C-159.2467593 44.5550365 -146.40848647 38.25873851 -133.92041016 35.75439453 C-125.76834015 34.4943282 -117.67721391 33.8552499 -109.4453125 33.3984375 C-92.70000736 32.31928857 -78.89465445 29.7240731 -63.8203125 22.3359375 C-63.01384277 21.94954102 -62.20737305 21.56314453 -61.37646484 21.16503906 C-58.82415072 19.93369811 -56.28937809 18.67183366 -53.7578125 17.3984375 C-52.97245117 17.0161499 -52.18708984 16.6338623 -51.37792969 16.23999023 C-46.31307999 13.61592089 -42.96322742 10.67506097 -39.43408203 6.1887207 C-30.20444836 -4.4079041 -12.18563425 -5.78509909 0 0 Z " fill="#FD9637" transform="translate(271.8203125,10.6640625)"/>
<path d="M0 0 C4.68950733 2.87421417 8.69922657 6.29749943 11.93579102 10.75390625 C14.41258979 13.60393604 16.50004581 14.86263208 19.87109375 16.52734375 C21.53688477 17.35588867 21.53688477 17.35588867 23.23632812 18.20117188 C24.39326172 18.76126953 25.55019531 19.32136719 26.7421875 19.8984375 C27.87205078 20.46240234 29.00191406 21.02636719 30.16601562 21.60742188 C45.96487642 29.3840632 59.90427776 32.3076524 77.4296875 33.2734375 C100.15003737 34.70081885 119.73653458 37.50268108 135.7421875 55.1484375 C138.09555442 57.81809693 140.20492396 60.37379219 142.1796875 63.3359375 C145.37079446 64.37032832 145.37079446 64.37032832 149.1171875 65.1484375 C156.06871566 66.81713968 162.24549714 69.23126037 168.1796875 73.3359375 C169.1796875 75.3359375 169.1796875 75.3359375 168.89453125 78.55859375 C169.27654106 83.61891552 171.18152648 85.39102173 174.7421875 88.7734375 C175.25587891 89.31419922 175.76957031 89.85496094 176.29882812 90.41210938 C179.30906068 93.36999006 180.45454588 94.31654869 184.83203125 94.43359375 C185.93675781 94.40136719 187.04148437 94.36914062 188.1796875 94.3359375 C191.70835388 96.89618772 193.13415332 99.91284784 194.7421875 103.8984375 C195.17273438 104.95675781 195.60328125 106.01507813 196.046875 107.10546875 C197.09887471 110.10548171 197.75091877 112.97421441 198.3671875 116.0859375 C199.81289515 121.8194826 202.87215471 124.02637244 207.55078125 127.390625 C218.48793954 135.48379711 224.82147282 148.12043915 227.1796875 161.3359375 C228.36958466 170.03070088 228.99700508 178.79435452 229.640625 187.54296875 C230.69036859 201.60452365 232.32753253 213.74198812 238.09375 226.7421875 C242.14888205 236.42782665 241.6445098 249.65507814 238.1796875 259.3984375 C233.1637591 270.45596034 225.24231663 279.16914727 213.828125 283.65234375 C208.79806415 285.28172012 204.47310611 286.42586473 199.1796875 286.3359375 C199.19926514 287.24363892 199.19926514 287.24363892 199.21923828 288.16967773 C199.53458355 314.18065678 192.33259235 340.58096176 182.1796875 364.3359375 C181.86273926 365.08278809 181.54579102 365.82963867 181.21923828 366.59912109 C171.33530081 389.53866907 156.95527443 409.95760312 139.60742188 427.86132812 C138.21918164 429.2951467 136.8475943 430.74503031 135.4765625 432.1953125 C129.05851003 438.8385598 122.17916185 444.56425144 114.81396484 450.10302734 C113.36870227 451.19334345 111.93896524 452.30417318 110.51171875 453.41796875 C66.46019209 486.95176656 7.84523563 499.33159057 -46.57080078 492.26000977 C-82.01634114 486.74016589 -116.29990674 473.24396893 -144.8203125 451.3359375 C-145.80128906 450.58957031 -146.78226562 449.84320313 -147.79296875 449.07421875 C-157.50234721 441.51627091 -157.50234721 441.51627091 -158.2578125 436.3359375 C-157.8203125 433.3359375 -157.8203125 433.3359375 -156.2578125 430.9609375 C-152.82619094 428.67318979 -150.90771834 428.85678187 -146.8203125 429.3359375 C-143.97201043 430.87023269 -141.56223975 432.8466011 -139.0703125 434.8984375 C-137.65059162 436.01316564 -136.22871387 437.12515226 -134.8046875 438.234375 C-134.11955078 438.77288086 -133.43441406 439.31138672 -132.72851562 439.86621094 C-128.62904051 443.02368793 -124.26644951 445.70096529 -119.8203125 448.3359375 C-118.98741699 448.83939697 -118.98741699 448.83939697 -118.13769531 449.35302734 C-103.06151911 458.42070051 -86.85293713 465.82229197 -69.8203125 470.3359375 C-68.0878125 470.83867188 -68.0878125 470.83867188 -66.3203125 471.3515625 C-39.3010401 478.77078894 -10.7230294 479.4445909 16.81201172 474.73291016 C18.93281598 474.37732883 21.05259059 474.07155531 23.18359375 473.78515625 C70.5637902 466.5224984 114.82049812 436.13449488 143.1796875 398.3359375 C143.60781738 397.77390625 144.03594727 397.211875 144.47705078 396.6328125 C174.87296289 356.58833267 188.32446306 303.65024205 182.15942383 253.83984375 C181.85921815 251.66683341 181.52887793 249.50159901 181.1796875 247.3359375 C181.00228027 246.23451416 181.00228027 246.23451416 180.82128906 245.11083984 C174.52485018 207.98107619 157.37563225 173.22308997 132.1796875 145.3359375 C131.38820313 144.42457031 130.59671875 143.51320312 129.78125 142.57421875 C125.22755981 137.37555197 120.52191775 132.71238997 115.1796875 128.3359375 C114.66696289 127.90555176 114.15423828 127.47516602 113.62597656 127.03173828 C104.31467572 119.22473334 94.70166192 112.41356683 84.1796875 106.3359375 C83.51243652 105.94809082 82.84518555 105.56024414 82.15771484 105.16064453 C65.71420677 95.72195217 48.03224382 89.08290215 29.5546875 84.88720703 C28.00510617 84.52752831 26.46026189 84.1465904 24.921875 83.74169922 C11.05611392 80.0995545 -2.82566528 79.93831605 -17.0703125 79.8984375 C-18.0085788 79.8922641 -18.94684509 79.8860907 -19.9135437 79.87973022 C-36.93514792 79.80781031 -52.87424931 81.81572088 -69.2578125 86.5234375 C-70.31564941 86.82531982 -71.37348633 87.12720215 -72.46337891 87.43823242 C-82.27280894 90.32540509 -91.5991776 93.92814052 -100.8203125 98.3359375 C-101.60599609 98.71089355 -102.39167969 99.08584961 -103.20117188 99.47216797 C-126.91746321 110.98041685 -150.14773753 127.72777616 -166.8203125 148.3359375 C-167.62726563 149.3053125 -168.43421875 150.2746875 -169.265625 151.2734375 C-186.13807438 171.85347828 -199.20749689 195.79994417 -206.8203125 221.3359375 C-207.04412598 222.07779297 -207.26793945 222.81964844 -207.49853516 223.58398438 C-216.72744048 254.97410283 -216.85719841 287.38102626 -210.8203125 319.3359375 C-210.6543457 320.22587402 -210.48837891 321.11581055 -210.31738281 322.03271484 C-204.09169008 353.87570413 -187.81797075 385.06821583 -166.1484375 409.16015625 C-164.39510975 412.03251965 -164.52363921 414.02758085 -164.8203125 417.3359375 C-166.2203125 421.0359375 -166.2203125 421.0359375 -168.8203125 422.3359375 C-172.1328125 422.7109375 -172.1328125 422.7109375 -175.8203125 422.3359375 C-209.59098033 391.98508414 -227.01925894 340.29171068 -230.8203125 296.3359375 C-230.94232689 292.99274316 -230.96492403 289.67807071 -230.8203125 286.3359375 C-231.43777344 286.31015625 -232.05523437 286.284375 -232.69140625 286.2578125 C-239.15968251 285.82462505 -244.14154777 284.44526115 -249.8203125 281.3359375 C-250.573125 280.92472656 -251.3259375 280.51351563 -252.1015625 280.08984375 C-261.67453828 274.30343887 -268.32441863 265.21691858 -271.34643555 254.46386719 C-274.05683658 242.29289582 -271.69186661 230.52300936 -266.8203125 219.3359375 C-262.29166393 207.63375738 -261.57022067 195.38785958 -260.8828125 182.9609375 C-259.50178288 161.02424067 -256.45941206 142.71547856 -239.5078125 127.2734375 C-237.00204025 125.09809676 -234.58435464 123.17863226 -231.8203125 121.3359375 C-230.93606513 118.68319538 -230.1930796 116.10151606 -229.5078125 113.3984375 C-224.73752873 96.0805097 -214.33221332 81.23993593 -198.6003418 72.13793945 C-192.7591938 68.91232024 -187.48412606 66.88240779 -180.9453125 65.5234375 C-173.79942888 63.854326 -170.97830937 60.96496675 -166.79296875 55.08984375 C-159.2467593 44.5550365 -146.40848647 38.25873851 -133.92041016 35.75439453 C-125.76834015 34.4943282 -117.67721391 33.8552499 -109.4453125 33.3984375 C-92.70000736 32.31928857 -78.89465445 29.7240731 -63.8203125 22.3359375 C-63.01384277 21.94954102 -62.20737305 21.56314453 -61.37646484 21.16503906 C-58.82415072 19.93369811 -56.28937809 18.67183366 -53.7578125 17.3984375 C-52.97245117 17.0161499 -52.18708984 16.6338623 -51.37792969 16.23999023 C-46.31307999 13.61592089 -42.96322742 10.67506097 -39.43408203 6.1887207 C-30.20444836 -4.4079041 -12.18563425 -5.78509909 0 0 Z " fill="#020100" transform="translate(271.8203125,10.6640625)"/>
<path d="M0 0 C6.88509749 3.71759774 11.33763621 9.20040864 13.8125 16.625 C14.6370941 24.87094104 13.63651271 31.62517625 8.52762413 38.30495071 C2.3346423 45.36156748 -4.34103101 51.95029471 -10.96630859 58.59667969 C-12.3617612 60.00004603 -13.75703533 61.40358987 -15.15214539 62.80729675 C-19.70967737 67.39087854 -24.27251134 71.96916256 -28.8359375 76.546875 C-30.41170505 78.12800724 -31.98746618 79.70914589 -33.56322098 81.29029083 C-40.11687343 87.86553743 -46.67195329 94.43935546 -53.23076439 101.00945663 C-62.61067355 110.40562405 -71.98197697 119.81019101 -81.34153688 129.22662997 C-87.9368195 135.86061822 -94.54166416 142.48498925 -101.1536833 149.10229611 C-105.09765146 153.04991368 -109.0373434 157.00158665 -112.96686935 160.9635849 C-116.6610786 164.68788902 -120.3670121 168.40011451 -124.08217812 172.1035099 C-125.44056957 173.46168082 -126.79471499 174.82411434 -128.14417458 176.1911602 C-142.2601167 190.4809458 -142.2601167 190.4809458 -152.19140625 192.12109375 C-160.83540525 191.92313957 -167.16703092 190.29409277 -173.6484375 184.375 C-178.01774021 179.40685884 -180.31728786 173.11720916 -180.5625 166.5625 C-180.61148438 165.68464844 -180.66046875 164.80679688 -180.7109375 163.90234375 C-178.79728718 151.92060779 -169.46336386 144.19549967 -161.26855469 136.07495117 C-159.83311857 134.63437065 -158.39875442 133.1927213 -156.96537781 131.75009155 C-153.08621355 127.85247291 -149.19157357 123.97067452 -145.29333782 120.09214187 C-141.20714135 116.02238059 -137.13360711 111.93997805 -133.0581665 107.85945129 C-126.2140599 101.01082946 -119.35984929 94.17244849 -112.49951172 87.34008789 C-104.57833847 79.45097006 -96.67332817 71.54593596 -88.77679706 63.63215846 C-81.16626732 56.00574289 -73.54445609 48.39069888 -65.91745758 40.780756 C-62.67795541 37.54811018 -59.44241959 34.31157053 -56.21004486 31.07179832 C-52.40079693 27.2548666 -48.58173869 23.4480246 -44.75501442 19.64861679 C-43.35562781 18.25609276 -41.95958829 16.86019544 -40.56724358 15.46063042 C-29.02911054 3.86959207 -17.2718283 -7.70288825 0 0 Z " fill="#050200" transform="translate(339.1875,194.375)"/>
<path d="M0 0 C6.02588241 3.13478809 9.73848946 8.0847881 13.0625 13.875 C15.2366634 21.29273394 14.64892529 27.64789697 11.66681671 34.73971939 C8.53137105 40.35303892 3.78394073 44.65436319 -0.75878906 49.12841797 C-1.88064834 50.25514137 -3.00121418 51.38315387 -4.12059021 52.51234436 C-7.14636767 55.55683197 -10.19049968 58.58231397 -13.23896885 61.60405874 C-16.43592046 64.7782689 -19.61731865 67.96800307 -22.80096436 71.1555481 C-28.14714725 76.50349315 -33.50512443 81.83938944 -38.87060547 87.16796875 C-45.06358471 93.31859667 -51.23870061 99.4867157 -57.40429711 105.66478431 C-63.35039562 111.62229199 -69.30780229 117.56836114 -75.27080536 123.50894547 C-77.80200475 126.03088403 -80.32942989 128.55651673 -82.85388947 131.08520126 C-85.82914113 134.06423437 -88.8142669 137.03301724 -91.80714607 139.99433708 C-92.90054874 141.07929256 -93.99062979 142.16760795 -95.07701683 143.25958824 C-107.39265865 155.6289738 -107.39265865 155.6289738 -116.21875 157.03125 C-123.09961313 156.96312264 -128.13919474 156.41513199 -133.875 152.5 C-134.761875 151.96375 -135.64875 151.4275 -136.5625 150.875 C-143.33282899 143.92168915 -144.43817048 136.67460935 -144.5390625 127.2109375 C-142.80510549 117.52117771 -134.75071786 110.94038718 -128.0612793 104.28222656 C-126.95962304 103.17485935 -125.8585963 102.06686556 -124.75814819 100.95829773 C-121.78366449 97.96595072 -118.7997794 94.98315269 -115.8134954 92.00258732 C-113.31566682 89.50785957 -110.82245822 87.00853983 -108.32919627 84.50924945 C-102.44576179 78.61179464 -96.55459519 72.72214452 -90.65844727 66.83740234 C-84.58629212 60.77673444 -78.52703991 54.70338449 -72.47403592 48.62359452 C-67.26497983 43.3923565 -62.04817091 38.16894053 -56.82508022 32.95171523 C-53.71068731 29.84068607 -50.59923264 26.72686033 -47.49515343 23.60553741 C-44.57626951 20.67114606 -41.6477771 17.74668989 -38.71175766 14.82944679 C-37.63927837 13.76064239 -36.5701569 12.68845575 -35.50477409 11.61257744 C-25.26972005 1.28446612 -15.01368923 -5.74883143 0 0 Z " fill="#030100" transform="translate(380.875,271.5)"/>
<path d="M0 0 C33.38737361 6.0165401 63.95069156 23.06253105 88.7265625 45.9140625 C90.8389424 47.8522255 92.99998072 49.71023271 95.1875 51.5625 C99.1967329 55.0775531 102.60986792 58.89134282 106 63 C106.63397705 63.74950928 106.63397705 63.74950928 107.28076172 64.51416016 C142.42129037 106.13727849 158.70951033 158.48388774 154.53759766 212.64868164 C152.75412901 231.77357805 148.00551098 250.15171133 141 268 C140.72961914 268.69641602 140.45923828 269.39283203 140.18066406 270.11035156 C130.20022806 295.40959631 114.23210763 317.90613351 95 337 C94.46020508 337.53705566 93.92041016 338.07411133 93.36425781 338.62744141 C81.57237375 350.22219671 68.31124824 359.73695786 54 368 C52.8759375 368.65613281 51.751875 369.31226563 50.59375 369.98828125 C40.20529453 375.87940895 29.21981217 379.98009225 18 384 C16.78183594 384.44730469 15.56367188 384.89460938 14.30859375 385.35546875 C8.48574601 387.41540339 3.16816101 388.58878927 -3 389 C-0.97613774 386.97613774 0.18162333 386.39090174 2.7890625 385.37109375 C3.55758545 385.06324951 4.3261084 384.75540527 5.11791992 384.43823242 C5.94525635 384.10799072 6.77259277 383.77774902 7.625 383.4375 C28.21487828 374.96022918 46.41692534 362.7952516 63 348 C63.55316895 347.5138623 64.10633789 347.02772461 64.67626953 346.52685547 C72.2281833 339.87588696 78.84968246 333.00095363 85 325 C85.78761719 324.02804687 86.57523437 323.05609375 87.38671875 322.0546875 C122.64093363 277.89006666 135.52763775 222.342078 129.97973633 166.66259766 C126.26916096 133.92862032 113.1504446 101.70082465 94 75 C93.58008789 74.41331543 93.16017578 73.82663086 92.72753906 73.22216797 C87.13923861 65.51153483 80.98585667 58.35699194 74.41210938 51.47949219 C73.4756544 50.4983516 72.54457769 49.51204753 71.61914062 48.52050781 C51.91870075 27.44464936 26.31897701 12.36244636 0 1 C0 0.67 0 0.34 0 0 Z " fill="#FB7601" transform="translate(301,95)"/>
<path d="M0 0 C5.81904596 3.27089685 10.36271211 7.60208201 12.90625 13.83203125 C13.81099334 17.22900741 14.1546108 20.23649789 14.25 23.75 C14.3015625 24.87921875 14.353125 26.0084375 14.40625 27.171875 C12.45599004 38.54839145 2.9582015 46.30732762 -4.9375 54 C-6.0900646 55.14104706 -7.24176383 56.28296892 -8.39257812 57.42578125 C-9.49401297 58.51380969 -10.59619933 59.601078 -11.69921875 60.6875 C-12.21175705 61.19265137 -12.72429535 61.69780273 -13.25236511 62.21826172 C-19.06288975 67.87371168 -19.06288975 67.87371168 -23.1875 68.3125 C-26.25 68 -26.25 68 -28.625 67 C-30.68113257 64.46937529 -30.99690838 62.38318183 -30.81762695 59.15209961 C-30.1343577 56.56155404 -29.16011112 55.3506697 -27.35546875 53.37890625 C-26.7219751 52.68659912 -26.08848145 51.99429199 -25.43579102 51.28100586 C-21.32198644 46.9880006 -17.10968021 42.79839685 -12.875 38.625 C-11.07324599 36.8486586 -9.27364817 35.07012661 -7.4765625 33.2890625 C-6.68846191 32.51256348 -5.90036133 31.73606445 -5.08837891 30.93603516 C-2.08279772 27.77079494 -1.91755213 25.32325521 -1.95703125 20.97265625 C-2.12263673 18.75647655 -2.12263673 18.75647655 -4.125 16.5625 C-7.66530434 13.95933504 -9.84229819 13.57871795 -14.25 14 C-16.75349855 15.5644163 -16.75349855 15.5644163 -18.96409607 17.84718323 C-19.82818525 18.67405199 -20.69227444 19.50092075 -21.58254814 20.35284615 C-22.46280725 21.22640692 -23.34306637 22.09996769 -24.25 23 C-25.08874224 23.81509474 -25.92748447 24.63018948 -26.79164314 25.46998405 C-29.48899333 28.10914258 -32.15897153 30.77374775 -34.82446289 33.44506836 C-35.8388755 34.45812189 -36.85349982 35.47096346 -37.86831665 36.48361206 C-40.59110028 39.20188623 -43.31077138 41.9232537 -46.02970433 44.64537883 C-48.88511235 47.50333875 -51.74298214 50.35883539 -54.60044861 53.21473694 C-59.3873664 57.99984361 -64.17218958 62.78703714 -68.95581055 67.57543945 C-74.48792007 73.1130145 -80.02365634 78.64694444 -85.56124121 84.17904371 C-90.32674071 88.94001154 -95.09029686 93.7029172 -99.85222048 98.46746165 C-102.69202697 101.30882741 -105.53250563 104.14951236 -108.37474251 106.98844719 C-111.03891443 109.64973879 -113.70064414 112.31344875 -116.36047745 114.97907639 C-117.33801469 115.95793929 -118.31641022 116.93594591 -119.29570961 117.91304588 C-120.62836474 119.24298261 -121.95765897 120.57628461 -123.28675842 121.90977478 C-124.03240586 122.65579925 -124.7780533 123.40182371 -125.54629612 124.17045498 C-127.44203013 126.2062141 -128.22920417 127.23055439 -128.3046875 130.0234375 C-127.99113825 134.12684296 -127.79685441 136.35939912 -125.0625 139.5625 C-121.56058138 141.35236952 -120.12812636 141.83645863 -116.25 141 C-109.18509773 135.96063762 -103.22838316 129.09689207 -97.12488365 122.95004845 C-95.29017493 121.10243548 -93.45223705 119.25808819 -91.61347961 117.414505 C-87.71864729 113.50832584 -83.82779551 109.59819685 -79.9375 105.6875 C-75.40926507 101.1356349 -70.87939764 96.58541903 -66.34531593 92.03937721 C-64.53574374 90.22332971 -62.72921023 88.40429615 -60.92277527 86.58512878 C-59.81674713 85.47546932 -58.71057903 84.36594933 -57.60424805 83.2565918 C-57.10396088 82.75113831 -56.60367371 82.24568481 -56.08822632 81.72491455 C-53.89354767 79.52990229 -51.84604026 77.73069351 -49.25 76 C-45.88812807 76.18010028 -43.25081858 76.41887954 -40.3125 78.125 C-39.02647706 80.39445224 -38.46395997 82.32446052 -38.59187317 84.94390869 C-39.49417992 87.7628563 -41.01494893 89.29556338 -43.0300293 91.45996094 C-43.84990326 92.3423645 -44.66977722 93.22476807 -45.51449585 94.13391113 C-54.00913122 103.03405477 -62.6697492 111.76845968 -71.34106445 120.49609375 C-73.82494412 122.99782546 -76.30000497 125.50781468 -78.76782227 128.02539062 C-81.77975941 131.09792233 -84.80653762 134.15509111 -87.84409142 137.2022934 C-88.986561 138.35323764 -90.1239546 139.50924691 -91.25574684 140.67069244 C-99.12479818 148.73489711 -107.45401968 156.6202481 -119.25 157.75 C-126.32966344 157.24757227 -133.20632409 153.9614144 -138.2734375 149.03125 C-143.19541589 142.78874083 -144.44184447 136.98008547 -144.80859375 129.171875 C-142.96874155 118.72460239 -135.70928035 111.73725581 -128.46801758 104.57104492 C-127.36918439 103.46542337 -126.27141483 102.35874387 -125.17462158 101.25109863 C-122.21277206 98.26659449 -119.23549368 95.29795646 -116.25435853 92.33273101 C-113.12450439 89.21560784 -110.00694942 86.0862209 -106.88737488 82.95881653 C-101.64830785 77.71067384 -96.39883509 72.47311341 -91.14331055 67.24145508 C-85.08258745 61.20793902 -79.04008647 55.15662242 -73.00673372 49.09574622 C-67.80979691 43.87605998 -62.60310514 38.66625501 -57.38825721 33.46446306 C-54.28084592 30.36481421 -51.17683352 27.2619641 -48.08161354 24.15013695 C-45.16997768 21.22397057 -42.24621427 18.31047096 -39.31297302 15.40596771 C-38.24371345 14.34327326 -37.17859977 13.27638689 -36.11818504 12.20486641 C-25.85707519 1.84631406 -14.86860304 -6.62328681 0 0 Z " fill="#050200" transform="translate(261.25,152)"/>
<path d="M0 0 C2.92937654 1.81310142 5.43647949 3.87295899 7 7 C7.61221596 12.38750042 6.16338785 14.71538076 3 19 C1.12272733 21.13275041 -0.86603015 23.13659868 -2.88293457 25.13690186 C-3.46747799 25.72456526 -4.05202142 26.31222867 -4.65427828 26.91770005 C-6.60399335 28.87535925 -8.56073896 30.82583107 -10.51757812 32.77636719 C-11.92094193 34.18244238 -13.32388018 35.5889424 -14.72642517 36.99583435 C-18.52951574 40.80803185 -22.33889254 44.61388886 -26.1497097 48.41836071 C-30.13734853 52.4009328 -34.12010174 56.38838589 -38.1036377 60.37506104 C-44.79157165 67.06663182 -51.48370785 73.75397827 -58.17822266 80.43896484 C-65.92095786 88.17080717 -73.65644972 95.90984016 -81.38823557 103.65263057 C-88.02668288 110.3001482 -94.66901275 116.94376741 -101.31461477 123.58413243 C-105.28392766 127.55032538 -109.25187229 131.51786181 -113.21632385 135.48891449 C-116.94149115 139.21985119 -120.67150185 142.9458764 -124.40533638 146.6681385 C-125.77607781 148.03623157 -127.14511299 149.40603661 -128.51232719 150.77765465 C-130.37599404 152.64677106 -132.24568661 154.50964232 -134.11706543 156.37103271 C-134.65909119 156.91751992 -135.20111695 157.46400712 -135.75956774 158.02705455 C-139.58509725 161.81296707 -142.09715124 163.75781925 -147.4375 164.4375 C-151.91903826 163.88713565 -153.20852117 162.44829737 -156 159 C-157.50889469 155.98221063 -157.50026276 154.37677363 -157 151 C-151.41210265 142.88623146 -143.1564253 136.01568145 -136.2019043 129.07250977 C-134.80491307 127.67416181 -133.4081343 126.27560158 -132.0115509 124.87684631 C-128.23742274 121.0981787 -124.46016191 117.32265748 -120.68217444 113.54784894 C-116.72580949 109.59402263 -112.77189267 105.63774932 -108.81758118 101.68186951 C-102.18446509 95.04693739 -95.54925022 88.41410963 -88.9128418 81.7824707 C-81.23381425 74.10889815 -73.55841397 66.4317116 -65.88486165 58.75266415 C-59.29380068 52.15707193 -52.70080148 45.56342195 -46.10616428 38.97140545 C-42.16817995 35.0349821 -38.23087915 31.09788146 -34.29532433 27.15902901 C-30.60152397 23.46234933 -26.90530384 19.76810662 -23.20716667 16.07576561 C-21.84774137 14.71766699 -20.48917452 13.35870848 -19.13151169 11.99884796 C-17.28472667 10.14934825 -15.43491816 8.3029279 -13.58427429 6.45729065 C-13.04236015 5.91314579 -12.50044602 5.36900093 -11.94211024 4.80836684 C-7.88557324 0.77323034 -5.8378289 -0.67359564 0 0 Z " fill="#FB7500" transform="translate(331,207)"/>
<path d="M0 0 C0.97090576 -0.00314209 1.94181152 -0.00628418 2.94213867 -0.00952148 C10.28347033 0.11160653 20.93211179 0.86961179 26.5 6.4375 C30.53160191 6.70043056 32.05892734 6.73154844 35.5 4.4375 C39.47378266 4.65963692 41.58180977 7.05460141 44.3125 9.75 C45.52873047 10.91982422 45.52873047 10.91982422 46.76953125 12.11328125 C48.5 14.4375 48.5 14.4375 48.32421875 16.60546875 C47.7437926 17.8956103 47.13267049 19.17215903 46.5 20.4375 C46.13142663 25.14183643 47.00840308 28.28897651 48.9375 32.5625 C53.71557363 43.26211787 54.32628729 56.21147649 50.5 67.4375 C47.19320883 75.20278797 43.60685582 82.47266408 37.5 88.4375 C36.84 88.4375 36.18 88.4375 35.5 88.4375 C34.10639758 86.42213651 32.82658821 84.40739264 31.5625 82.3125 C23.56677057 69.51050508 13.90796894 58.3260678 3.5 47.4375 C2.86449219 46.76074219 2.22898437 46.08398438 1.57421875 45.38671875 C-6.52956991 36.97347754 -16.01465257 30.23376436 -25.57373047 23.59887695 C-29.32420579 20.99493576 -32.97542092 18.34700548 -36.5 15.4375 C-26.31428724 5.3117032 -14.28205948 0.03781873 0 0 Z " fill="#FC636E" transform="translate(403.5,89.5625)"/>
<path d="M0 0 C2.7109375 1.97265625 2.7109375 1.97265625 4.625 3.9375 C4.625 5.2575 4.625 6.5775 4.625 7.9375 C2.21928361 9.8542251 -0.10211768 11.48701281 -2.6875 13.125 C-4.17037393 14.10444117 -5.65083738 15.08754124 -7.12890625 16.07421875 C-8.22162842 16.8019751 -8.22162842 16.8019751 -9.33642578 17.54443359 C-18.39262049 23.73301408 -26.40239872 31.43651739 -34.375 38.9375 C-35.08398438 39.59234375 -35.79296875 40.2471875 -36.5234375 40.921875 C-45.10376312 49.11696151 -52.03151022 58.95913576 -58.9375 68.5625 C-59.35499512 69.14209473 -59.77249023 69.72168945 -60.20263672 70.31884766 C-62.17468049 73.09804591 -63.97148355 75.82700408 -65.375 78.9375 C-72.67810804 75.96511905 -76.27375055 67.60831395 -79.25 60.75 C-84.00899648 49.2307072 -84.07275223 35.31079093 -79.63671875 23.71484375 C-73.22215176 9.59485263 -63.74992635 -0.43541282 -49.625 -7 C-32.87014374 -12.96829791 -14.46448798 -9.80798614 0 0 Z " fill="#FC636E" transform="translate(138.375,99.0625)"/>
<path d="M0 0 C5.57894737 3.15789474 5.57894737 3.15789474 7 6 C7.91518919 12.63512163 7.91518919 12.63512163 5.78466797 15.8125 C5.23439941 16.410625 4.68413086 17.00875 4.1171875 17.625 C3.48200195 18.31674316 2.84681641 19.00848633 2.19238281 19.72119141 C-1.93055278 24.00665697 -6.13963744 28.20093067 -10.375 32.375 C-12.17675401 34.1513414 -13.97635183 35.92987339 -15.7734375 37.7109375 C-16.56153809 38.48743652 -17.34963867 39.26393555 -18.16162109 40.06396484 C-20.05762341 41.87225957 -20.05762341 41.87225957 -21 44 C-20.90460938 44.65871094 -20.80921875 45.31742188 -20.7109375 45.99609375 C-20.06886096 50.6623477 -20.44156491 53.17618016 -23.12890625 57.140625 C-25.82962849 60.23702875 -28.56970851 62.72353383 -32 65 C-34.50714419 65.16029283 -36.23570958 64.71536512 -38.63818359 64.05102539 C-42.03786875 63.97757757 -43.03988537 65.33451086 -45.46875 67.65625 C-46.34668213 68.48850098 -47.22461426 69.32075195 -48.12915039 70.17822266 C-49.08782369 71.11705848 -50.0447208 72.05771085 -51 73 C-51.48878632 73.47814148 -51.97757263 73.95628296 -52.48117065 74.44891357 C-55.74053636 77.6427601 -58.96692351 80.8683553 -62.1819458 84.10678101 C-63.97870567 85.91650293 -65.77874527 87.72290766 -67.57958984 89.52856445 C-71.38925082 93.34953589 -75.19490076 97.17448649 -79 101 C-83.44071202 105.4643454 -87.88307014 109.92702797 -92.32962036 114.38555908 C-94.10323156 116.165652 -95.87380916 117.94872511 -97.64428711 119.73193359 C-98.72364878 120.81492497 -99.80314951 121.89777777 -100.8828125 122.98046875 C-101.37420212 123.47702469 -101.86559174 123.97358063 -102.37187195 124.48518372 C-105.17590732 127.28965731 -106.75973935 128.83087355 -110.75 129.375 C-114.22594133 128.97392985 -116.21717953 128.09373257 -118.78125 125.6796875 C-121.25122282 122.27555829 -121.6151736 119.09590491 -121 115 C-119.80335617 113.1619091 -119.80335617 113.1619091 -118.12957764 111.36422729 C-117.48815575 110.6709219 -116.84673386 109.9776165 -116.18587494 109.26330185 C-112.03393131 104.96429026 -107.8450571 100.70623595 -103.61425781 96.48486328 C-102.58341702 95.45266462 -101.55278846 94.42025397 -100.52235413 93.38764954 C-97.74605315 90.60682293 -94.96663878 87.82912846 -92.18648243 85.05215693 C-89.27025819 82.13847819 -86.35649006 79.22234486 -83.44232178 76.30661011 C-78.55530306 71.41777752 -73.66619148 66.53104538 -68.77587891 61.64550781 C-63.12249054 55.9975758 -57.47273409 50.34602988 -51.82482076 44.69262326 C-46.96706495 39.83033217 -42.10736662 34.96998902 -37.24603343 30.1112746 C-34.34592052 27.21272021 -31.44648646 24.31349545 -28.54880524 21.41250992 C-25.82926449 18.69008394 -23.10729566 15.97010936 -20.38342094 13.25201988 C-19.38401764 12.25394001 -18.38546652 11.25500599 -17.38782692 10.25516319 C-16.02748393 8.89209279 -14.66376278 7.53239626 -13.29986572 6.17288208 C-12.53741673 5.41081011 -11.77496773 4.64873814 -10.98941422 3.86357307 C-7.26463955 0.37441042 -5.06091124 -0.59540132 0 0 Z " fill="#FB7501" transform="translate(253,165)"/>
<path d="M0 0 C2.8100346 1.79363911 4.50940468 3.01880935 6 6 C6.26135382 10.87364635 6.00291814 13.60809564 3.12025642 17.60881042 C0.3846751 20.6088988 -2.45453122 23.45659452 -5.36303711 26.28710938 C-6.46508599 27.38853814 -7.565379 28.49172614 -8.66404724 29.5965271 C-11.64214261 32.58117228 -14.64429072 35.54049251 -17.65158916 38.49567223 C-20.79572517 41.59341641 -23.91750753 44.71352851 -27.04188538 47.83117676 C-32.28733316 53.05917455 -37.54698853 58.27249515 -42.81713867 63.47558594 C-50.25585983 70.81968816 -57.66885064 78.18934166 -65.07672489 85.56453991 C-74.99472586 95.4360491 -84.9198298 105.30065297 -94.87511635 115.13457108 C-95.95391299 116.2008274 -97.03189012 117.26791359 -98.10900116 118.33587265 C-99.57509424 119.78908038 -101.04421866 121.23914951 -102.51426697 122.68835449 C-103.33705108 123.50166985 -104.15983519 124.3149852 -105.00755215 125.15294647 C-108.17523782 128.08947753 -110.62422604 128.4188452 -114.95703125 128.33203125 C-117 128 -117 128 -120 126.0625 C-122.26991708 122.58668947 -122.89804816 120.53155606 -122.56874371 116.42981052 C-121.91269381 113.62700687 -121.04270336 112.46763065 -119.10322571 110.36521912 C-118.46574717 109.67190931 -117.82826862 108.97859951 -117.17147255 108.26428032 C-113.03149626 103.94736328 -108.83235039 99.69353767 -104.59838867 95.46899414 C-103.56592535 94.43517297 -102.53367426 93.40113981 -101.50161743 92.36691284 C-98.72125136 89.58202142 -95.9377723 86.8002617 -93.15355086 84.01922536 C-90.2341897 81.10240917 -87.31728401 78.18313902 -84.39997864 75.26426697 C-79.50876369 70.37123828 -74.61545604 65.48030988 -69.72094727 60.59057617 C-64.05958498 54.93467325 -58.40185871 49.27515229 -52.74597186 43.61377436 C-47.88313458 38.74640501 -43.01835882 33.88097956 -38.15194494 29.01718611 C-35.24795081 26.11475189 -32.34463885 23.21164398 -29.44307518 20.30677986 C-26.72107294 17.58189695 -23.99665141 14.85945667 -21.27031326 12.1389122 C-20.2688762 11.13880089 -19.26829562 10.13783115 -18.26862144 9.13595772 C-16.90792416 7.77254224 -15.54386194 6.41248741 -14.17961121 5.05262756 C-13.41624042 4.2896338 -12.65286963 3.52664003 -11.86636639 2.74052525 C-8.34287949 -0.54538792 -4.63887097 -0.66650445 0 0 Z " fill="#FC7600" transform="translate(374,285)"/>
<path d="M0 0 C0.66 0 1.32 0 2 0 C2.20753906 0.77601563 2.41507813 1.55203125 2.62890625 2.3515625 C6.25780381 15.07547946 10.85674791 25.88657945 20.53149414 35.00610352 C23.98049444 38.37365495 23.98049444 38.37365495 24.0703125 41.2578125 C22.82630678 44.44500963 21.48363754 47.57001803 20.06713867 50.68432617 C8.69808081 75.74840725 2.90752227 102.50207528 2 130 C-6.55123234 128.96973104 -12.24220292 126.55749112 -18 120 C-19.051875 118.8553125 -19.051875 118.8553125 -20.125 117.6875 C-25.04054036 110.64189215 -26.24102057 103.43106036 -25 95 C-23.69471581 91.09235675 -22.16120291 87.35591206 -20.52734375 83.578125 C-15.16054404 71.00526431 -14.36935428 57.53418126 -13.57421875 44.03515625 C-13.49888916 42.8123999 -13.42355957 41.58964355 -13.34594727 40.32983398 C-13.2022338 37.92005294 -13.07302839 35.5093479 -12.96069336 33.09790039 C-12.36950913 23.09187612 -10.51707276 13.45516057 -4.3125 5.3125 C-3.71050781 4.50425781 -3.10851562 3.69601563 -2.48828125 2.86328125 C-1 1 -1 1 0 0 Z " fill="#94D779" transform="translate(40,152)"/>
<path d="M0 0 C3.85016847 1.48929593 5.37556534 3.55570022 7.5625 7 C8.14128906 7.886875 8.72007812 8.77375 9.31640625 9.6875 C13.16336337 17.25645507 14.47538249 25.00377169 15.0625 33.3984375 C15.13992432 34.35464996 15.21734863 35.31086243 15.29711914 36.29605103 C15.54169776 39.32166249 15.77251957 42.34805826 16 45.375 C17.55041651 66.99610201 17.55041651 66.99610201 24.1875 87.5 C27.78711531 96.00073088 28.47688143 103.4400401 25.5 112.25 C21.91865685 120.06612435 16.07387856 125.04249103 8.2734375 128.40625 C5.46238974 129.1404068 2.89241467 129.09945265 0 129 C-0.03440186 128.43418213 -0.06880371 127.86836426 -0.10424805 127.28540039 C-1.95282247 98.66832187 -7.48440971 70.44345097 -20.84765625 44.828125 C-22 42 -22 42 -21.875 39.79296875 C-20.84202848 37.67629942 -19.7229091 36.59575565 -17.9375 35.0625 C-8.2792199 25.74136726 -2.99289216 12.88518834 0 0 Z " fill="#66C743" transform="translate(470,152)"/>
<path d="M0 0 C6.05337992 3.5400508 9.90328168 8.83197256 13.9765625 14.41015625 C16.91158603 18.42798301 20.05142212 22.26325097 23.2109375 26.10546875 C28.85304406 33.0025686 34.30736057 40.02035914 39.7109375 47.10546875 C42.03790933 50.11044316 44.37276627 53.10920297 46.7109375 56.10546875 C43.63956677 57.07237376 41.60551125 57.08797962 38.48046875 56.36328125 C37.67673828 56.18410156 36.87300781 56.00492188 36.04492188 55.8203125 C34.79678711 55.52833984 34.79678711 55.52833984 33.5234375 55.23046875 C31.88511555 54.85369368 30.24578525 54.48127588 28.60546875 54.11328125 C27.88206299 53.9445752 27.15865723 53.77586914 26.41333008 53.60205078 C19.19354586 52.27536896 12.01914846 51.93792944 4.69140625 51.90234375 C3.75275223 51.89664368 2.81409821 51.8909436 1.84700012 51.8850708 C-0.13380833 51.87567496 -2.11463203 51.86910854 -4.09545898 51.86523438 C-7.05547167 51.85561848 -10.01476168 51.82457997 -12.97460938 51.79296875 C-25.68490987 51.72322527 -37.79045456 52.8275354 -50.2890625 55.10546875 C-51.53534424 55.32364258 -52.78162598 55.54181641 -54.06567383 55.76660156 C-56.47779574 56.19360992 -58.88476608 56.63674124 -61.2890625 57.10546875 C-58.50088493 52.81695544 -55.53183274 48.73850445 -52.3515625 44.73046875 C-51.87920166 44.13177979 -51.40684082 43.53309082 -50.92016602 42.91625977 C-46.69221122 37.57499635 -42.38548395 32.29875078 -38.07666016 27.02270508 C-33.75386183 21.71462962 -29.55639226 16.32174175 -25.41015625 10.875 C-24.71019531 9.96105469 -24.01023438 9.04710937 -23.2890625 8.10546875 C-22.60199219 7.20828125 -21.91492188 6.31109375 -21.20703125 5.38671875 C-15.69977566 -1.16366265 -7.98681882 -3.12112886 0 0 Z " fill="#FCDE75" transform="translate(263.2890625,23.89453125)"/>
<path d="M0 0 C8.78581433 -0.91097153 16.0081532 1.60985636 24 5 C24.33 5.33 24.66 5.66 25 6 C29.03160191 6.26293056 30.55892734 6.29404844 34 4 C37.97378266 4.22213692 40.08180977 6.61710141 42.8125 9.3125 C44.02873047 10.48232422 44.02873047 10.48232422 45.26953125 11.67578125 C47 14 47 14 46.82421875 16.16796875 C46.2437926 17.4581103 45.63267049 18.73465903 45 20 C44.63142663 24.70433643 45.50840308 27.85147651 47.4375 32.125 C52.21557363 42.82461787 52.82628729 55.77397649 49 67 C45.69320883 74.76528797 42.10685582 82.03516408 36 88 C35.34 88 34.68 88 34 88 C32.38927867 85.73612378 30.89786995 83.48281689 29.4375 81.125 C29.02564453 80.47402344 28.61378906 79.82304687 28.18945312 79.15234375 C25.21552579 74.43105159 25.21552579 74.43105159 24 72 C24.54541016 69.98193359 24.54541016 69.98193359 25.4140625 67.5234375 C27.11405042 62.1249582 27.46567539 57.25625465 27.375 51.625 C27.36484863 50.7067041 27.35469727 49.7884082 27.34423828 48.84228516 C26.96183906 32.06118448 20.88145382 19.7783162 9 8 C6.72018397 5.91448647 4.39536349 3.95539877 2 2 C1.34 1.34 0.68 0.68 0 0 Z " fill="#FB4654" transform="translate(405,90)"/>
<path d="M0 0 C-1.29108381 2.76655418 -2.7064804 5.04962067 -4.65234375 7.3984375 C-5.17642822 8.03620117 -5.7005127 8.67396484 -6.24047852 9.33105469 C-6.80049561 10.00555664 -7.3605127 10.68005859 -7.9375 11.375 C-12.84758999 17.34318658 -17.68073252 23.35859262 -22.39624023 29.48193359 C-27.22189276 35.69553215 -31.05545872 38.78828954 -38.25 41.75 C-38.99507812 42.06582031 -39.74015625 42.38164063 -40.5078125 42.70703125 C-42.33489612 43.48002817 -44.16697027 44.24121095 -46 45 C-46.44988281 44.50371094 -46.89976562 44.00742188 -47.36328125 43.49609375 C-57.84790985 32.42314932 -71.04638647 25.74149581 -86 23 C-83.54272935 17.32749463 -78.93115779 14.38253691 -73.44921875 11.796875 C-63.28047414 7.85299142 -53.23773667 6.94646296 -42.4375 6.5625 C-29.35062235 6.09243981 -16.17347692 4.82043585 -3.71484375 0.55078125 C-2 0 -2 0 0 0 Z " fill="#94D678" transform="translate(204,53)"/>
<path d="M0 0 C1.50626953 0.39832031 1.50626953 0.39832031 3.04296875 0.8046875 C4.42439335 1.16179046 5.80590886 1.5185419 7.1875 1.875 C8.16879883 2.13603516 8.16879883 2.13603516 9.16992188 2.40234375 C21.64767891 5.59570337 34.2411761 6.46472746 47.06152344 6.95361328 C58.83452109 7.42061818 70.66315296 8.6140365 80.25 16.0625 C81.58804688 17.06990234 81.58804688 17.06990234 82.953125 18.09765625 C85 20 85 20 86 23 C85.23558594 23.12375 84.47117187 23.2475 83.68359375 23.375 C68.20400419 26.35542639 56.94398495 33.91335603 46 45 C32.58961827 41.01703633 25.5365978 35.44461838 17.50097656 24.09423828 C15.11444565 20.76442986 12.55020031 17.57991102 10 14.375 C9.14516058 13.27917031 8.29096161 12.18284061 7.4375 11.0859375 C5.72393546 8.91652085 3.98935343 6.81818028 2.1875 4.7265625 C0 2 0 2 0 0 Z " fill="#95D779" transform="translate(308,53)"/>
<path d="M0 0 C7.41725995 2.85860443 11.7277882 9.09031429 16.265625 15.3046875 C19.20064853 19.32251426 22.34048462 23.15778222 25.5 27 C31.14210656 33.89709985 36.59642307 40.91489039 42 48 C44.32697183 51.00497441 46.66182877 54.00373422 49 57 C41.79082454 59.1993062 32.90718998 56.50710104 26 54 C22.36337099 51.5468893 20.38925264 48.63581923 18 45 C16.74064465 43.3576341 15.448543 41.74447093 14.15380859 40.12988281 C12.72919379 38.34899043 11.32752948 36.551962 9.9296875 34.75 C7.4524437 31.56711705 4.93615561 28.41772352 2.40625 25.27661133 C-1.87421027 19.96084203 -6.12060557 14.62178973 -10.25 9.1875 C-10.97703125 8.23230469 -11.7040625 7.27710938 -12.453125 6.29296875 C-14 4 -14 4 -14 2 C-9.36281582 -0.63162855 -5.22115949 -0.82520541 0 0 Z " fill="#FABE63" transform="translate(261,23)"/>
<path d="M0 0 C0.66 0 1.32 0 2 0 C2.03963867 0.97646484 2.07927734 1.95292969 2.12011719 2.95898438 C2.27502675 6.66508355 2.45195959 10.36988807 2.63476562 14.07470703 C2.71021491 15.66265875 2.78009192 17.25088737 2.84375 18.83935547 C3.41118142 32.83895246 5.39727657 45.56996329 11.25 58.4375 C15.33213109 68.01970629 15.74158011 78.58720276 12.5 88.5625 C12.005 89.696875 11.51 90.83125 11 92 C8.52769976 89.52769976 8.59186136 88.38429093 8.17578125 84.9609375 C8.03825439 83.91768311 7.90072754 82.87442871 7.7590332 81.79956055 C7.61167725 80.66945557 7.46432129 79.53935059 7.3125 78.375 C4.51725756 58.90520107 -1.04805609 41.11645003 -9.1796875 23.23828125 C-11.9845468 16.85369007 -11.9845468 16.85369007 -12 14 C-10.48828125 11.97265625 -10.48828125 11.97265625 -8.3125 10.0625 C-5.71135367 7.6701717 -3.48375563 5.51246603 -1.625 2.5 C-1.08875 1.675 -0.5525 0.85 0 0 Z " fill="#93D677" transform="translate(460,177)"/>
<path d="M0 0 C12.54234023 -1.30047306 23.14028692 3.7980474 33.0859375 11.03515625 C35 13 35 13 35 17 C32.375 19.140625 32.375 19.140625 29 21.25 C27.88625 21.95640625 26.7725 22.6628125 25.625 23.390625 C24.325625 24.18726563 24.325625 24.18726563 23 25 C21.36922573 22.86553092 19.80780272 20.71414538 18.30859375 18.484375 C13.63986129 11.6615927 8.60958958 6.90190751 2 2 C1.34 1.34 0.68 0.68 0 0 Z " fill="#F84653" transform="translate(108,90)"/>
<path d="M0 0 C9.97978765 0.73924353 19.35538184 4.40981193 27 11 C28.25 13.1875 28.25 13.1875 29 15 C28.09636719 15.20496094 27.19273437 15.40992187 26.26171875 15.62109375 C24.49248047 16.02521484 24.49248047 16.02521484 22.6875 16.4375 C21.51574219 16.70433594 20.34398437 16.97117187 19.13671875 17.24609375 C15.99763029 17.95313969 15.99763029 17.95313969 13 19 C12.56429688 18.29875 12.12859375 17.5975 11.6796875 16.875 C8.02158378 11.04737157 4.23986601 5.42019501 0 0 Z " fill="#64C242" transform="translate(365,61)"/>
<path d="M0 0 C-2.39763185 2.39763185 -3.33273498 2.34280586 -6.625 2.625 C-7.44226563 2.69976562 -8.25953125 2.77453125 -9.1015625 2.8515625 C-9.72804688 2.90054687 -10.35453125 2.94953125 -11 3 C-7.68381684 -0.31618316 -4.50821267 -1.6697084 0 0 Z " fill="#EC7206" transform="translate(309,481)"/>
</svg>
