<?xml version="1.0" encoding="UTF-8" standalone="no"?>
<svg
   xmlns:dc="http://purl.org/dc/elements/1.1/"
   xmlns:cc="http://creativecommons.org/ns#"
   xmlns:rdf="http://www.w3.org/1999/02/22-rdf-syntax-ns#"
   xmlns:svg="http://www.w3.org/2000/svg"
   xmlns="http://www.w3.org/2000/svg"
   xmlns:sodipodi="http://sodipodi.sourceforge.net/DTD/sodipodi-0.dtd"
   xmlns:inkscape="http://www.inkscape.org/namespaces/inkscape"
   inkscape:export-ydpi="576"
   inkscape:export-xdpi="576"
   inkscape:export-filename="D:\Project Real\November\export\filled line\png\8 - Onigiri.png"
   width="64pt"
   height="64pt"
   viewBox="0 0 22.577778 22.577778"
   version="1.1"
   id="svg831"
   inkscape:version="1.0 (4035a4fb49, 2020-05-01)"
   sodipodi:docname="9 - Steak.svg">
  <defs
     id="defs825">
    <pattern
       id="EMFhbasepattern"
       patternUnits="userSpaceOnUse"
       width="6"
       height="6"
       x="0"
       y="0" />
    <pattern
       id="EMFhbasepattern-9"
       patternUnits="userSpaceOnUse"
       width="6"
       height="6"
       x="0"
       y="0" />
    <pattern
       id="EMFhbasepattern-0"
       patternUnits="userSpaceOnUse"
       width="6"
       height="6"
       x="0"
       y="0" />
    <pattern
       id="EMFhbasepattern-7"
       patternUnits="userSpaceOnUse"
       width="6"
       height="6"
       x="0"
       y="0" />
    <pattern
       id="EMFhbasepattern-2"
       patternUnits="userSpaceOnUse"
       width="6"
       height="6"
       x="0"
       y="0" />
    <pattern
       id="EMFhbasepattern-98"
       patternUnits="userSpaceOnUse"
       width="6"
       height="6"
       x="0"
       y="0" />
    <pattern
       id="EMFhbasepattern-6"
       patternUnits="userSpaceOnUse"
       width="6"
       height="6"
       x="0"
       y="0" />
    <pattern
       id="EMFhbasepattern-01"
       patternUnits="userSpaceOnUse"
       width="6"
       height="6"
       x="0"
       y="0" />
    <pattern
       id="EMFhbasepattern-07"
       patternUnits="userSpaceOnUse"
       width="6"
       height="6"
       x="0"
       y="0" />
    <pattern
       id="EMFhbasepattern-8"
       patternUnits="userSpaceOnUse"
       width="6"
       height="6"
       x="0"
       y="0" />
    <pattern
       id="EMFhbasepattern-4"
       patternUnits="userSpaceOnUse"
       width="6"
       height="6"
       x="0"
       y="0" />
    <pattern
       id="EMFhbasepattern-40"
       patternUnits="userSpaceOnUse"
       width="6"
       height="6"
       x="0"
       y="0" />
    <pattern
       id="EMFhbasepattern-08"
       patternUnits="userSpaceOnUse"
       width="6"
       height="6"
       x="0"
       y="0" />
    <pattern
       id="EMFhbasepattern-04"
       patternUnits="userSpaceOnUse"
       width="6"
       height="6"
       x="0"
       y="0" />
    <pattern
       id="EMFhbasepattern-014"
       patternUnits="userSpaceOnUse"
       width="6"
       height="6"
       x="0"
       y="0" />
    <pattern
       id="EMFhbasepattern-27"
       patternUnits="userSpaceOnUse"
       width="6"
       height="6"
       x="0"
       y="0" />
    <pattern
       id="EMFhbasepattern-09"
       patternUnits="userSpaceOnUse"
       width="6"
       height="6"
       x="0"
       y="0" />
    <pattern
       id="EMFhbasepattern-5"
       patternUnits="userSpaceOnUse"
       width="6"
       height="6"
       x="0"
       y="0" />
    <pattern
       id="EMFhbasepattern-018"
       patternUnits="userSpaceOnUse"
       width="6"
       height="6"
       x="0"
       y="0" />
  </defs>
  <sodipodi:namedview
     id="base"
     pagecolor="#ffffff"
     bordercolor="#666666"
     borderopacity="1.0"
     inkscape:pageopacity="0.0"
     inkscape:pageshadow="2"
     inkscape:zoom="6.2578125"
     inkscape:cx="42.666667"
     inkscape:cy="42.666667"
     inkscape:document-units="pt"
     inkscape:current-layer="layer1"
     showgrid="false"
     units="pt"
     inkscape:window-width="1366"
     inkscape:window-height="706"
     inkscape:window-x="-8"
     inkscape:window-y="-8"
     inkscape:window-maximized="1"
     inkscape:pagecheckerboard="true"
     inkscape:showpageshadow="false"
     inkscape:object-paths="true"
     inkscape:snap-intersection-paths="true"
     inkscape:snap-smooth-nodes="true"
     inkscape:snap-midpoints="true"
     showguides="true"
     inkscape:snap-bbox="true"
     inkscape:bbox-nodes="true"
     inkscape:snap-nodes="false"
     inkscape:snap-global="true"
     inkscape:document-rotation="0">
    <inkscape:grid
       type="xygrid"
       id="grid1378" />
    <sodipodi:guide
       position="0.97013831,21.607643"
       orientation="78.000048,0"
       id="guide1380"
       inkscape:locked="false" />
    <sodipodi:guide
       position="0.97013831,0.97013129"
       orientation="0,78.000005"
       id="guide1382"
       inkscape:locked="false" />
    <sodipodi:guide
       position="21.607639,0.97013129"
       orientation="-78.000048,0"
       id="guide1384"
       inkscape:locked="false" />
    <sodipodi:guide
       position="21.607639,21.607643"
       orientation="0,-78.000005"
       id="guide1386"
       inkscape:locked="false" />
  </sodipodi:namedview>
  <metadata
     id="metadata828">
    <rdf:RDF>
      <cc:Work
         rdf:about="">
        <dc:format>image/svg+xml</dc:format>
        <dc:type
           rdf:resource="http://purl.org/dc/dcmitype/StillImage" />
        <dc:title></dc:title>
      </cc:Work>
    </rdf:RDF>
  </metadata>
  <g
     inkscape:label="Icon"
     inkscape:groupmode="layer"
     id="layer1"
     transform="translate(0,-274.42223)">
    <g
       transform="matrix(1.2567252,0,0,1.2567252,-37.685042,-76.895758)"
       style="display:inline;stroke-width:0.795719"
       id="g948">
      <g
         style="stroke-width:0.795719"
         id="g921">
        <g
           style="stroke-width:0.795719"
           id="g895">
          <g
             style="stroke-width:0.795719"
             id="g870">
            <g
               style="stroke-width:0.795719"
               id="g846">
              <g
                 style="stroke-width:0.795719"
                 id="g823">
                <g
                   style="stroke-width:0.795719"
                   id="g801">
                  <g
                     style="stroke-width:0.795719"
                     id="g780">
                    <g
                       style="stroke-width:0.795719"
                       id="g760">
                      <g
                         style="stroke-width:0.795719"
                         id="g494">
                        <path
                           id="path400"
                           d="m 33.873141,293.15466 c 1.203724,0.25054 2.339085,-0.13011 3.334962,0.22861 0.753996,0.17783 1.297188,0.81935 2.049806,1.29111 0.0019,0.001 0.0039,0.003 0.0059,0.004 2.120308,1.2516 5.030364,0.75728 6.611328,-1.13476 m 0.002,-0.002 c 0.992532,-1.10479 1.375581,-2.60147 1.292016,-4.02831 10e-4,-0.68937 10e-4,-1.38482 10e-4,-2.08104 0.01924,-2.04975 -1.132801,-3.46561 -2.734375,-4.3457 -1.601574,-0.88009 -3.656037,-1.26822 -5.574219,-1.37696 -0.0026,-7.1e-4 -0.0052,-10e-4 -0.0078,-0.002 l -2.43e-4,-5.8e-4 c -2.932721,-0.0863 -4.962879,0.57475 -6.261719,1.65625 -1.29884,1.08151 -1.840407,2.5751 -1.826172,4.06836 -10e-6,10e-4 -10e-6,0.003 0,0.004 0.02367,0.97922 -0.06179,1.994 0.0625,3.02148 6.02e-4,0.003 0.0013,0.007 0.002,0.01 0.240188,1.51096 1.641804,2.48044 3.041016,2.68554"
                           style="color:#000000;font-style:normal;font-variant:normal;font-weight:normal;font-stretch:normal;font-size:medium;line-height:normal;font-family:sans-serif;font-variant-ligatures:normal;font-variant-position:normal;font-variant-caps:normal;font-variant-numeric:normal;font-variant-alternates:normal;font-variant-east-asian:normal;font-feature-settings:normal;font-variation-settings:normal;text-indent:0;text-align:start;text-decoration:none;text-decoration-line:none;text-decoration-style:solid;text-decoration-color:#000000;letter-spacing:normal;word-spacing:normal;text-transform:none;writing-mode:lr-tb;direction:ltr;text-orientation:mixed;dominant-baseline:auto;baseline-shift:baseline;text-anchor:start;white-space:normal;shape-padding:0;shape-margin:0;inline-size:0;clip-rule:nonzero;display:inline;overflow:visible;visibility:visible;isolation:auto;mix-blend-mode:normal;color-interpolation:sRGB;color-interpolation-filters:linearRGB;solid-color:#000000;solid-opacity:1;vector-effect:none;fill:#f0517a;fill-opacity:1;fill-rule:nonzero;stroke:none;stroke-width:0.421068;stroke-linecap:round;stroke-linejoin:round;stroke-miterlimit:1.5;stroke-dasharray:none;stroke-dashoffset:0;stroke-opacity:1;color-rendering:auto;image-rendering:auto;shape-rendering:auto;text-rendering:auto;enable-background:accumulate;stop-color:#000000"
                           sodipodi:nodetypes="ccccccccsccccccccc" />
                        <path
                           d="m 33.873296,293.1546 c 1.203725,0.25054 2.338983,-0.13044 3.334682,0.22828 0.753817,0.17783 1.297387,0.8195 2.050005,1.29126 0.0019,10e-4 0.0038,0.003 0.0057,0.004 2.120308,1.2516 5.030518,0.75774 6.612533,-1.1353 0.993582,-1.10579 1.376492,-2.60273 1.292978,-4.02942 0.0011,-0.68922 0.0011,-1.38503 0.001,-2.08125 0.01446,-1.54043 -0.632807,-2.72235 -1.635043,-3.58841 v -7e-5 c 0.693446,0.80007 1.117587,1.81158 1.105876,3.05925 3e-6,0.69622 5e-6,1.39202 0,2.08824 l -0.0021,-0.0139 c 0.08456,1.43369 -0.298347,2.93062 -1.290879,4.03541 l -0.0021,0.002 c -1.580965,1.89204 -4.491175,2.38589 -6.614333,1.13229 -0.755468,-0.47376 -1.299039,-1.11543 -2.052855,-1.29326 -0.995698,-0.35872 -2.130957,0.0223 -3.335731,-0.22928 -0.684304,-0.10116 -1.367294,-0.38496 -1.916178,-0.82369 0.590648,0.74245 1.517023,1.21593 2.444295,1.35185"
                           style="color:#000000;font-style:normal;font-variant:normal;font-weight:normal;font-stretch:normal;font-size:medium;line-height:normal;font-family:sans-serif;font-variant-ligatures:normal;font-variant-position:normal;font-variant-caps:normal;font-variant-numeric:normal;font-variant-alternates:normal;font-variant-east-asian:normal;font-feature-settings:normal;font-variation-settings:normal;text-indent:0;text-align:start;text-decoration:none;text-decoration-line:none;text-decoration-style:solid;text-decoration-color:#000000;letter-spacing:normal;word-spacing:normal;text-transform:none;writing-mode:lr-tb;direction:ltr;text-orientation:mixed;dominant-baseline:auto;baseline-shift:baseline;text-anchor:start;white-space:normal;shape-padding:0;shape-margin:0;inline-size:0;clip-rule:nonzero;display:inline;overflow:visible;visibility:visible;isolation:auto;mix-blend-mode:normal;color-interpolation:sRGB;color-interpolation-filters:linearRGB;solid-color:#000000;solid-opacity:1;vector-effect:none;fill:#dc1c4b;fill-opacity:1;fill-rule:nonzero;stroke:none;stroke-width:0.421068;stroke-linecap:round;stroke-linejoin:round;stroke-miterlimit:1.5;stroke-dasharray:none;stroke-dashoffset:0;stroke-opacity:1;color-rendering:auto;image-rendering:auto;shape-rendering:auto;text-rendering:auto;enable-background:accumulate;stop-color:#000000"
                           id="path462"
                           sodipodi:nodetypes="ccccccccccccccccccc" />
                        <path
                           id="path384"
                           d="m 32.730388,283.26571 c -1.48896,1.18791 -2.461382,3.30775 -1.705078,5.20899 -10e-6,0.001 -10e-6,0.003 0,0.004 0.329942,0.79269 0.958822,1.33604 1.679687,1.66992 0.720866,0.33387 1.537798,0.46776 2.296875,0.45703 0.0098,-1.2e-4 0.01958,-7.9e-4 0.0293,-0.002 1.177407,-0.14592 2.411698,-0.003 3.322266,0.73242 l -0.01953,-0.0195 c 1.289091,1.28215 3.270368,1.69723 4.988282,1.20507 2.374252,-0.63084 4.058816,-3.04008 3.830078,-5.48828 -0.09255,-1.8775 -1.467849,-3.39899 -3.082032,-4.14062 -1.975477,-0.91042 -4.181271,-1.2626 -6.333984,-1.1836 l 7.6e-5,-1.6e-4 c -0.0033,6e-4 -0.0065,10e-4 -0.0098,0.002 -1.696561,0.12644 -3.578032,0.36023 -4.99414,1.55273"
                           style="color:#000000;font-style:normal;font-variant:normal;font-weight:normal;font-stretch:normal;font-size:medium;line-height:normal;font-family:sans-serif;font-variant-ligatures:normal;font-variant-position:normal;font-variant-caps:normal;font-variant-numeric:normal;font-variant-alternates:normal;font-variant-east-asian:normal;font-feature-settings:normal;font-variation-settings:normal;text-indent:0;text-align:start;text-decoration:none;text-decoration-line:none;text-decoration-style:solid;text-decoration-color:#000000;letter-spacing:normal;word-spacing:normal;text-transform:none;writing-mode:lr-tb;direction:ltr;text-orientation:mixed;dominant-baseline:auto;baseline-shift:baseline;text-anchor:start;white-space:normal;shape-padding:0;shape-margin:0;inline-size:0;clip-rule:nonzero;display:inline;overflow:visible;visibility:visible;isolation:auto;mix-blend-mode:normal;color-interpolation:sRGB;color-interpolation-filters:linearRGB;solid-color:#000000;solid-opacity:1;vector-effect:none;fill:#b01d47;fill-opacity:1;fill-rule:nonzero;stroke:none;stroke-width:0.421068;stroke-linecap:round;stroke-linejoin:round;stroke-miterlimit:1.5;stroke-dasharray:none;stroke-dashoffset:0;stroke-opacity:1;color-rendering:auto;image-rendering:auto;shape-rendering:auto;text-rendering:auto;enable-background:accumulate;stop-color:#000000"
                           sodipodi:nodetypes="ccccccccccccccc" />
                        <path
                           id="path1247"
                           style="color:#000000;font-style:normal;font-variant:normal;font-weight:normal;font-stretch:normal;font-size:medium;line-height:normal;font-family:sans-serif;font-variant-ligatures:normal;font-variant-position:normal;font-variant-caps:normal;font-variant-numeric:normal;font-variant-alternates:normal;font-variant-east-asian:normal;font-feature-settings:normal;font-variation-settings:normal;text-indent:0;text-align:start;text-decoration:none;text-decoration-line:none;text-decoration-style:solid;text-decoration-color:#000000;letter-spacing:normal;word-spacing:normal;text-transform:none;writing-mode:lr-tb;direction:ltr;text-orientation:mixed;dominant-baseline:auto;baseline-shift:baseline;text-anchor:start;white-space:normal;shape-padding:0;shape-margin:0;inline-size:0;clip-rule:nonzero;display:inline;overflow:visible;visibility:visible;isolation:auto;mix-blend-mode:normal;color-interpolation:sRGB;color-interpolation-filters:linearRGB;solid-color:#000000;solid-opacity:1;vector-effect:none;fill:#801231;fill-opacity:1;fill-rule:nonzero;stroke:none;stroke-width:0.421068;stroke-linecap:round;stroke-linejoin:round;stroke-miterlimit:1.5;stroke-dasharray:none;stroke-dashoffset:0;stroke-opacity:1;color-rendering:auto;image-rendering:auto;shape-rendering:auto;text-rendering:auto;enable-background:accumulate;stop-color:#000000"
                           d="m 44.957395,285.2498 c -0.372823,-0.0156 -0.320404,0.60136 0.04305,0.52562 0.314701,-0.0479 0.275582,-0.52877 -0.04305,-0.52562 z" />
                        <path
                           id="path1249"
                           style="color:#000000;font-style:normal;font-variant:normal;font-weight:normal;font-stretch:normal;font-size:medium;line-height:normal;font-family:sans-serif;font-variant-ligatures:normal;font-variant-position:normal;font-variant-caps:normal;font-variant-numeric:normal;font-variant-alternates:normal;font-variant-east-asian:normal;font-feature-settings:normal;font-variation-settings:normal;text-indent:0;text-align:start;text-decoration:none;text-decoration-line:none;text-decoration-style:solid;text-decoration-color:#000000;letter-spacing:normal;word-spacing:normal;text-transform:none;writing-mode:lr-tb;direction:ltr;text-orientation:mixed;dominant-baseline:auto;baseline-shift:baseline;text-anchor:start;white-space:normal;shape-padding:0;shape-margin:0;inline-size:0;clip-rule:nonzero;display:inline;overflow:visible;visibility:visible;isolation:auto;mix-blend-mode:normal;color-interpolation:sRGB;color-interpolation-filters:linearRGB;solid-color:#000000;solid-opacity:1;vector-effect:none;fill:#801231;fill-opacity:1;fill-rule:nonzero;stroke:none;stroke-width:0.421068;stroke-linecap:round;stroke-linejoin:round;stroke-miterlimit:1.5;stroke-dasharray:none;stroke-dashoffset:0;stroke-opacity:1;color-rendering:auto;image-rendering:auto;shape-rendering:auto;text-rendering:auto;enable-background:accumulate;stop-color:#000000"
                           d="m 45.718444,287.02558 c -0.372823,-0.0156 -0.320404,0.60136 0.04305,0.52562 0.314701,-0.0479 0.275582,-0.52877 -0.04305,-0.52562 z" />
                        <path
                           id="path1251"
                           style="color:#000000;font-style:normal;font-variant:normal;font-weight:normal;font-stretch:normal;font-size:medium;line-height:normal;font-family:sans-serif;font-variant-ligatures:normal;font-variant-position:normal;font-variant-caps:normal;font-variant-numeric:normal;font-variant-alternates:normal;font-variant-east-asian:normal;font-feature-settings:normal;font-variation-settings:normal;text-indent:0;text-align:start;text-decoration:none;text-decoration-line:none;text-decoration-style:solid;text-decoration-color:#000000;letter-spacing:normal;word-spacing:normal;text-transform:none;writing-mode:lr-tb;direction:ltr;text-orientation:mixed;dominant-baseline:auto;baseline-shift:baseline;text-anchor:start;white-space:normal;shape-padding:0;shape-margin:0;inline-size:0;clip-rule:nonzero;display:inline;overflow:visible;visibility:visible;isolation:auto;mix-blend-mode:normal;color-interpolation:sRGB;color-interpolation-filters:linearRGB;solid-color:#000000;solid-opacity:1;vector-effect:none;fill:#801231;fill-opacity:1;fill-rule:nonzero;stroke:none;stroke-width:0.421068;stroke-linecap:round;stroke-linejoin:round;stroke-miterlimit:1.5;stroke-dasharray:none;stroke-dashoffset:0;stroke-opacity:1;color-rendering:auto;image-rendering:auto;shape-rendering:auto;text-rendering:auto;enable-background:accumulate;stop-color:#000000"
                           d="m 44.893975,288.70623 c -0.372823,-0.0155 -0.320404,0.60136 0.04305,0.52562 0.314701,-0.0479 0.275582,-0.52877 -0.04305,-0.52562 z" />
                        <path
                           id="path1253"
                           style="color:#000000;font-style:normal;font-variant:normal;font-weight:normal;font-stretch:normal;font-size:medium;line-height:normal;font-family:sans-serif;font-variant-ligatures:normal;font-variant-position:normal;font-variant-caps:normal;font-variant-numeric:normal;font-variant-alternates:normal;font-variant-east-asian:normal;font-feature-settings:normal;font-variation-settings:normal;text-indent:0;text-align:start;text-decoration:none;text-decoration-line:none;text-decoration-style:solid;text-decoration-color:#000000;letter-spacing:normal;word-spacing:normal;text-transform:none;writing-mode:lr-tb;direction:ltr;text-orientation:mixed;dominant-baseline:auto;baseline-shift:baseline;text-anchor:start;white-space:normal;shape-padding:0;shape-margin:0;inline-size:0;clip-rule:nonzero;display:inline;overflow:visible;visibility:visible;isolation:auto;mix-blend-mode:normal;color-interpolation:sRGB;color-interpolation-filters:linearRGB;solid-color:#000000;solid-opacity:1;vector-effect:none;fill:#801231;fill-opacity:1;fill-rule:nonzero;stroke:none;stroke-width:0.421068;stroke-linecap:round;stroke-linejoin:round;stroke-miterlimit:1.5;stroke-dasharray:none;stroke-dashoffset:0;stroke-opacity:1;color-rendering:auto;image-rendering:auto;shape-rendering:auto;text-rendering:auto;enable-background:accumulate;stop-color:#000000"
                           d="m 40.137421,290.7674 c -0.372824,-0.0155 -0.320405,0.60136 0.04305,0.52562 0.3147,-0.0479 0.275581,-0.52877 -0.04305,-0.52562 z" />
                        <path
                           id="path1255"
                           style="color:#000000;font-style:normal;font-variant:normal;font-weight:normal;font-stretch:normal;font-size:medium;line-height:normal;font-family:sans-serif;font-variant-ligatures:normal;font-variant-position:normal;font-variant-caps:normal;font-variant-numeric:normal;font-variant-alternates:normal;font-variant-east-asian:normal;font-feature-settings:normal;font-variation-settings:normal;text-indent:0;text-align:start;text-decoration:none;text-decoration-line:none;text-decoration-style:solid;text-decoration-color:#000000;letter-spacing:normal;word-spacing:normal;text-transform:none;writing-mode:lr-tb;direction:ltr;text-orientation:mixed;dominant-baseline:auto;baseline-shift:baseline;text-anchor:start;white-space:normal;shape-padding:0;shape-margin:0;inline-size:0;clip-rule:nonzero;display:inline;overflow:visible;visibility:visible;isolation:auto;mix-blend-mode:normal;color-interpolation:sRGB;color-interpolation-filters:linearRGB;solid-color:#000000;solid-opacity:1;vector-effect:none;fill:#801231;fill-opacity:1;fill-rule:nonzero;stroke:none;stroke-width:0.421068;stroke-linecap:round;stroke-linejoin:round;stroke-miterlimit:1.5;stroke-dasharray:none;stroke-dashoffset:0;stroke-opacity:1;color-rendering:auto;image-rendering:auto;shape-rendering:auto;text-rendering:auto;enable-background:accumulate;stop-color:#000000"
                           d="m 32.812327,285.66203 c -0.372824,-0.0156 -0.320405,0.60136 0.04305,0.52562 0.314701,-0.0479 0.275582,-0.52877 -0.04305,-0.52562 z" />
                        <path
                           id="path1257"
                           style="color:#000000;font-style:normal;font-variant:normal;font-weight:normal;font-stretch:normal;font-size:medium;line-height:normal;font-family:sans-serif;font-variant-ligatures:normal;font-variant-position:normal;font-variant-caps:normal;font-variant-numeric:normal;font-variant-alternates:normal;font-variant-east-asian:normal;font-feature-settings:normal;font-variation-settings:normal;text-indent:0;text-align:start;text-decoration:none;text-decoration-line:none;text-decoration-style:solid;text-decoration-color:#000000;letter-spacing:normal;word-spacing:normal;text-transform:none;writing-mode:lr-tb;direction:ltr;text-orientation:mixed;dominant-baseline:auto;baseline-shift:baseline;text-anchor:start;white-space:normal;shape-padding:0;shape-margin:0;inline-size:0;clip-rule:nonzero;display:inline;overflow:visible;visibility:visible;isolation:auto;mix-blend-mode:normal;color-interpolation:sRGB;color-interpolation-filters:linearRGB;solid-color:#000000;solid-opacity:1;vector-effect:none;fill:#801231;fill-opacity:1;fill-rule:nonzero;stroke:none;stroke-width:0.421068;stroke-linecap:round;stroke-linejoin:round;stroke-miterlimit:1.5;stroke-dasharray:none;stroke-dashoffset:0;stroke-opacity:1;color-rendering:auto;image-rendering:auto;shape-rendering:auto;text-rendering:auto;enable-background:accumulate;stop-color:#000000"
                           d="m 35.951653,283.4423 c -0.372824,-0.0156 -0.320405,0.60136 0.04305,0.52562 0.314701,-0.0479 0.275582,-0.52877 -0.04305,-0.52562 z" />
                        <path
                           id="path1259"
                           style="color:#000000;font-style:normal;font-variant:normal;font-weight:normal;font-stretch:normal;font-size:medium;line-height:normal;font-family:sans-serif;font-variant-ligatures:normal;font-variant-position:normal;font-variant-caps:normal;font-variant-numeric:normal;font-variant-alternates:normal;font-variant-east-asian:normal;font-feature-settings:normal;font-variation-settings:normal;text-indent:0;text-align:start;text-decoration:none;text-decoration-line:none;text-decoration-style:solid;text-decoration-color:#000000;letter-spacing:normal;word-spacing:normal;text-transform:none;writing-mode:lr-tb;direction:ltr;text-orientation:mixed;dominant-baseline:auto;baseline-shift:baseline;text-anchor:start;white-space:normal;shape-padding:0;shape-margin:0;inline-size:0;clip-rule:nonzero;display:inline;overflow:visible;visibility:visible;isolation:auto;mix-blend-mode:normal;color-interpolation:sRGB;color-interpolation-filters:linearRGB;solid-color:#000000;solid-opacity:1;vector-effect:none;fill:#801231;fill-opacity:1;fill-rule:nonzero;stroke:none;stroke-width:0.421068;stroke-linecap:round;stroke-linejoin:round;stroke-miterlimit:1.5;stroke-dasharray:none;stroke-dashoffset:0;stroke-opacity:1;color-rendering:auto;image-rendering:auto;shape-rendering:auto;text-rendering:auto;enable-background:accumulate;stop-color:#000000"
                           d="m 37.981116,289.30872 c -0.372823,-0.0155 -0.320404,0.60136 0.04305,0.52562 0.314701,-0.0479 0.275582,-0.52877 -0.04305,-0.52562 z" />
                        <path
                           d="m 47.160418,287.74576 c -0.119608,2.18788 -1.695112,4.20657 -3.838009,4.77593 -1.717913,0.49216 -3.699235,0.0771 -4.978765,-1.19529 -0.901009,-0.72562 -2.135311,-0.8689 -3.327188,-0.72198 -0.773549,0.0117 -1.590622,-0.12195 -2.311488,-0.45582 -0.720865,-0.33388 -1.349544,-0.87749 -1.679485,-1.67018 -10e-6,-0.001 -10e-6,-0.003 0,-0.004 -0.142814,-0.35901 -0.223454,-0.7261 -0.251148,-1.09295 l 1.4e-5,5.1e-4 c -0.0027,0.045 -0.0071,0.0898 -0.0083,0.13487 8.02e-4,0.0438 -4.28e-4,0.0883 0,0.13229 0.0033,0.45379 0.08256,0.91037 0.259416,1.35496 -10e-6,0.001 -10e-6,0.003 0,0.004 0.329941,0.79269 0.95862,1.33631 1.679485,1.67019 0.720866,0.33387 1.537939,0.46755 2.311488,0.45582 1.191877,-0.14692 2.426179,-0.004 3.327188,0.72197 1.27953,1.27235 3.260852,1.68746 4.978765,1.1953 2.208662,-0.58684 3.817879,-2.71296 3.847827,-5.03252 -7.06e-4,-0.12753 -0.0065,-0.20038 -0.0098,-0.2731 z"
                           style="color:#000000;font-style:normal;font-variant:normal;font-weight:normal;font-stretch:normal;font-size:medium;line-height:normal;font-family:sans-serif;font-variant-ligatures:normal;font-variant-position:normal;font-variant-caps:normal;font-variant-numeric:normal;font-variant-alternates:normal;font-variant-east-asian:normal;font-feature-settings:normal;font-variation-settings:normal;text-indent:0;text-align:start;text-decoration:none;text-decoration-line:none;text-decoration-style:solid;text-decoration-color:#000000;letter-spacing:normal;word-spacing:normal;text-transform:none;writing-mode:lr-tb;direction:ltr;text-orientation:mixed;dominant-baseline:auto;baseline-shift:baseline;text-anchor:start;white-space:normal;shape-padding:0;shape-margin:0;inline-size:0;clip-rule:nonzero;display:inline;overflow:visible;visibility:visible;isolation:auto;mix-blend-mode:normal;color-interpolation:sRGB;color-interpolation-filters:linearRGB;solid-color:#000000;solid-opacity:1;vector-effect:none;fill:#ffa185;fill-opacity:1;fill-rule:nonzero;stroke:none;stroke-width:0.421068;stroke-linecap:round;stroke-linejoin:round;stroke-miterlimit:1.5;stroke-dasharray:none;stroke-dashoffset:0;stroke-opacity:1;color-rendering:auto;image-rendering:auto;shape-rendering:auto;text-rendering:auto;enable-background:accumulate;stop-color:#000000"
                           id="path439"
                           sodipodi:nodetypes="ccccccccccccccccccc" />
                        <path
                           id="path418"
                           d="m 42.894247,286.2785 c -0.938826,0.21279 -1.200332,1.53613 -0.416627,2.09373 0.742084,0.6122 1.953653,0.0153 1.913662,-0.948 0.0089,-0.77188 -0.756197,-1.35575 -1.497035,-1.14573 z"
                           style="color:#000000;font-style:normal;font-variant:normal;font-weight:normal;font-stretch:normal;font-size:medium;line-height:normal;font-family:sans-serif;font-variant-ligatures:normal;font-variant-position:normal;font-variant-caps:normal;font-variant-numeric:normal;font-variant-alternates:normal;font-variant-east-asian:normal;font-feature-settings:normal;font-variation-settings:normal;text-indent:0;text-align:start;text-decoration:none;text-decoration-line:none;text-decoration-style:solid;text-decoration-color:#000000;letter-spacing:normal;word-spacing:normal;text-transform:none;writing-mode:lr-tb;direction:ltr;text-orientation:mixed;dominant-baseline:auto;baseline-shift:baseline;text-anchor:start;white-space:normal;shape-padding:0;shape-margin:0;inline-size:0;clip-rule:nonzero;display:inline;overflow:visible;visibility:visible;isolation:auto;mix-blend-mode:normal;color-interpolation:sRGB;color-interpolation-filters:linearRGB;solid-color:#000000;solid-opacity:1;vector-effect:none;fill:#ececec;fill-opacity:1;fill-rule:nonzero;stroke:none;stroke-width:0.421068;stroke-linecap:round;stroke-linejoin:round;stroke-miterlimit:1.5;stroke-dasharray:none;stroke-dashoffset:0;stroke-opacity:1;color-rendering:auto;image-rendering:auto;shape-rendering:auto;text-rendering:auto;enable-background:accumulate;stop-color:#000000" />
                        <path
                           id="path1271"
                           style="color:#000000;font-style:normal;font-variant:normal;font-weight:normal;font-stretch:normal;font-size:medium;line-height:normal;font-family:sans-serif;font-variant-ligatures:normal;font-variant-position:normal;font-variant-caps:normal;font-variant-numeric:normal;font-variant-alternates:normal;font-variant-east-asian:normal;font-feature-settings:normal;font-variation-settings:normal;text-indent:0;text-align:start;text-decoration:none;text-decoration-line:none;text-decoration-style:solid;text-decoration-color:#000000;letter-spacing:normal;word-spacing:normal;text-transform:none;writing-mode:lr-tb;direction:ltr;text-orientation:mixed;dominant-baseline:auto;baseline-shift:baseline;text-anchor:start;white-space:normal;shape-padding:0;shape-margin:0;inline-size:0;clip-rule:nonzero;display:inline;overflow:visible;visibility:visible;isolation:auto;mix-blend-mode:normal;color-interpolation:sRGB;color-interpolation-filters:linearRGB;solid-color:#000000;solid-opacity:1;vector-effect:none;fill:#801231;fill-opacity:1;fill-rule:nonzero;stroke:none;stroke-width:0.421068;stroke-linecap:round;stroke-linejoin:round;stroke-miterlimit:1.5;stroke-dasharray:none;stroke-dashoffset:0;stroke-opacity:1;color-rendering:auto;image-rendering:auto;shape-rendering:auto;text-rendering:auto;enable-background:accumulate;stop-color:#000000"
                           d="m 43.023064,283.94967 c -0.372823,-0.0156 -0.320404,0.60136 0.04305,0.52562 0.314701,-0.0479 0.275582,-0.52877 -0.04305,-0.52562 z" />
                        <path
                           d="m 43.168424,286.10922 c -0.07405,0.002 -0.148992,0.0131 -0.223758,0.0289 0.580247,0.12632 1.051259,0.64775 1.043863,1.28571 0.0277,0.66724 -0.487426,1.17539 -1.07797,1.29605 0.769445,0.16482 1.642988,-0.43246 1.607137,-1.29605 0.0087,-0.74722 -0.638291,-1.33499 -1.349272,-1.31465 z"
                           style="color:#000000;font-style:normal;font-variant:normal;font-weight:normal;font-stretch:normal;font-size:medium;line-height:normal;font-family:sans-serif;font-variant-ligatures:normal;font-variant-position:normal;font-variant-caps:normal;font-variant-numeric:normal;font-variant-alternates:normal;font-variant-east-asian:normal;font-feature-settings:normal;font-variation-settings:normal;text-indent:0;text-align:start;text-decoration:none;text-decoration-line:none;text-decoration-style:solid;text-decoration-color:#000000;letter-spacing:normal;word-spacing:normal;text-transform:none;writing-mode:lr-tb;direction:ltr;text-orientation:mixed;dominant-baseline:auto;baseline-shift:baseline;text-anchor:start;white-space:normal;shape-padding:0;shape-margin:0;inline-size:0;clip-rule:nonzero;display:inline;overflow:visible;visibility:visible;isolation:auto;mix-blend-mode:normal;color-interpolation:sRGB;color-interpolation-filters:linearRGB;solid-color:#000000;solid-opacity:1;vector-effect:none;fill:#cccccc;fill-opacity:1;fill-rule:nonzero;stroke:none;stroke-width:0.421068;stroke-linecap:round;stroke-linejoin:round;stroke-miterlimit:1.5;stroke-dasharray:none;stroke-dashoffset:0;stroke-opacity:1;color-rendering:auto;image-rendering:auto;shape-rendering:auto;text-rendering:auto;enable-background:accumulate;stop-color:#000000"
                           id="path429" />
                        <path
                           d="m 38.545446,281.70017 c -0.139065,-0.002 -0.277667,0.003 -0.416509,0.005 1.854268,0.0398 3.71784,0.40724 5.41207,1.18804 1.614184,0.74163 2.989435,2.26282 3.081984,4.14032 0.228737,2.4482 -1.455489,4.85771 -3.829741,5.48855 -0.387721,0.11108 -0.789128,0.17312 -1.192692,0.19224 0.579872,0.0298 1.164792,-0.0327 1.721859,-0.19224 2.374251,-0.63084 4.058478,-3.04035 3.82974,-5.48855 -0.09255,-1.8775 -1.4678,-3.39869 -3.081983,-4.14032 -1.728541,-0.79662 -3.633367,-1.16576 -5.524728,-1.19269 z m -3.155878,8.85269 c -0.266621,-0.004 -0.534837,0.0132 -0.800984,0.0429 0.138906,0.008 0.277334,0.0117 0.413411,0.01 a 0.26460996,0.26460996 0 0 0 0.02894,-0.002 c 0.17099,-0.0212 0.343506,-0.0338 0.515731,-0.0419 -0.05248,-0.002 -0.104434,-0.008 -0.157096,-0.009 z"
                           style="color:#000000;font-style:normal;font-variant:normal;font-weight:normal;font-stretch:normal;font-size:medium;line-height:normal;font-family:sans-serif;font-variant-ligatures:normal;font-variant-position:normal;font-variant-caps:normal;font-variant-numeric:normal;font-variant-alternates:normal;font-variant-east-asian:normal;font-feature-settings:normal;font-variation-settings:normal;text-indent:0;text-align:start;text-decoration:none;text-decoration-line:none;text-decoration-style:solid;text-decoration-color:#000000;letter-spacing:normal;word-spacing:normal;text-transform:none;writing-mode:lr-tb;direction:ltr;text-orientation:mixed;dominant-baseline:auto;baseline-shift:baseline;text-anchor:start;white-space:normal;shape-padding:0;shape-margin:0;inline-size:0;clip-rule:nonzero;display:inline;overflow:visible;visibility:visible;isolation:auto;mix-blend-mode:normal;color-interpolation:sRGB;color-interpolation-filters:linearRGB;solid-color:#000000;solid-opacity:1;vector-effect:none;fill:#801231;fill-opacity:1;fill-rule:nonzero;stroke:none;stroke-width:0.421068;stroke-linecap:round;stroke-linejoin:round;stroke-miterlimit:1.5;stroke-dasharray:none;stroke-dashoffset:0;stroke-opacity:1;color-rendering:auto;image-rendering:auto;shape-rendering:auto;text-rendering:auto;enable-background:accumulate;stop-color:#000000"
                           id="path457" />
                      </g>
                      <path
                         id="path947"
                         style="color:#000000;font-style:normal;font-variant:normal;font-weight:normal;font-stretch:normal;font-size:medium;line-height:normal;font-family:sans-serif;font-variant-ligatures:normal;font-variant-position:normal;font-variant-caps:normal;font-variant-numeric:normal;font-variant-alternates:normal;font-variant-east-asian:normal;font-feature-settings:normal;font-variation-settings:normal;text-indent:0;text-align:start;text-decoration:none;text-decoration-line:none;text-decoration-style:solid;text-decoration-color:#000000;letter-spacing:normal;word-spacing:normal;text-transform:none;writing-mode:lr-tb;direction:ltr;text-orientation:mixed;dominant-baseline:auto;baseline-shift:baseline;text-anchor:start;white-space:normal;shape-padding:0;shape-margin:0;inline-size:0;clip-rule:nonzero;display:inline;overflow:visible;visibility:visible;opacity:1;isolation:auto;mix-blend-mode:normal;color-interpolation:sRGB;color-interpolation-filters:linearRGB;solid-color:#000000;solid-opacity:1;vector-effect:none;fill:#000000;fill-opacity:1;fill-rule:nonzero;stroke:none;stroke-width:0.421068;stroke-linecap:round;stroke-linejoin:round;stroke-miterlimit:1.5;stroke-dasharray:none;stroke-dashoffset:0;stroke-opacity:1;color-rendering:auto;image-rendering:auto;shape-rendering:auto;text-rendering:auto;enable-background:accumulate;stop-color:#000000;stop-opacity:1"
                         d="m 32.731339,283.2647 c -1.222447,0.97523 -2.094183,2.57697 -1.951305,4.17055 l -0.01447,5.3e-4 c 0.02368,0.97922 -0.06176,1.99352 0.06253,3.021 5.29e-4,0.003 0.0013,0.007 0.0021,0.0103 0.240186,1.51096 1.642002,2.48057 3.04219,2.68665 1.204701,0.25152 2.33984,-0.12918 3.335716,0.22945 0.753993,0.17773 1.297038,0.81923 2.052587,1.29294 v -5.3e-4 c 2.123239,1.25355 5.033158,0.75923 6.615099,-1.13378 0.993508,-1.10577 1.37654,-2.60235 1.292945,-4.02921 7.94e-4,-0.64501 0.0011,-1.29588 0.0011,-1.94717 0.0031,-0.1768 -0.0011,-0.35439 -0.01757,-0.53227 -0.09255,-1.8775 -1.4678,-3.3992 -3.081983,-4.14083 -1.728542,-0.79662 -3.633367,-1.16576 -5.524728,-1.19269 -0.270192,-0.004 -0.540162,-5.7e-4 -0.814162,0.0103 -1.70147,0.12748 -3.582811,0.36141 -4.999951,1.55469 z m 5.030181,-1.02655 c 0.259993,-0.009 0.521068,-0.0121 0.781865,-0.008 1.82558,0.0267 3.657068,0.38309 5.306137,1.14308 1.468705,0.67479 2.696162,2.05571 2.77554,3.68763 5.29e-4,0.004 0.0013,0.008 0.0021,0.0119 0.01143,0.11913 0.01537,0.23808 0.01654,0.35708 h -0.0031 v 0.15503 c -0.05385,1.99938 -1.509453,3.90809 -3.455088,4.42505 -0.0013,6.9e-4 -0.0024,10e-4 -0.0036,0.002 -1.537626,0.4418 -3.338508,0.0598 -4.485516,-1.07901 -1.070224,-0.8641 -2.451261,-1.00954 -3.70985,-0.85679 -0.688517,0.009 -1.430925,-0.11693 -2.058789,-0.40773 -0.63019,-0.29188 -1.140388,-0.74143 -1.412317,-1.39474 -0.644974,-1.62751 0.213035,-3.53585 1.553912,-4.60153 1.266115,-1.06657 3.017239,-1.30877 4.692218,-1.43377 z m 0.152448,0.6935 c -0.08193,-10e-4 -0.159798,0.0356 -0.210841,0.0997 l -1.451076,1.81281 -0.845942,-0.54725 c -0.04868,-0.0311 -0.106217,-0.0455 -0.163814,-0.0408 -0.08181,0.006 -0.15607,0.0502 -0.201022,0.11886 -0.08051,0.1229 -0.04548,0.28785 0.07803,0.36742 l 0.800468,0.5178 -0.676447,0.84491 -1.1591,-0.74983 c -0.04873,-0.0312 -0.10663,-0.0455 -0.164333,-0.0408 -0.08192,0.006 -0.156099,0.0505 -0.20102,0.11937 -0.08034,0.12287 -0.04538,0.28737 0.07803,0.3669 l 1.113626,0.72037 -1.441773,1.80144 c -0.09187,0.11409 -0.07357,0.28111 0.04082,0.37259 0.114165,0.0922 0.281586,0.0739 0.373105,-0.0408 l 1.474327,-1.84381 1.226799,0.79375 -0.997871,1.24747 c -0.09223,0.11416 -0.07391,0.28158 0.04082,0.3731 0.113975,0.0907 0.279824,0.0722 0.371039,-0.0413 l 1.032494,-1.29036 1.165304,0.75396 c -0.0475,0.10972 -0.01551,0.23766 0.07803,0.31213 0.113975,0.0907 0.279821,0.0722 0.371036,-0.0414 0.333314,-0.41664 0.66652,-0.83341 0.99994,-1.25005 0.120107,0.0587 0.26511,0.0185 0.337963,-0.0935 0.06253,-0.0957 0.05648,-0.22081 -0.01497,-0.31006 0.228285,-0.28525 0.456432,-0.57051 0.684712,-0.85576 l 0.288872,0.18551 c 0.122992,0.0786 0.286544,0.0428 0.365353,-0.0801 0.07863,-0.12299 0.04278,-0.28655 -0.0801,-0.36536 l -0.241847,-0.15554 c 0.278495,-0.34802 0.557196,-0.69585 0.835609,-1.04387 0.09034,-0.11438 0.07116,-0.28028 -0.04289,-0.37103 -0.04493,-0.0362 -0.100465,-0.0567 -0.158131,-0.0584 -0.08265,-0.002 -0.161417,0.0351 -0.212908,0.0997 -0.289652,0.36207 -0.579458,0.72417 -0.869195,1.08624 l -1.160137,-0.74621 0.855244,-1.06867 c 0.09082,-0.11384 0.07258,-0.27967 -0.04082,-0.37104 -0.04542,-0.0368 -0.101756,-0.0575 -0.160197,-0.0589 -0.08265,-0.002 -0.161417,0.0351 -0.212908,0.0997 l -0.888833,1.11104 -1.2299,-0.79065 0.415478,-0.51935 c 0.09117,-0.11392 0.07291,-0.28014 -0.04082,-0.37155 -0.04549,-0.0366 -0.101817,-0.0571 -0.160195,-0.0584 z m -1.962155,0.51056 c -0.372825,-0.0156 -0.320564,0.60129 0.04289,0.52555 0.3147,-0.0479 0.27574,-0.5287 -0.04289,-0.52555 z m 7.071402,0.50746 c -0.372822,-0.0156 -0.320561,0.60129 0.04289,0.52555 0.314701,-0.0479 0.275741,-0.5287 -0.04289,-0.52555 z m -5.655985,0.34727 1.2299,0.79065 -0.671277,0.83922 -1.227318,-0.79375 z m 7.590234,0.95291 c -0.372824,-0.0156 -0.320563,0.60129 0.04289,0.52555 0.314701,-0.0479 0.275741,-0.5287 -0.04289,-0.52555 z m -5.912818,0.12506 1.160137,0.74569 c -0.225057,0.28122 -0.449836,0.56265 -0.674894,0.84387 l -1.157552,-0.74879 z m -2.678906,0.17415 1.227315,0.79375 -0.676445,0.84542 -1.226798,-0.79375 z m -3.553272,0.11317 c -0.372822,-0.0156 -0.320561,0.60129 0.04289,0.52555 0.314703,-0.0479 0.275741,-0.5287 -0.04289,-0.52555 z m 10.355958,0.447 c -0.101568,0.003 -0.204504,0.018 -0.306959,0.047 -1.038672,0.23542 -1.328007,1.69975 -0.460952,2.31665 0.821005,0.67731 2.161427,0.0167 2.117183,-1.04903 0.0086,-0.74723 -0.638297,-1.33499 -1.349272,-1.31465 z m -5.128887,0.52245 1.157036,0.74879 c -0.225501,0.28179 -0.450985,0.56364 -0.676444,0.84543 l -1.157036,-0.7488 z m 5.954675,0.7922 c -2.43e-4,0.007 -2.43e-4,0.0131 0,0.0196 0.03068,0.60725 -0.802526,1.01821 -1.276408,0.61701 -0.512432,-0.35308 -0.331732,-1.26591 0.362252,-1.40999 0.519358,-0.0249 0.924105,0.33825 0.914156,0.77334 z m 1.724444,-0.39843 c -0.372822,-0.0156 -0.320562,0.60129 0.04289,0.52555 0.314701,-0.0479 0.275741,-0.5287 -0.04289,-0.52555 z m -0.824757,1.68104 c -0.372822,-0.0155 -0.320561,0.60129 0.04289,0.52555 0.3147,-0.0479 0.27574,-0.5287 -0.04289,-0.52555 z m -6.549988,2.61973 c 1.279274,1.27259 3.260595,1.6877 4.978508,1.19554 1.467554,-0.38993 2.669665,-1.46021 3.321246,-2.79828 0.03465,1.25877 -0.323784,2.5349 -1.165304,3.47007 -1.405406,1.68922 -4.060103,2.14173 -5.945373,1.02888 -0.648324,-0.40828 -1.23939,-1.11742 -2.179714,-1.34359 -1.197663,-0.42389 -2.372492,-0.0281 -3.395141,-0.24598 -1.220613,-0.17879 -2.409632,-1.02418 -2.604492,-2.24999 -0.05526,-0.4621 -0.06441,-0.93368 -0.06253,-1.4118 0.351938,0.53061 0.854059,0.91791 1.41387,1.17719 0.720865,0.33387 1.537938,0.46807 2.311743,0.4563 1.192136,-0.14695 2.426439,-0.004 3.327186,0.72166 z m 5.450832,-2.289 c -0.129228,-0.004 -0.241967,0.0861 -0.267168,0.2129 l -0.150895,0.78239 h -5.29e-4 c -0.356706,0.11871 -0.726324,0.18858 -1.091925,0.20205 0.08431,-0.10938 0.168363,-0.21883 0.252698,-0.32815 0.08947,-0.11543 0.06885,-0.28147 -0.04651,-0.37103 -0.04596,-0.0353 -0.102264,-0.0546 -0.160197,-0.0548 -0.08262,-3.2e-4 -0.160544,0.0378 -0.210839,0.10335 -0.157755,0.20448 -0.315624,0.40828 -0.473358,0.61237 -0.471863,-0.0796 -0.918162,-0.27499 -1.296561,-0.61598 -0.05429,-0.0487 -0.126283,-0.0728 -0.198954,-0.0667 -0.06737,0.005 -0.130233,0.0358 -0.175699,0.0858 -0.09752,0.10839 -0.08897,0.27524 0.01913,0.3731 0.752163,0.67781 1.705338,0.87486 2.636015,0.76585 l 0.445968,0.53898 c 0.0932,0.11292 0.260446,0.12862 0.373105,0.0351 0.112919,-0.0932 0.128657,-0.26044 0.03514,-0.3731 l -0.258382,-0.31213 c 0.384186,-0.0986 0.756409,-0.24422 1.09864,-0.42633 0.129667,-0.0688 0.178596,-0.22991 0.109037,-0.35915 -0.06857,-0.12986 -0.229774,-0.17903 -0.35915,-0.10955 -0.0366,0.0195 -0.07444,0.0373 -0.111623,0.0558 l 0.08423,-0.43667 c 0.0281,-0.14347 -0.06579,-0.28258 -0.209288,-0.31058 -0.01418,-0.002 -0.02848,-0.004 -0.04289,-0.004 z m -5.813599,0.2713 c -0.372822,-0.0155 -0.320562,0.6018 0.04289,0.52606 0.3147,-0.0479 0.27574,-0.52921 -0.04289,-0.52606 z m 2.156457,1.45882 c -0.372824,-0.0155 -0.320564,0.60129 0.04289,0.52555 0.314701,-0.0479 0.275741,-0.5287 -0.04289,-0.52555 z m -4.290692,0.63769 c -0.338974,0.002 -0.679522,0.0472 -1.014926,0.1478 -0.140502,0.0418 -0.220221,0.1899 -0.177769,0.33021 0.04271,0.13967 0.190514,0.21831 0.330214,0.1757 0.750715,-0.22518 1.575559,-0.11932 2.349727,0.12661 0.138967,0.0439 0.287309,-0.0328 0.331764,-0.17157 0.0453,-0.1396 -0.03169,-0.2894 -0.171566,-0.33383 -0.522026,-0.16583 -1.082493,-0.27904 -1.647444,-0.27492 z m 2.664952,0.80202 c -0.08227,0.004 -0.15811,0.0456 -0.205156,0.11317 -0.08457,0.11978 -0.0556,0.2855 0.06459,0.36949 0.57843,0.40332 1.197499,0.92104 2.001946,1.08779 0.142791,0.0293 0.282353,-0.0625 0.312124,-0.20516 0.02951,-0.14346 -0.06314,-0.28361 -0.206706,-0.31264 -0.637862,-0.13223 -1.202507,-0.58548 -1.805056,-1.00562 -0.04735,-0.0329 -0.104148,-0.0494 -0.161748,-0.047 z"
                         sodipodi:nodetypes="ccccccccccccccsccccccccccccccscccccccccccccccccccccccccccccccccccccccccccccccccccccccccccccccccccccccccccccccccccsccccccscccccccccccccccccccccccccccccccccccccccccccccccccccscsccccccscccccccccccc" />
                    </g>
                  </g>
                </g>
              </g>
            </g>
          </g>
        </g>
      </g>
    </g>
  </g>
</svg>
