<?xml version="1.0" encoding="UTF-8"?>
<svg version="1.1" xmlns="http://www.w3.org/2000/svg" width="512" height="512">
<path d="M0 0 C0.95481766 -0.0127597 1.90963531 -0.02551941 2.89338684 -0.03866577 C4.42475533 -0.04200424 4.42475533 -0.04200424 5.98706055 -0.04541016 C7.04861862 -0.05206696 8.1101767 -0.05872375 9.2039032 -0.06558228 C11.44727856 -0.07569457 13.69068391 -0.08039974 15.93408203 -0.08007812 C19.35133958 -0.08444399 22.76729758 -0.12076 26.18432617 -0.15869141 C28.36856657 -0.16456143 30.55281307 -0.16852958 32.73706055 -0.17041016 C33.75190018 -0.18478119 34.76673981 -0.19915222 35.81233215 -0.21395874 C43.31100398 -0.16610796 48.57896513 1.39644192 54.3737793 6.21240234 C55.2090918 7.11732422 55.2090918 7.11732422 56.0612793 8.04052734 C56.9275293 8.96091797 56.9275293 8.96091797 57.8112793 9.89990234 C58.2237793 10.35880859 58.6362793 10.81771484 59.0612793 11.29052734 C63.06283171 9.50809865 65.79770554 6.91757866 68.96362305 3.94677734 C74.06704176 -0.08273762 79.14865648 -0.04174403 85.38549805 -0.08056641 C86.28694046 -0.08959488 87.18838287 -0.09862335 88.11714172 -0.10792542 C90.02255954 -0.12240601 91.92802684 -0.1313092 93.83349609 -0.13500977 C96.72214634 -0.14686337 99.60862898 -0.19603303 102.49682617 -0.24658203 C116.38008527 -0.3693355 124.73377863 1.63655933 135.0612793 11.29052734 C135.4737793 10.83162109 135.8862793 10.37271484 136.3112793 9.89990234 C136.8887793 9.28630859 137.4662793 8.67271484 138.0612793 8.04052734 C138.6181543 7.43724609 139.1750293 6.83396484 139.7487793 6.21240234 C146.45227428 0.64125449 152.65829715 -0.31832873 161.2097168 -0.27587891 C162.78857162 -0.28517677 162.78857162 -0.28517677 164.39932251 -0.29466248 C166.61638469 -0.30173692 168.83350025 -0.29862841 171.05053711 -0.28588867 C174.41970945 -0.27204076 177.78609167 -0.30611143 181.1550293 -0.34423828 C183.31909247 -0.34518981 185.48315908 -0.34332883 187.6472168 -0.33837891 C188.64232269 -0.35163712 189.63742859 -0.36489532 190.66268921 -0.3785553 C197.70321516 -0.2861035 203.21244059 1.27151097 209.0612793 5.29052734 C215.45085935 12.01055458 217.37264489 18.14978306 217.3972168 27.24755859 C217.4038736 28.10935226 217.4105304 28.97114594 217.41738892 29.85905457 C217.42749102 31.67871983 217.43220669 33.49842196 217.43188477 35.31811523 C217.4362487 38.08363851 217.47256743 40.84755269 217.51049805 43.61279297 C217.51636881 45.3868761 217.52033647 47.16096675 217.5222168 48.93505859 C217.53658783 49.75303421 217.55095886 50.57100983 217.56576538 51.41377258 C217.50419205 59.25983738 214.63389233 65.05848254 209.3112793 70.79052734 C208.69768555 71.46083984 208.0840918 72.13115234 207.4519043 72.82177734 C206.99299805 73.30646484 206.5340918 73.79115234 206.0612793 74.29052734 C206.44799805 74.71462891 206.8347168 75.13873047 207.2331543 75.57568359 C211.97218538 80.9129587 217.12410112 86.9166982 217.25415039 94.32202148 C217.27824478 95.56955956 217.27824478 95.56955956 217.30282593 96.84230042 C217.34745785 100.66772592 217.38838903 104.49297782 217.41137695 108.31860352 C217.42787664 110.32913842 217.45508677 112.33961614 217.4934082 114.34985352 C217.54855129 117.25877107 217.5701131 120.16631167 217.5847168 123.07568359 C217.60738617 123.96353043 217.63005554 124.85137726 217.65341187 125.76612854 C217.62027655 135.69214514 212.54063635 142.2084394 206.0612793 149.29052734 C206.60397461 149.85900391 207.14666992 150.42748047 207.70581055 151.01318359 C208.42124023 151.78533203 209.13666992 152.55748047 209.8737793 153.35302734 C210.58147461 154.10712891 211.28916992 154.86123047 212.01831055 155.63818359 C217.55444834 162.82563591 217.41116903 169.08159924 217.22143555 177.87255859 C217.20959459 180.35627353 217.19989567 182.83999943 217.19213867 185.32373047 C217.16538971 189.21509038 217.12375521 193.10420874 217.04443359 196.99487305 C215.93340626 211.61050197 215.93340626 211.61050197 220.171875 225.06494141 C222.66725964 227.53462907 225.11722019 229.39605694 228.0612793 231.29052734 C243.75872434 247.591081 257.0612793 274.51786639 257.0612793 297.29052734 C263.6612793 297.29052734 270.2612793 297.29052734 277.0612793 297.29052734 C273.23467045 323.20803981 269.39409964 349.12346744 265.54444885 375.03756714 C265.04986297 378.36738825 264.55549175 381.69724118 264.06115723 385.02709961 C262.17588093 397.72471545 260.28720506 410.4218162 258.39159107 423.11789322 C257.54697241 428.77510616 256.70376404 434.43252081 255.86398315 440.0904541 C255.06848072 445.44950617 254.26903406 450.80795489 253.46652603 456.16596222 C253.16941706 458.15428642 252.87374334 460.14282566 252.57955551 462.13158417 C252.1773078 464.84921665 251.76998936 467.56604055 251.36132812 470.28271484 C251.24348937 471.08711124 251.12565062 471.89150764 251.00424099 472.72027969 C250.17540268 478.17640397 250.17540268 478.17640397 249.0612793 479.29052734 C244.1112793 479.29052734 239.1612793 479.29052734 234.0612793 479.29052734 C234.0612793 490.18052734 234.0612793 501.07052734 234.0612793 512.29052734 C103.0512793 512.29052734 -27.9587207 512.29052734 -162.9387207 512.29052734 C-162.9387207 501.40052734 -162.9387207 490.51052734 -162.9387207 479.29052734 C-168.2187207 479.29052734 -173.4987207 479.29052734 -178.9387207 479.29052734 C-184.80704829 442.31468179 -190.44294707 405.30679312 -195.97719383 368.2798084 C-196.84599527 362.46893014 -197.71840053 356.65859665 -198.59148502 350.8483606 C-199.44724057 345.15251366 -200.30075036 339.45633327 -201.15245724 333.75987953 C-201.65515538 330.39788652 -202.15870661 327.03602724 -202.66452026 323.67450142 C-203.21963601 319.98124527 -203.77107091 316.28745803 -204.3215332 312.59350586 C-204.48662888 311.50046646 -204.65172455 310.40742706 -204.82182312 309.28126526 C-204.97013077 308.28087219 -205.11843842 307.28047913 -205.27124023 306.24977112 C-205.46582321 304.94984899 -205.46582321 304.94984899 -205.66433716 303.62366581 C-205.9387207 301.29052734 -205.9387207 301.29052734 -205.9387207 297.29052734 C-199.6687207 297.29052734 -193.3987207 297.29052734 -186.9387207 297.29052734 C-186.2787207 294.32052734 -185.6187207 291.35052734 -184.9387207 288.29052734 C-183.5715332 285.58349609 -183.5715332 285.58349609 -182.0637207 283.47802734 C-181.53907227 282.72908203 -181.01442383 281.98013672 -180.47387695 281.20849609 C-178.9387207 279.29052734 -178.9387207 279.29052734 -176.5012207 277.29052734 C-174.75729201 275.4754387 -174.75729201 275.4754387 -174.91918945 273.47802734 C-175.10762655 271.94868282 -175.32345167 270.42257626 -175.55981445 268.89990234 C-177.27637829 257.07861737 -175.32079405 245.99905852 -168.7512207 235.91552734 C-163.02318395 228.39213579 -155.81479659 223.44721972 -146.9387207 220.29052734 C-146.23875977 220.21447266 -145.53879883 220.13841797 -144.81762695 220.06005859 C-142.64085667 219.41703937 -142.64085667 219.41703937 -141.7355957 216.70068359 C-141.39012695 215.59595703 -141.0446582 214.49123047 -140.6887207 213.35302734 C-136.49898813 201.72620108 -128.89787255 193.59536803 -117.7355957 188.23193359 C-108.94267435 184.72483328 -100.01403179 184.5436627 -90.8137207 186.22802734 C-87.74716835 186.58259746 -86.44340939 186.61152419 -83.8137207 184.93896484 C-82.46914935 183.70469036 -81.15383723 182.43784361 -79.8684082 181.14208984 C-72.53803234 174.10849033 -62.11106635 172.79024649 -52.38012695 172.98193359 C-42.0819229 173.90538208 -34.58616179 177.52246347 -26.9387207 184.29052734 C-25.61400666 185.30191772 -24.28310969 186.30544053 -22.9387207 187.29052734 C-22.95966797 186.73703613 -22.98061523 186.18354492 -23.00219727 185.61328125 C-23.75053352 162.85533377 -23.75053352 162.85533377 -16.8918457 154.92333984 C-14.97093953 152.9547516 -13.01411323 151.09390241 -10.9387207 149.29052734 C-11.32543945 148.84322266 -11.7121582 148.39591797 -12.1105957 147.93505859 C-13.19244839 146.67914545 -14.27038243 145.41984918 -15.3449707 144.15771484 C-16.61415989 142.67077261 -17.8988409 141.19705712 -19.1887207 139.72802734 C-23.05426105 134.34388186 -23.25676851 128.8709032 -23.2746582 122.48974609 C-23.2846434 121.23602959 -23.2846434 121.23602959 -23.29483032 119.95698547 C-23.30491893 118.19457181 -23.30964852 116.43212024 -23.30932617 114.66967773 C-23.31369068 111.99641799 -23.35002502 109.32482274 -23.38793945 106.65185547 C-23.4619564 95.67543812 -23.10132988 87.0971332 -15.1887207 78.72802734 C-14.26833008 77.73609375 -14.26833008 77.73609375 -13.3293457 76.72412109 C-12.87043945 76.25103516 -12.4115332 75.77794922 -11.9387207 75.29052734 C-13.57371966 71.69196505 -15.67857029 69.27799734 -18.40356445 66.46240234 C-22.49838362 60.66922307 -23.40558731 54.65551895 -23.4074707 47.76708984 C-23.41508423 46.9808725 -23.42269775 46.19465515 -23.43054199 45.38461304 C-23.44127589 43.73251496 -23.44422364 42.0803494 -23.43969727 40.42822266 C-23.43872556 37.9280246 -23.48040603 35.43090828 -23.5246582 32.93115234 C-23.60280912 22.62320048 -22.77582169 15.00710124 -15.8762207 6.85302734 C-14.9171582 6.07958984 -14.9171582 6.07958984 -13.9387207 5.29052734 C-12.9796582 4.48615234 -12.9796582 4.48615234 -12.0012207 3.66552734 C-8.13051391 1.08505615 -4.63205178 0.04227838 0 0 Z " fill="#030302" transform="translate(220.938720703125,-0.29052734375)"/>
<path d="M0 0 C1.85543608 2.42280084 3.59534302 4.85621107 5.3125 7.375 C6.40134278 8.94600673 7.49122045 10.5162966 8.58203125 12.0859375 C9.14615723 12.90030273 9.7102832 13.71466797 10.29150391 14.55371094 C12.98027257 18.40359119 15.73971864 22.201234 18.5 26 C23.21134082 32.4998989 27.86298584 39.03865268 32.48046875 45.60546875 C36.11454566 50.7656672 39.79671401 55.8892894 43.5 61 C48.20670758 67.49548005 52.85597373 74.02815935 57.46948242 80.59008789 C61.75160272 86.67096719 66.10446011 92.69921451 70.4675293 98.72216797 C74.36741096 104.11024877 78.21886548 109.52766713 82 115 C88.44690639 109.68985746 94.29949437 103.82873116 100.18359375 97.9140625 C101.24954109 96.84624655 102.31571205 95.77865378 103.38209534 94.71127319 C106.16750139 91.92207682 108.94988929 89.129889 111.73162842 86.33703613 C114.57901064 83.47936425 117.42927986 80.62457498 120.27929688 77.76953125 C125.85567081 72.18248158 131.42885494 66.59226366 137 61 C137.97461221 64.50242712 137.9106978 67.02329 137.3984375 70.64453125 C137.24044678 71.78092041 137.08245605 72.91730957 136.91967773 74.08813477 C136.73993408 75.31717529 136.56019043 76.54621582 136.375 77.8125 C136.19332275 79.09116943 136.01164551 80.36983887 135.82446289 81.68725586 C134.12155389 93.57810285 132.20111977 105.43351495 130.24609375 117.28515625 C128.75583936 126.51165283 127.38640084 135.75732776 126 145 C103.89 145 81.78 145 59 145 C59 150.28 59 155.56 59 161 C75.17 161 91.34 161 108 161 C108 166.28 108 171.56 108 177 C-11.79 177 -131.58 177 -255 177 C-255 171.72 -255 166.44 -255 161 C-156.99 161 -58.98 161 42 161 C42 155.39 42 149.78 42 144 C-61.95 144 -165.9 144 -273 144 C-276.37078287 128.26967993 -276.37078287 128.26967993 -277.24609375 121.6015625 C-277.34189224 120.88793549 -277.43769073 120.17430847 -277.53639221 119.4390564 C-277.73778472 117.93768893 -277.9369903 116.43602654 -278.1340332 114.93408203 C-278.65810186 110.94643813 -279.20117931 106.96140426 -279.74609375 102.9765625 C-279.85335785 102.19154358 -279.96062195 101.40652466 -280.07113647 100.59771729 C-280.92958235 94.37712593 -281.92183214 88.18638066 -283 82 C-284.76191831 71.84162337 -286.21783986 61.64984989 -287.625 51.4375 C-287.72941406 50.67977295 -287.83382812 49.9220459 -287.94140625 49.14135742 C-289.3220318 39.09796191 -290.66665141 29.04977016 -292 19 C-287.92125583 20.88523987 -284.97736453 23.61783039 -281.75 26.6875 C-280.57747848 27.78585649 -279.40430481 28.88351724 -278.23046875 29.98046875 C-277.38814697 30.7701001 -277.38814697 30.7701001 -276.52880859 31.57568359 C-272.40792624 35.41490871 -268.11280591 39.05400911 -263.82421875 42.703125 C-256.98180944 48.53233688 -250.25882339 54.45532531 -243.65625 60.5546875 C-239.13701153 64.71504527 -234.49821391 68.72685535 -229.8203125 72.70703125 C-222.97880293 78.5344906 -216.25747892 84.45656731 -209.65625 90.5546875 C-205.13701153 94.71504527 -200.49821391 98.72685535 -195.8203125 102.70703125 C-188.97278294 108.5397594 -182.24770588 114.46606122 -175.64453125 120.57421875 C-172.49357478 123.4645348 -169.27219045 126.2483853 -166 129 C-160.74733027 127.43341429 -157.15436251 124.04549559 -153.0625 120.5625 C-151.53493232 119.28256632 -150.00627209 118.00393552 -148.4765625 116.7265625 C-147.71891602 116.09266602 -146.96126953 115.45876953 -146.18066406 114.80566406 C-143.14416206 112.29133705 -140.05001779 109.85664182 -136.9375 107.4375 C-131.90750362 103.51900908 -126.93945284 99.53202555 -122 95.5 C-116.47666343 90.99232786 -110.90815403 86.55157233 -105.2890625 82.1640625 C-100.81563292 78.66223753 -96.40132798 75.09188836 -92 71.5 C-86.47660315 66.99240027 -80.90815564 62.55157358 -75.2890625 58.1640625 C-70.81563292 54.66223753 -66.40132798 51.09188836 -62 47.5 C-56.47660315 42.99240027 -50.90815564 38.55157358 -45.2890625 34.1640625 C-40.81562945 30.66223482 -36.40145181 27.09174082 -32 23.5 C-24.73624698 17.57583042 -17.40279003 11.749375 -10 6 C-8.72382812 5.00226563 -8.72382812 5.00226563 -7.421875 3.984375 C-2.24591121 0 -2.24591121 0 0 0 Z " fill="#F4DFCC" transform="translate(330,318)"/>
<path d="M0 0 C0.90760071 -0.00952698 1.81520142 -0.01905396 2.75030518 -0.02886963 C4.6700869 -0.04102614 6.58998847 -0.04020227 8.50976562 -0.02734375 C11.43054827 -0.01571489 14.34547979 -0.06778094 17.265625 -0.125 C19.13541263 -0.12888763 21.00521263 -0.12900807 22.875 -0.125 C23.73986023 -0.14544373 24.60472046 -0.16588745 25.49578857 -0.18695068 C31.61026873 -0.07158875 34.64178257 1.66174901 38.98736572 5.93159485 C39.55356628 6.5265123 40.11976685 7.12142975 40.703125 7.734375 C41.76349933 8.76651125 42.8256009 9.79688111 43.890625 10.82421875 C44.83077738 11.77081053 45.7683441 12.71997839 46.703125 13.671875 C47.43595703 14.41147461 47.43595703 14.41147461 48.18359375 15.16601562 C49.35916025 16.35310729 50.53151326 17.54337998 51.703125 18.734375 C54.83718168 17.34840633 56.92146682 15.74366344 59.3046875 13.29296875 C59.95953125 12.62716797 60.614375 11.96136719 61.2890625 11.27539062 C61.96195312 10.58123047 62.63484375 9.88707031 63.328125 9.171875 C64.67224369 7.79338963 66.01849653 6.41698099 67.3671875 5.04296875 C68.25591553 4.12729126 68.25591553 4.12729126 69.16259766 3.19311523 C74.91593801 -2.25477836 88.87853595 -0.604645 96.41044617 -0.56863403 C104.89023436 -0.30960189 110.22158747 1.15036258 116.59765625 7.17456055 C119.89878248 10.85985745 122.96548747 14.61055332 125.703125 18.734375 C128.83718168 17.34840633 130.92146682 15.74366344 133.3046875 13.29296875 C133.95953125 12.62716797 134.614375 11.96136719 135.2890625 11.27539062 C135.96195313 10.58123047 136.63484375 9.88707031 137.328125 9.171875 C138.67224369 7.79338963 140.01849653 6.41698099 141.3671875 5.04296875 C141.95967285 4.43251709 142.5521582 3.82206543 143.16259766 3.19311523 C145.66130585 0.82706429 147.38609728 0.60238415 150.72216797 0.55737305 C151.54997772 0.54453781 152.37778748 0.53170258 153.23068237 0.51847839 C154.12651031 0.51109146 155.02233826 0.50370453 155.9453125 0.49609375 C156.8652298 0.488022 157.78514709 0.47995026 158.73294067 0.47163391 C160.68147902 0.45779143 162.63004163 0.44707001 164.57861328 0.43920898 C167.55938562 0.42198329 170.53905256 0.37809763 173.51953125 0.33398438 C175.41145017 0.32385865 177.30337852 0.31534217 179.1953125 0.30859375 C180.08709198 0.29108566 180.97887146 0.27357758 181.89767456 0.25553894 C185.66276183 0.26874459 187.99404915 0.29246831 191.23339844 2.3112793 C194.50979727 7.71298335 193.95828924 14.68148313 194.078125 20.859375 C194.09713867 21.62538025 194.11615234 22.3913855 194.13574219 23.18060303 C194.25693483 33.12075055 193.35972542 40.02144138 186.25634766 47.55419922 C182.57497409 50.87792547 178.81846484 53.96284442 174.703125 56.734375 C176.08909367 59.86843168 177.69383656 61.95271682 180.14453125 64.3359375 C180.81033203 64.99078125 181.47613281 65.645625 182.16210938 66.3203125 C182.85626953 66.99320312 183.55042969 67.66609375 184.265625 68.359375 C185.64411037 69.70349369 187.02051901 71.04974653 188.39453125 72.3984375 C189.00498291 72.99092285 189.61543457 73.5834082 190.24438477 74.19384766 C194.46488543 78.65097891 193.09086938 86.58248663 193.16308594 92.39941406 C193.18960869 94.0289462 193.23044187 95.6583132 193.28613281 97.28710938 C193.8016631 112.5542592 193.8016631 112.5542592 189.54296875 117.4765625 C188.29343873 118.59736652 187.01407978 119.68607901 185.703125 120.734375 C184.66153267 121.78546224 183.63076668 122.84743451 182.61328125 123.921875 C181.66668947 124.86202738 180.71752161 125.7995941 179.765625 126.734375 C179.27255859 127.22292969 178.77949219 127.71148437 178.27148438 128.21484375 C177.08439271 129.39041025 175.89412002 130.56276326 174.703125 131.734375 C176.07592603 135.02735424 177.35936054 136.40049883 180.3984375 138.21875 C186.21258506 142.30747607 191.66196086 146.62678794 193.15466309 153.94946289 C194.66765256 166.41470811 193.63025258 179.25381137 192.703125 191.734375 C188.19372393 190.2765639 184.08059131 188.52019262 179.828125 186.421875 C171.99793249 182.68225617 164.06832308 179.99955068 155.703125 177.734375 C154.02283203 177.25291016 154.02283203 177.25291016 152.30859375 176.76171875 C121.32571715 169.14878336 89.61531024 176.94120014 62.6015625 192.5234375 C55.51710372 196.8938501 48.21057657 201.76913704 42.66796875 208.03515625 C40.703125 209.734375 40.703125 209.734375 38.73046875 209.609375 C38.06144531 209.320625 37.39242187 209.031875 36.703125 208.734375 C35.98253906 208.425 35.26195312 208.115625 34.51953125 207.796875 C33.01905743 207.08954592 31.51905541 206.38121512 30.01953125 205.671875 C27.59180811 204.68932264 25.28032467 204.17072627 22.703125 203.734375 C22.56777344 203.14011719 22.43242187 202.54585937 22.29296875 201.93359375 C19.06363463 189.49969051 12.54255145 181.12964873 1.66796875 174.4921875 C-3.1067066 171.89127091 -7.96455593 170.67246817 -13.296875 169.734375 C-14.34903377 155.03755415 -14.34903377 155.03755415 -12.16015625 150.24609375 C-10.34174708 148.18992648 -8.39907156 146.5018935 -6.296875 144.734375 C-4.68148024 143.14824653 -3.0975726 141.53382056 -1.51269531 139.91723633 C0.86615752 137.49587889 3.2851561 135.11661037 5.703125 132.734375 C1.37197425 127.44074631 -3.3205779 122.6475106 -8.24511719 117.91113281 C-14.45512525 111.84288777 -13.64461673 105.47035202 -13.75683594 97.27563477 C-13.78337378 95.79841567 -13.82422487 94.32137942 -13.87988281 92.8449707 C-14.3944377 79.01243342 -14.3944377 79.01243342 -10.16796875 74.12109375 C-8.9057099 72.96084694 -7.61544404 71.83020608 -6.296875 70.734375 C-5.18442374 69.60834947 -4.08110098 68.47321291 -2.98828125 67.328125 C-1.94792945 66.29423501 -0.9049935 65.26293824 0.140625 64.234375 C0.68138672 63.698125 1.22214844 63.161875 1.77929688 62.609375 C3.08489117 61.31533464 4.39365496 60.02449326 5.703125 58.734375 C1.37197425 53.44074631 -3.3205779 48.6475106 -8.24511719 43.91113281 C-13.54324823 38.73394833 -13.47345696 34.97241337 -13.55961609 27.7996521 C-13.57342861 26.37915608 -13.58416341 24.95862727 -13.59204102 23.53808594 C-13.60356931 22.08909344 -13.62403501 20.64014369 -13.65356445 19.19140625 C-13.69631636 17.09345768 -13.71241781 14.99676798 -13.72265625 12.8984375 C-13.73723877 11.64498535 -13.75182129 10.3915332 -13.7668457 9.10009766 C-12.55441025 0.41717032 -7.55588283 -0.03329812 0 0 Z " fill="#FEE9A6" transform="translate(228.296875,16.265625)"/>
<path d="M0 0 C7.19938611 4.0958046 10.67770163 9.89955099 14.625 16.9375 C15.60339844 16.4321875 16.58179688 15.926875 17.58984375 15.40625 C31.99995894 8.17082238 31.99995894 8.17082238 41.14453125 10.609375 C48.44709415 13.1056034 53.22054115 17.1127329 57.3046875 23.609375 C58.98194302 27.83724986 58.96097414 31.32020559 58.8125 35.8125 C58.79896484 36.59625 58.78542969 37.38 58.77148438 38.1875 C58.73641789 40.10446782 58.68262072 42.02107751 58.625 43.9375 C59.759375 43.87949219 60.89375 43.82148438 62.0625 43.76171875 C76.82788716 43.22637319 76.82788716 43.22637319 82.0546875 47.38671875 C82.57289063 47.89847656 83.09109375 48.41023438 83.625 48.9375 C84.18445313 49.48019531 84.74390625 50.02289063 85.3203125 50.58203125 C90.38459646 56.00105974 93.28683422 61.89236035 93.0546875 69.3984375 C91.94334929 75.96543599 88.62026904 82.04493801 85.625 87.9375 C86.27726563 88.28941406 86.92953125 88.64132812 87.6015625 89.00390625 C93.23643027 92.18702477 98.16086176 95.33863451 101.625 100.9375 C101.955 102.2575 102.285 103.5775 102.625 104.9375 C89.755 104.9375 76.885 104.9375 63.625 104.9375 C63.625 102.2975 63.625 99.6575 63.625 96.9375 C58.015 96.9375 52.405 96.9375 46.625 96.9375 C46.625 99.5775 46.625 102.2175 46.625 104.9375 C8.675 104.9375 -29.275 104.9375 -68.375 104.9375 C-68.375 102.2975 -68.375 99.6575 -68.375 96.9375 C-73.985 96.9375 -79.595 96.9375 -85.375 96.9375 C-85.375 99.5775 -85.375 102.2175 -85.375 104.9375 C-98.245 104.9375 -111.115 104.9375 -124.375 104.9375 C-121.4084679 96.03790369 -115.48350846 92.16068149 -107.375 87.9375 C-107.79652344 87.11765625 -108.21804687 86.2978125 -108.65234375 85.453125 C-109.20019531 84.37546875 -109.74804688 83.2978125 -110.3125 82.1875 C-110.85777344 81.12015625 -111.40304688 80.0528125 -111.96484375 78.953125 C-114.78918415 72.91326132 -115.7178938 66.14863979 -113.65625 59.68359375 C-111.6023851 55.31913083 -109.09167687 52.06288737 -105.375 48.9375 C-104.88 48.47085938 -104.385 48.00421875 -103.875 47.5234375 C-97.11928526 42.12489759 -88.53280287 43.52033963 -80.375 43.9375 C-80.47941406 42.27074219 -80.47941406 42.27074219 -80.5859375 40.5703125 C-80.99335343 31.30498644 -80.94739713 24.17582283 -74.375 16.9375 C-69.23274326 12.00656888 -63.72413189 10.33485463 -56.6875 9.5 C-49.51296054 9.65444214 -42.64446637 13.74305761 -36.375 16.9375 C-36.02308594 16.28523438 -35.67117187 15.63296875 -35.30859375 14.9609375 C-32.02729035 9.15225943 -28.86798957 4.76365135 -23.375 0.9375 C-22.0446875 0.009375 -22.0446875 0.009375 -20.6875 -0.9375 C-13.69500709 -3.31230891 -6.72975994 -3.08023756 0 0 Z " fill="#EECEB3" transform="translate(176.375,192.0625)"/>
<path d="M0 0 C1.84174805 -0.00483398 1.84174805 -0.00483398 3.72070312 -0.00976562 C14.35655954 0.05256491 24.06802602 1.57215886 34.125 5 C34.89344238 5.26127686 35.66188477 5.52255371 36.45361328 5.79174805 C48.70338195 10.08538975 59.27687257 16.02457367 69.3125 24.3125 C70.24964844 25.08464844 71.18679688 25.85679687 72.15234375 26.65234375 C88.93561909 41.17587935 102.03280932 62.39529619 106.3125 84.3125 C106.3125 86.2925 106.3125 88.2725 106.3125 90.3125 C68.3625 90.3125 30.4125 90.3125 -8.6875 90.3125 C-10.6675 86.6825 -12.6475 83.0525 -14.6875 79.3125 C-19.1828878 74.01024773 -25.00271418 69.42746049 -31.6875 67.3125 C-34.32072697 67.09679949 -36.80827066 66.97868192 -39.4375 67 C-40.1476123 67.00491455 -40.85772461 67.0098291 -41.58935547 67.01489258 C-50.49260614 67.21321722 -56.26326379 69.2177118 -62.6875 75.3125 C-66.54835606 73.73955864 -69.12972339 71.60106993 -71.6875 68.3125 C-71.43230362 65.96933326 -71.08417857 63.63590304 -70.6875 61.3125 C-69.92912336 51.56313372 -70.1210746 43.15192588 -74.6875 34.3125 C-75.1825 32.8275 -75.1825 32.8275 -75.6875 31.3125 C-64.76394286 20.43522912 -52.09139044 11.93974337 -37.6875 6.3125 C-36.96820313 6.03019531 -36.24890625 5.74789062 -35.5078125 5.45703125 C-23.89835347 1.26827039 -12.28306505 -0.16273271 0 0 Z " fill="#D19F6B" transform="translate(354.6875,206.6875)"/>
<path d="M0 0 C43.23 0 86.46 0 131 0 C130.34 5.94 129.68 11.88 129 18 C128.80436714 20.56779739 128.80436714 20.56779739 128.6047821 23.18746948 C127.47932028 35.74819032 121.98688652 42.04302404 113.01953125 50.4453125 C111.72016885 51.71662108 110.42413492 52.99133954 109.13127136 54.26925659 C105.75556934 57.58828327 102.33733807 60.85972593 98.90740967 64.12255859 C95.40106202 67.47413782 91.93794943 70.86978698 88.47070312 74.26171875 C81.68820416 80.88440898 74.85984569 87.45752431 68 94 C65.15255223 91.18067013 62.44757446 88.47658735 60.125 85.20703125 C59.62154053 84.50376709 59.11808105 83.80050293 58.59936523 83.07592773 C58.07157471 82.32899658 57.54378418 81.58206543 57 80.8125 C55.84521018 79.1951996 54.69025769 77.57801535 53.53515625 75.9609375 C52.94879395 75.1369043 52.36243164 74.31287109 51.75830078 73.46386719 C49.53968679 70.35497349 47.29890233 67.26251246 45.05664062 64.1706543 C39.8217253 56.95054415 34.64909783 49.68936006 29.51928711 42.39428711 C25.88539047 37.23409425 22.20297465 32.11079901 18.5 27 C14.03477069 20.8320605 9.59194246 14.6490283 5.1875 8.4375 C4.66542969 7.70466797 4.14335937 6.97183594 3.60546875 6.21679688 C0 1.11721404 0 1.11721404 0 0 Z " fill="#EF9CCE" transform="translate(347,314)"/>
<path d="M0 0 C22.44 0 44.88 0 68 0 C68 0.33 68 0.66 68 1 C45.89 1 23.78 1 1 1 C1 6.28 1 11.56 1 17 C17.17 17 33.34 17 50 17 C50 22.28 50 27.56 50 33 C-69.79 33 -189.58 33 -313 33 C-313 27.72 -313 22.44 -313 17 C-214.99 17 -116.98 17 -16 17 C-16 14.36 -16 11.72 -16 9 C-10.72 9 -5.44 9 0 9 C0 6.03 0 3.06 0 0 Z " fill="#DDB08A" transform="translate(388,462)"/>
<path d="M0 0 C10.89 0 21.78 0 33 0 C33.20369057 10.29246721 33.36864581 20.58358675 33.46630955 30.87761688 C33.51319437 35.65810786 33.57673565 40.43714351 33.67895508 45.21679688 C33.77706632 49.83348279 33.8306231 54.44877324 33.85389519 59.06642151 C33.87046889 60.82399968 33.9028367 62.58150514 33.95157051 64.33848572 C34.31736023 78.07815526 34.31736023 78.07815526 31.08947754 82.78718567 C28.82270076 84.83170228 26.59954683 86.41116888 24 88 C22.53813021 89.13527465 21.0858409 90.28312131 19.6484375 91.44921875 C18.22676322 92.53233738 16.80229577 93.61179999 15.375 94.6875 C14.30765625 95.50057617 14.30765625 95.50057617 13.21875 96.33007812 C8.86339456 99.63647892 4.45400554 102.81856747 0 106 C0 71.02 0 36.04 0 0 Z " fill="#EF9CCE" transform="translate(174,314)"/>
<path d="M0 0 C10.89 0 21.78 0 33 0 C33 34.65 33 69.3 33 105 C24.0147429 98.26105717 24.0147429 98.26105717 21.2890625 95.6328125 C20.68320313 95.05660156 20.07734375 94.48039062 19.453125 93.88671875 C18.84984375 93.30535156 18.2465625 92.72398437 17.625 92.125 C16.41251231 90.95712766 15.19629869 89.79311239 13.9765625 88.6328125 C13.38939453 88.06168732 12.80222656 87.49056213 12.19726562 86.90213013 C10.04727763 84.92327607 10.04727763 84.92327607 7.45849609 83.51486206 C2.92463883 80.70415711 0.38552605 78.61962196 -0.87832642 73.31008911 C-1.28781152 68.66390502 -1.12576981 64.03035256 -0.9765625 59.375 C-0.95788847 57.66011698 -0.9436646 55.94518026 -0.9336853 54.23022461 C-0.89567807 49.7374285 -0.79761604 45.24791584 -0.68664551 40.75640869 C-0.5839586 36.16488055 -0.53859447 31.57281655 -0.48828125 26.98046875 C-0.38134259 17.9853114 -0.20560419 8.99344362 0 0 Z " fill="#EA86BE" transform="translate(124,314)"/>
<path d="M0 0 C10.89 0 21.78 0 33 0 C35.74288359 38.90233585 35.74288359 38.90233585 29.70703125 46.453125 C26.28368738 49.54980472 22.45197742 51.73965589 18.32275391 53.77001953 C14.51163962 55.78813954 11.35731076 58.55672836 8.0625 61.3125 C2.45399346 65.77300327 2.45399346 65.77300327 0 67 C0 44.89 0 22.78 0 0 Z " fill="#E985BD" transform="translate(223,314)"/>
<path d="M0 0 C10.89 0 21.78 0 33 0 C33 20.13 33 40.26 33 61 C29.0849705 59.04248525 26.37664017 56.7724125 23.25 53.8125 C22.17641393 52.81182079 21.10219492 51.81182021 20.02734375 50.8125 C19.50769043 50.3278125 18.98803711 49.843125 18.45263672 49.34375 C16.60214843 47.63197058 14.71499049 45.96617383 12.8125 44.3125 C11.95434692 43.53773315 11.95434692 43.53773315 11.07885742 42.74731445 C9.03099857 40.94785595 9.03099857 40.94785595 6.67871094 39.52416992 C2.44325292 36.5568313 0.28100134 34.44440909 -0.7277832 29.2590332 C-0.99108779 24.81828522 -0.78311035 20.44257616 -0.5625 16 C-0.376875 10.72 -0.19125 5.44 0 0 Z " fill="#ED9BCC" transform="translate(75,314)"/>
<path d="M0 0 C5.61 0 11.22 0 17 0 C17 5.61 17 11.22 17 17 C22.28 17 27.56 17 33 17 C33 22.28 33 27.56 33 33 C27.72 33 22.44 33 17 33 C17 38.61 17 44.22 17 50 C11.39 50 5.78 50 0 50 C0 44.39 0 38.78 0 33 C-5.28 33 -10.56 33 -16 33 C-16 27.72 -16 22.44 -16 17 C-10.72 17 -5.44 17 0 17 C0 11.39 0 5.78 0 0 Z " fill="#040203" transform="translate(413,330)"/>
<path d="M0 0 C0 5.61 0 11.22 0 17 C-1.65 17.66 -3.3 18.32 -5 19 C-7.35598629 20.93005229 -7.35598629 20.93005229 -7.3125 24.375 C-7.20424865 27.88563875 -7.20424865 27.88563875 -5.9375 30.4375 C-3.95986102 32.30372252 -3.95986102 32.30372252 -0.5625 32.5 C3.01647267 32.2945356 3.01647267 32.2945356 5.375 30.1875 C7.17066872 28.00778171 7.17066872 28.00778171 8 25 C13.61 25 19.22 25 25 25 C23.66395227 34.35233408 21.4579663 39.56118465 14.06640625 45.5234375 C8.06282781 49.81332909 2.2278708 51.15086633 -5 50 C-13.12826073 47.12911721 -18.57952523 42.83778847 -22.8125 35.3125 C-25.65189069 29.25633126 -26.19123793 23.97924159 -24.265625 17.546875 C-21.02405053 9.52264966 -15.45324498 5.05406631 -8 1 C-5 0 -5 0 0 0 Z " fill="#040302" transform="translate(405,231)"/>
<path d="M0 0 C10.89 0 21.78 0 33 0 C30.03733013 2.96266987 27.33798842 5.65565039 24.14453125 8.26953125 C23.44392578 8.84493652 22.74332031 9.4203418 22.02148438 10.01318359 C21.29251953 10.60695801 20.56355469 11.20073242 19.8125 11.8125 C19.06162109 12.42689941 18.31074219 13.04129883 17.53710938 13.67431641 C15.36072166 15.45282446 13.18089309 17.2270214 11 19 C10.4229834 19.47066895 9.8459668 19.94133789 9.25146484 20.42626953 C1.18589589 27 1.18589589 27 0 27 C0 18.09 0 9.18 0 0 Z " fill="#EF9CCE" transform="translate(273,314)"/>
<path d="M0 0 C5.61 0 11.22 0 17 0 C17 5.61 17 11.22 17 17 C11.39 17 5.78 17 0 17 C0 11.39 0 5.78 0 0 Z " fill="#0D0B0A" transform="translate(157,256)"/>
<path d="M0 0 C5.61 0 11.22 0 17 0 C17 5.61 17 11.22 17 17 C11.39 17 5.78 17 0 17 C0 11.39 0 5.78 0 0 Z " fill="#0D0B09" transform="translate(157,206)"/>
<path d="M0 0 C5.61 0 11.22 0 17 0 C17 5.61 17 11.22 17 17 C11.39 17 5.78 17 0 17 C0 11.39 0 5.78 0 0 Z " fill="#0F0E0A" transform="translate(372,165)"/>
<path d="M0 0 C5.61 0 11.22 0 17 0 C17 5.61 17 11.22 17 17 C11.39 17 5.78 17 0 17 C0 11.39 0 5.78 0 0 Z " fill="#100E0A" transform="translate(330,165)"/>
<path d="M0 0 C5.61 0 11.22 0 17 0 C17 5.61 17 11.22 17 17 C11.39 17 5.78 17 0 17 C0 11.39 0 5.78 0 0 Z " fill="#0E0D09" transform="translate(289,165)"/>
<path d="M0 0 C5.61 0 11.22 0 17 0 C17 5.61 17 11.22 17 17 C11.39 17 5.78 17 0 17 C0 11.39 0 5.78 0 0 Z " fill="#0E0D09" transform="translate(248,165)"/>
<path d="M0 0 C5.61 0 11.22 0 17 0 C17 5.61 17 11.22 17 17 C11.39 17 5.78 17 0 17 C0 11.39 0 5.78 0 0 Z " fill="#0F0E0A" transform="translate(372,107)"/>
<path d="M0 0 C5.61 0 11.22 0 17 0 C17 5.61 17 11.22 17 17 C11.39 17 5.78 17 0 17 C0 11.39 0 5.78 0 0 Z " fill="#100E0A" transform="translate(330,107)"/>
<path d="M0 0 C5.61 0 11.22 0 17 0 C17 5.61 17 11.22 17 17 C11.39 17 5.78 17 0 17 C0 11.39 0 5.78 0 0 Z " fill="#0E0D09" transform="translate(289,107)"/>
<path d="M0 0 C5.61 0 11.22 0 17 0 C17 5.61 17 11.22 17 17 C11.39 17 5.78 17 0 17 C0 11.39 0 5.78 0 0 Z " fill="#0E0D09" transform="translate(248,107)"/>
<path d="M0 0 C5.61 0 11.22 0 17 0 C17 5.61 17 11.22 17 17 C11.39 17 5.78 17 0 17 C0 11.39 0 5.78 0 0 Z " fill="#0F0D09" transform="translate(289,49)"/>
<path d="M0 0 C5.28 0 10.56 0 16 0 C16 5.28 16 10.56 16 16 C10.72 16 5.44 16 0 16 C0 10.72 0 5.44 0 0 Z " fill="#010101" transform="translate(100,248)"/>
<path d="M0 0 C5.28 0 10.56 0 16 0 C16 5.28 16 10.56 16 16 C10.72 16 5.44 16 0 16 C0 10.72 0 5.44 0 0 Z " fill="#000000" transform="translate(207,240)"/>
<path d="M0 0 C5.28 0 10.56 0 16 0 C16 5.28 16 10.56 16 16 C10.72 16 5.44 16 0 16 C0 10.72 0 5.44 0 0 Z " fill="#000000" transform="translate(372,50)"/>
<path d="M0 0 C5.28 0 10.56 0 16 0 C16 5.28 16 10.56 16 16 C10.72 16 5.44 16 0 16 C0 10.72 0 5.44 0 0 Z " fill="#000000" transform="translate(331,50)"/>
<path d="M0 0 C5.28 0 10.56 0 16 0 C16 5.28 16 10.56 16 16 C10.72 16 5.44 16 0 16 C0 10.72 0 5.44 0 0 Z " fill="#000000" transform="translate(248,50)"/>
<path d="M0 0 C6.6 0 13.2 0 20 0 C20 5.61 20 11.22 20 17 C16.90222752 15.45111376 15.26309897 14.52821016 12.87109375 12.28515625 C12.31099609 11.76373047 11.75089844 11.24230469 11.17382812 10.70507812 C10.60083984 10.16302734 10.02785156 9.62097656 9.4375 9.0625 C8.86064453 8.52431641 8.28378906 7.98613281 7.68945312 7.43164062 C5.08205903 4.99265952 2.52537657 2.52537657 0 0 Z " fill="#E784BC" transform="translate(38,314)"/>
<path d="M0 0 C4.35972324 2.21949547 6.02406226 4.03208301 9 8 C0.09 8 -8.82 8 -18 8 C-14.1036928 0.20738559 -8.18837238 -1.33144266 0 0 Z " fill="#AB7443" transform="translate(319,289)"/>
</svg>
