<?xml version="1.0" encoding="UTF-8"?>
<svg version="1.1" xmlns="http://www.w3.org/2000/svg" width="512" height="512">
<path d="M0 0 C6.04074765 4.72754164 7.22871207 10.31204535 8.5078125 17.57421875 C8.63815887 18.2980928 8.76850525 19.02196686 8.90280151 19.76777649 C9.17609099 21.29610735 9.44655438 22.82494594 9.71435547 24.35424805 C10.12096285 26.66456122 10.5423488 28.97184342 10.96484375 31.27929688 C12.71743613 41.05533172 14.01967494 50.27908468 12 60.125 C11.814375 61.05570313 11.62875 61.98640625 11.4375 62.9453125 C11.293125 63.62335938 11.14875 64.30140625 11 65 C12.12535156 65.23783203 12.12535156 65.23783203 13.2734375 65.48046875 C14.29695313 65.71378906 15.32046875 65.94710937 16.375 66.1875 C17.87160156 66.51814453 17.87160156 66.51814453 19.3984375 66.85546875 C28.1277052 69.6295202 35.32297529 74.37224503 42.5625 79.875 C43.34818359 80.46152344 44.13386719 81.04804687 44.94335938 81.65234375 C47.30582711 83.42176403 49.65346789 85.20952046 52 87 C53.23145752 87.92280762 53.23145752 87.92280762 54.48779297 88.86425781 C55.68299561 89.77062988 55.68299561 89.77062988 56.90234375 90.6953125 C57.61769287 91.23430176 58.33304199 91.77329102 59.07006836 92.32861328 C61.70016512 94.60636691 63.7167014 96.70154806 64.46875 100.1484375 C64.52704197 104.30174005 64.19228524 106.64195161 62.1875 110.375 C55.68034766 116.98370319 42.02456808 117.21172318 33.375 118.6875 C31.4878125 119.02491211 31.4878125 119.02491211 29.5625 119.36914062 C21.31380329 120.79147879 13.25532487 122.13040642 5 120 C4.690625 121.7015625 4.690625 121.7015625 4.375 123.4375 C2.89490985 129.45438821 -0.64509019 134.64509019 -5 139 C7.26555051 139.04637577 19.53108009 139.08189591 31.79670048 139.10362434 C37.49234684 139.1140538 43.18793313 139.12819781 48.88354492 139.15087891 C54.38189216 139.172637 59.88018168 139.18457494 65.37856865 139.18975449 C67.47448065 139.1934449 69.57038955 139.20065134 71.66627693 139.21146011 C74.60579335 139.22601433 77.54507239 139.22797628 80.48461914 139.22705078 C81.34777237 139.23424133 82.2109256 139.24143188 83.10023499 139.24884033 C89.02973819 139.22868852 94.80464986 139.16469952 99.23828125 134.79296875 C101.17531823 131.72205646 102.68793705 128.61894374 104.1875 125.3125 C110.18369278 112.77006545 119.69945178 103.66915594 132.703125 98.76171875 C144.5461493 94.83418518 158.70615635 95.9408342 170 101 C184.04091331 108.3957353 191.96737802 118.50298951 197.23828125 133.359375 C198.82112378 138.84656245 199.14733213 144.18136287 199.14044189 149.86305237 C199.14489858 151.02313754 199.14489858 151.02313754 199.1494453 152.20665878 C199.15809059 154.78825562 199.15963696 157.36980587 199.16113281 159.95141602 C199.16576373 161.80623472 199.17078875 163.66105248 199.17617798 165.51586914 C199.1892726 170.5466805 199.19574052 175.57747853 199.20018864 180.60830426 C199.20312247 183.7511947 199.20722774 186.89408152 199.21169281 190.03697014 C199.22535637 199.8704586 199.23503015 209.70393877 199.2388947 219.53743607 C199.24338095 230.88993005 199.26095992 242.24230397 199.2898953 253.59476143 C199.31149126 262.37196048 199.32159777 271.14912567 199.32293582 279.92635101 C199.3239848 285.1685183 199.32991321 290.41057254 199.34775543 295.65271187 C199.36420133 300.57998456 199.3664086 305.50705875 199.35761642 310.43434906 C199.35684434 312.2431612 199.3612113 314.05198386 199.37107468 315.86076927 C199.38374446 318.32872786 199.3779449 320.79597798 199.36749268 323.26393127 C199.37957728 324.33902973 199.37957728 324.33902973 199.39190602 325.43584734 C199.34903436 329.75965635 198.85722306 332.68060954 196 336 C194.35 336.33 192.7 336.66 191 337 C191 343.27 191 349.54 191 356 C192.65 356.33 194.3 356.66 196 357 C199.5463735 361.02332612 199.36532738 365.21022209 199.1875 370.3125 C199.17396484 371.05306641 199.16042969 371.79363281 199.14648438 372.55664062 C199.11135979 374.37141075 199.05755972 376.18580288 199 378 C199.90766113 377.98428955 200.81532227 377.9685791 201.75048828 377.95239258 C205.13873072 377.9010687 208.52655619 377.86355584 211.91503906 377.83520508 C213.37767075 377.82017804 214.84025782 377.79975045 216.30273438 377.77368164 C218.4128728 377.73702733 220.52241226 377.72021324 222.6328125 377.70703125 C223.90012207 377.6913208 225.16743164 377.67561035 226.47314453 377.65942383 C231.1190711 378.10806481 234.46059833 379.55096153 237.86328125 382.75390625 C238.34152344 383.35074219 238.81976563 383.94757813 239.3125 384.5625 C239.80363281 385.16191406 240.29476563 385.76132812 240.80078125 386.37890625 C244.41267392 391.26143217 243.84131595 397.22578837 243 403 C241.10987416 408.09628009 238.07048585 412.55058687 235 417 C234.47664063 417.76957031 233.95328125 418.53914063 233.4140625 419.33203125 C229.69483291 424.21223583 225.07358837 426.44435029 219.00466371 427.27216987 C216.90690977 427.38167905 214.82952821 427.39780135 212.72903442 427.37752342 C211.93204156 427.38188374 211.13504869 427.38624407 210.31390452 427.39073652 C207.65066362 427.40166077 204.98794391 427.39128407 202.32470703 427.38095093 C200.39309487 427.3844086 198.46148468 427.38917391 196.52987862 427.39513266 C191.22740802 427.40765712 185.92509939 427.40146563 180.62262821 427.39217401 C174.90203313 427.38538982 169.18146601 427.39586163 163.46087646 427.40411377 C152.25638796 427.41746 141.05195972 427.41456938 129.84746885 427.40587585 C120.74207788 427.39910322 111.6367038 427.39818076 102.53131104 427.4014473 C101.23583568 427.401907 99.94036032 427.40236669 98.60562813 427.40284032 C95.97397025 427.40379949 93.34231237 427.40477213 90.7106545 427.4057581 C66.73203528 427.41407064 42.75344863 427.40544732 18.77483466 427.38973031 C-3.11171637 427.37549364 -24.99821505 427.37676753 -46.88476562 427.39111328 C-71.47826326 427.40717947 -96.07172924 427.4134906 -120.6652317 427.40427649 C-123.28725814 427.40332083 -125.90928459 427.40237772 -128.53131104 427.4014473 C-129.82142904 427.40098447 -131.11154705 427.40052164 -132.44075954 427.40004479 C-141.53617676 427.39745353 -150.63157541 427.40182885 -159.72698975 427.40888596 C-170.80986914 427.41729603 -181.89268477 427.41503114 -192.97555685 427.39904372 C-198.6311834 427.39115443 -204.28670362 427.38808072 -209.94232941 427.39799118 C-215.11875302 427.4069248 -220.29497166 427.40202706 -225.47137666 427.38605852 C-227.34475128 427.38270509 -229.21814319 427.38441739 -231.09150672 427.39168589 C-233.63759558 427.40080736 -236.18298217 427.39145279 -238.72903442 427.37752342 C-239.4565652 427.38454692 -240.18409598 427.39157042 -240.93367314 427.39880675 C-246.56053806 427.33727084 -252.23786704 426.34557129 -256.64103138 422.60645517 C-258.31985272 420.85352859 -259.63377369 419.00895839 -261 417 C-261.70898438 415.97261719 -262.41796875 414.94523437 -263.1484375 413.88671875 C-268.20896979 406.10951448 -270.78740323 399.49724701 -269 390 C-266.7144807 385.07734305 -263.28305294 382.18950751 -259 379 C-256.26893489 378.08964496 -254.70106761 377.87784287 -251.89575195 377.88647461 C-251.07512772 377.88655014 -250.25450348 377.88662567 -249.40901184 377.88670349 C-248.0870002 377.89444542 -248.0870002 377.89444542 -246.73828125 377.90234375 C-245.37959175 377.90446617 -245.37959175 377.90446617 -243.99345398 377.90663147 C-241.09976909 377.91222999 -238.20616151 377.92478219 -235.3125 377.9375 C-233.35091258 377.94251519 -231.38932394 377.94707807 -229.42773438 377.95117188 C-224.61845979 377.96219893 -219.809243 377.97946253 -215 378 C-215.01379552 353.16567579 -215.05597194 328.33154084 -215.13209057 303.4973259 C-215.16676819 291.96678291 -215.19209973 280.43635982 -215.19555664 268.90576172 C-215.19859268 258.85762534 -215.21903457 248.80970234 -215.26052457 238.76164842 C-215.28188898 233.43945934 -215.2944375 228.11757387 -215.28615379 222.79534149 C-215.27863546 217.78835336 -215.29434593 212.78198152 -215.32806015 207.77510643 C-215.33632024 205.93526463 -215.33601196 204.09536185 -215.32659721 202.25552559 C-215.31502907 199.7469903 -215.33400861 197.24049298 -215.36076355 194.7321167 C-215.35009029 194.00059694 -215.33941703 193.26907718 -215.32842034 192.51539016 C-215.32014032 190.22122036 -215.32014032 190.22122036 -216 187 C-218.3297211 184.62561061 -218.3297211 184.62561061 -221 183 C-225.25859467 176.91629333 -225.2082721 171.38034715 -225.25 164.1875 C-225.270625 163.31029297 -225.29125 162.43308594 -225.3125 161.52929688 C-225.35114782 155.07027928 -224.71833599 150.03920862 -220.24609375 145.0390625 C-219.64925781 144.57242188 -219.05242187 144.10578125 -218.4375 143.625 C-217.83808594 143.14289063 -217.23867187 142.66078125 -216.62109375 142.1640625 C-213.78646346 140.12859304 -211.96632984 139.86125095 -208.52197266 139.80712891 C-207.59405914 139.79106598 -206.66614563 139.77500305 -205.71011353 139.75845337 C-201.46950983 139.71405604 -197.22906284 139.67295007 -192.98828125 139.64990234 C-190.74956885 139.63332651 -188.51090972 139.60601536 -186.27246094 139.56787109 C-183.04854824 139.51320433 -179.82587576 139.49124491 -176.6015625 139.4765625 C-175.60041412 139.45389313 -174.59926575 139.43122375 -173.56777954 139.40786743 C-166.63141523 139.42902833 -166.63141523 139.42902833 -163.33740234 142.40771484 C-162 145 -162 145 -162 147 C-155.73 147 -149.46 147 -143 147 C-142.67 145.68 -142.34 144.36 -142 143 C-140.67680359 141.27702332 -140.67680359 141.27702332 -139 140 C-136.06602317 139.66868119 -133.33290519 139.51129894 -130.39453125 139.48828125 C-129.55532639 139.47033005 -128.71612152 139.45237885 -127.85148621 139.43388367 C-125.17187521 139.37971437 -122.49244298 139.34586427 -119.8125 139.3125 C-117.99541779 139.27933271 -116.1783592 139.2448436 -114.36132812 139.20898438 C-109.90768095 139.12398428 -105.45408741 139.05720498 -101 139 C-101.27714844 138.45730469 -101.55429688 137.91460937 -101.83984375 137.35546875 C-102.20207031 136.64003906 -102.56429687 135.92460937 -102.9375 135.1875 C-103.29714844 134.47980469 -103.65679687 133.77210938 -104.02734375 133.04296875 C-108.72839795 123.16886695 -106.67625402 109.73302172 -103.26000977 99.69726562 C-95.58417273 78.88178882 -80.70692871 60.29956915 -60.984375 49.94140625 C-54.9827382 47.30623379 -48.46506375 47.28580312 -42 47 C-41.77828125 46.25878906 -41.5565625 45.51757812 -41.328125 44.75390625 C-38.01170861 34.93683309 -32.74726802 27.39338957 -26.59179688 19.15625 C-25.01801547 17.02440378 -23.49562045 14.86401118 -21.984375 12.6875 C-21.03142643 11.33320917 -20.07830873 9.97903733 -19.125 8.625 C-18.69751465 8.00061035 -18.2700293 7.3762207 -17.82958984 6.73291016 C-13.15198478 0.20892977 -7.69911516 -2.60341214 0 0 Z " fill="#030201" transform="translate(269,43)"/>
<path d="M0 0 C6.04074765 4.72754164 7.22871207 10.31204535 8.5078125 17.57421875 C8.63815887 18.2980928 8.76850525 19.02196686 8.90280151 19.76777649 C9.17609099 21.29610735 9.44655438 22.82494594 9.71435547 24.35424805 C10.12096285 26.66456122 10.5423488 28.97184342 10.96484375 31.27929688 C12.71743613 41.05533172 14.01967494 50.27908468 12 60.125 C11.814375 61.05570313 11.62875 61.98640625 11.4375 62.9453125 C11.293125 63.62335938 11.14875 64.30140625 11 65 C11.75023437 65.15855469 12.50046875 65.31710938 13.2734375 65.48046875 C14.29695312 65.71378906 15.32046875 65.94710937 16.375 66.1875 C17.87160156 66.51814453 17.87160156 66.51814453 19.3984375 66.85546875 C28.1277052 69.6295202 35.32297529 74.37224503 42.5625 79.875 C43.34818359 80.46152344 44.13386719 81.04804687 44.94335938 81.65234375 C47.30582711 83.42176403 49.65346789 85.20952046 52 87 C53.23145752 87.92280762 53.23145752 87.92280762 54.48779297 88.86425781 C55.68299561 89.77062988 55.68299561 89.77062988 56.90234375 90.6953125 C57.61769287 91.23430176 58.33304199 91.77329102 59.07006836 92.32861328 C61.70016512 94.60636691 63.7167014 96.70154806 64.46875 100.1484375 C64.52704197 104.30174005 64.19228524 106.64195161 62.1875 110.375 C55.68034766 116.98370319 42.02456808 117.21172318 33.375 118.6875 C31.4878125 119.02491211 31.4878125 119.02491211 29.5625 119.36914062 C21.31380329 120.79147879 13.25532487 122.13040642 5 120 C4.79375 121.134375 4.5875 122.26875 4.375 123.4375 C2.89490985 129.45438821 -0.64509019 134.64509019 -5 139 C7.26555051 139.04637577 19.53108009 139.08189591 31.79670048 139.10362434 C37.49234684 139.1140538 43.18793313 139.12819781 48.88354492 139.15087891 C54.38189216 139.172637 59.88018168 139.18457494 65.37856865 139.18975449 C67.47448065 139.1934449 69.57038955 139.20065134 71.66627693 139.21146011 C74.60579335 139.22601433 77.54507239 139.22797628 80.48461914 139.22705078 C81.34777237 139.23424133 82.2109256 139.24143188 83.10023499 139.24884033 C89.02973819 139.22868852 94.80464986 139.16469952 99.23828125 134.79296875 C101.17531823 131.72205646 102.68793705 128.61894374 104.1875 125.3125 C110.18369278 112.77006545 119.69945178 103.66915594 132.703125 98.76171875 C144.5461493 94.83418518 158.70615635 95.9408342 170 101 C184.04091331 108.3957353 191.96737802 118.50298951 197.23828125 133.359375 C198.82112378 138.84656245 199.14733213 144.18136287 199.14044189 149.86305237 C199.14489858 151.02313754 199.14489858 151.02313754 199.1494453 152.20665878 C199.15809059 154.78825562 199.15963696 157.36980587 199.16113281 159.95141602 C199.16576373 161.80623472 199.17078875 163.66105248 199.17617798 165.51586914 C199.1892726 170.5466805 199.19574052 175.57747853 199.20018864 180.60830426 C199.20312247 183.7511947 199.20722774 186.89408152 199.21169281 190.03697014 C199.22535637 199.8704586 199.23503015 209.70393877 199.2388947 219.53743607 C199.24338095 230.88993005 199.26095992 242.24230397 199.2898953 253.59476143 C199.31149126 262.37196048 199.32159777 271.14912567 199.32293582 279.92635101 C199.3239848 285.1685183 199.32991321 290.41057254 199.34775543 295.65271187 C199.36420133 300.57998456 199.3664086 305.50705875 199.35761642 310.43434906 C199.35684434 312.2431612 199.3612113 314.05198386 199.37107468 315.86076927 C199.38374446 318.32872786 199.3779449 320.79597798 199.36749268 323.26393127 C199.37957728 324.33902973 199.37957728 324.33902973 199.39190602 325.43584734 C199.34903436 329.75965635 198.85722306 332.68060954 196 336 C194.35 336.33 192.7 336.66 191 337 C191 343.6 191 350.2 191 357 C189.35 357.66 187.7 358.32 186 359 C182.55539791 363.6233752 182.55539791 363.6233752 183 378 C167.49 378 151.98 378 136 378 C136.00112793 372.51922852 136.00225586 367.03845703 136.00341797 361.39160156 C136.00279019 343.27466623 135.96962104 325.15789814 135.9197216 307.0410347 C135.89026335 296.05774228 135.87188816 285.07464288 135.87988281 274.09130859 C135.88682504 264.51477922 135.87268827 254.93854873 135.83356392 245.36209273 C135.81358773 240.29445225 135.80394711 235.2272807 135.81957626 230.15961456 C135.83397612 225.38232602 135.82003162 220.60593045 135.78504753 215.82875633 C135.77712818 214.08257572 135.77925625 212.33631361 135.79260826 210.59016609 C135.86522813 200.20879295 135.28906604 191.79202498 129 183 C122.83159894 176.93001822 115.75578845 173.63602181 107.09008789 173.59594727 C106.43867325 173.58908401 105.78725861 173.58222076 105.11610413 173.57514954 C102.98472659 173.55700187 100.85409368 173.56070133 98.72265625 173.56640625 C97.22724675 173.5618386 95.73183934 173.5565313 94.23643494 173.55052185 C91.11041711 173.54161438 87.98465508 173.54398663 84.85864258 173.55395508 C80.86964872 173.56544136 76.88154059 173.54522741 72.892663 173.51603794 C69.80666069 173.49761602 66.7208683 173.49798023 63.63482475 173.50367546 C62.16493932 173.50382795 60.695039 173.49784406 59.22520638 173.48538399 C46.89902231 173.32083869 46.89902231 173.32083869 36.49427795 179.41188049 C31.30218922 185.19679205 30.73673238 190.59360684 30.44140625 198.0625 C29.80032123 202.32883573 28.01598392 204.98401608 25 208 C20.39499693 208.68994819 16.30182948 208.92080622 12.4375 206.1875 C9.94473285 202.39415868 9.89533165 199.23992483 9.75 194.8125 C9.20514264 187.16747023 6.99254327 182.84291611 1.5 177.625 C-2.69370334 174.89909283 -6.2160788 173.75235526 -11.21411133 173.70947266 C-12.22899124 173.69671295 -13.24387115 173.68395325 -14.289505 173.67080688 C-15.37603867 173.66858124 -16.46257233 173.66635559 -17.58203125 173.6640625 C-18.71017746 173.6574057 -19.83832367 173.6507489 -21.00065613 173.64389038 C-23.38526787 173.63377549 -25.76990785 173.629073 -28.15454102 173.62939453 C-31.78905305 173.62502817 -35.42234385 173.58871291 -39.05664062 173.55078125 C-41.37760003 173.54491141 -43.69856518 173.54094314 -46.01953125 173.5390625 C-47.09999222 173.52469147 -48.18045319 173.51032043 -49.2936554 173.49551392 C-56.36744403 173.53800665 -62.23546075 174.41314359 -67.51911926 179.44741821 C-71.18629062 183.6465954 -73.25141356 187.12210218 -73.24482727 192.69932556 C-73.24876495 193.63998367 -73.25270264 194.58064178 -73.25675964 195.54980469 C-73.25106461 196.57485107 -73.24536957 197.59989746 -73.23950195 198.65600586 C-73.24151611 199.7409584 -73.24353027 200.82591095 -73.24560547 201.94374084 C-73.24915133 204.29983706 -73.24838345 206.65594279 -73.24382973 209.01203728 C-73.23824387 212.73979061 -73.24738313 216.46723195 -73.2610321 220.19496155 C-73.29819459 230.79365981 -73.31695967 241.39221539 -73.30541992 251.9909668 C-73.29957471 258.47314829 -73.3178013 264.95489105 -73.35130882 271.43698311 C-73.35927317 273.90853207 -73.35797196 276.38012872 -73.34728432 278.8516674 C-73.33298686 282.30646487 -73.34919899 285.75987889 -73.37231445 289.21459961 C-73.36054672 290.23762177 -73.34877899 291.26064392 -73.33665466 292.31466675 C-73.39858995 297.02821354 -73.45468615 299.2718481 -76.3478241 303.13502502 C-79 305 -79 305 -82.0625 305.625 C-85 305 -85 305 -87.1544342 303.13105774 C-89.85556099 298.54851511 -89.53281208 294.50627241 -89.46655273 289.27807617 C-89.46885895 288.19779648 -89.47116516 287.11751678 -89.47354126 286.00450134 C-89.47616975 283.66097062 -89.46972965 281.31741616 -89.45528984 278.97392845 C-89.43341079 275.26192705 -89.43711886 271.55074099 -89.44776917 267.83869934 C-89.46944452 258.61801582 -89.45259629 249.39746909 -89.42626953 240.17681885 C-89.40485562 232.38727216 -89.40294253 224.59824807 -89.42918587 216.8087101 C-89.43353253 213.15690025 -89.40890616 209.50600085 -89.38365173 205.85429382 C-89.38892422 203.60622759 -89.39564785 201.35816413 -89.40405273 199.11010742 C-89.38914291 198.09944214 -89.37423309 197.08877686 -89.35887146 196.04748535 C-89.42524666 189.44157127 -90.75968306 185.12385205 -95 180 C-101.19589448 174.11390024 -106.83157544 173.70212587 -115.00683594 173.69702148 C-116.01057755 173.68858215 -117.01431915 173.68014282 -118.04847717 173.67144775 C-121.36044798 173.64569193 -124.67232979 173.63353704 -127.984375 173.62109375 C-130.28412585 173.60492099 -132.58386983 173.58774123 -134.88360596 173.56959534 C-140.9330122 173.52392116 -146.98242754 173.48910309 -153.03192139 173.45739746 C-162.72971259 173.40549931 -172.42740324 173.34056344 -182.12506866 173.26918221 C-185.52036131 173.24627265 -188.91564097 173.23005388 -192.31097412 173.21446228 C-194.37756496 173.20106276 -196.44415442 173.18744859 -198.51074219 173.17358398 C-199.46241776 173.17097061 -200.41409332 173.16835724 -201.39460754 173.16566467 C-207.88636018 173.11363982 -207.88636018 173.11363982 -209 172 C-209.09981214 169.3226862 -209.13879875 166.67695825 -209.125 164 C-209.12886719 163.24976563 -209.13273437 162.49953125 -209.13671875 161.7265625 C-209.12661053 156.12661053 -209.12661053 156.12661053 -208 155 C-205.09139564 154.8767492 -202.20288271 154.81384693 -199.29296875 154.7890625 C-197.49152745 154.76098916 -195.69009527 154.73232467 -193.88867188 154.703125 C-191.0380076 154.66187152 -188.18751295 154.62500012 -185.33666992 154.59863281 C-182.59257387 154.57102765 -179.84926275 154.52514913 -177.10546875 154.4765625 C-175.82871529 154.4716832 -175.82871529 154.4716832 -174.52616882 154.46670532 C-171.05066116 154.39449052 -168.61999238 154.31654817 -165.4934082 152.72021484 C-163.64158578 150.84941918 -163.64158578 150.84941918 -163 147 C-156.4 147 -149.8 147 -143 147 C-142.67 145.68 -142.34 144.36 -142 143 C-140.67680359 141.27702332 -140.67680359 141.27702332 -139 140 C-136.06602317 139.66868119 -133.33290519 139.51129894 -130.39453125 139.48828125 C-129.55532639 139.47033005 -128.71612152 139.45237885 -127.85148621 139.43388367 C-125.17187521 139.37971437 -122.49244298 139.34586427 -119.8125 139.3125 C-117.99541779 139.27933271 -116.1783592 139.2448436 -114.36132812 139.20898438 C-109.90768095 139.12398428 -105.45408741 139.05720498 -101 139 C-101.27714844 138.45730469 -101.55429688 137.91460937 -101.83984375 137.35546875 C-102.38318359 136.28232422 -102.38318359 136.28232422 -102.9375 135.1875 C-103.29714844 134.47980469 -103.65679687 133.77210938 -104.02734375 133.04296875 C-108.72839795 123.16886695 -106.67625402 109.73302172 -103.26000977 99.69726562 C-95.58417273 78.88178882 -80.70692871 60.29956915 -60.984375 49.94140625 C-54.9827382 47.30623379 -48.46506375 47.28580312 -42 47 C-41.77828125 46.25878906 -41.5565625 45.51757812 -41.328125 44.75390625 C-38.01170861 34.93683309 -32.74726802 27.39338957 -26.59179688 19.15625 C-25.01801547 17.02440378 -23.49562045 14.86401118 -21.984375 12.6875 C-21.03142643 11.33320917 -20.07830873 9.97903733 -19.125 8.625 C-18.69751465 8.00061035 -18.2700293 7.3762207 -17.82958984 6.73291016 C-13.15198478 0.20892977 -7.69911516 -2.60341214 0 0 Z " fill="#DF3B3D" transform="translate(269,43)"/>
<path d="M0 0 C6.04074765 4.72754164 7.22871207 10.31204535 8.5078125 17.57421875 C8.63815887 18.2980928 8.76850525 19.02196686 8.90280151 19.76777649 C9.17609099 21.29610735 9.44655438 22.82494594 9.71435547 24.35424805 C10.12096285 26.66456122 10.5423488 28.97184342 10.96484375 31.27929688 C12.71743613 41.05533172 14.01967494 50.27908468 12 60.125 C11.814375 61.05570313 11.62875 61.98640625 11.4375 62.9453125 C11.293125 63.62335938 11.14875 64.30140625 11 65 C11.75023437 65.15855469 12.50046875 65.31710938 13.2734375 65.48046875 C14.29695312 65.71378906 15.32046875 65.94710937 16.375 66.1875 C17.87160156 66.51814453 17.87160156 66.51814453 19.3984375 66.85546875 C28.1277052 69.6295202 35.32297529 74.37224503 42.5625 79.875 C43.34818359 80.46152344 44.13386719 81.04804687 44.94335938 81.65234375 C47.30582711 83.42176403 49.65346789 85.20952046 52 87 C52.82097168 87.61520508 53.64194336 88.23041016 54.48779297 88.86425781 C55.28459473 89.46850586 56.08139648 90.07275391 56.90234375 90.6953125 C57.61769287 91.23430176 58.33304199 91.77329102 59.07006836 92.32861328 C61.70016512 94.60636691 63.7167014 96.70154806 64.46875 100.1484375 C64.52704197 104.30174005 64.19228524 106.64195161 62.1875 110.375 C55.68034766 116.98370319 42.02456808 117.21172318 33.375 118.6875 C31.4878125 119.02491211 31.4878125 119.02491211 29.5625 119.36914062 C21.31380329 120.79147879 13.25532487 122.13040642 5 120 C4.79375 121.134375 4.5875 122.26875 4.375 123.4375 C2.89490985 129.45438821 -0.64509019 134.64509019 -5 139 C7.26555051 139.04637577 19.53108009 139.08189591 31.79670048 139.10362434 C37.49234684 139.1140538 43.18793313 139.12819781 48.88354492 139.15087891 C54.38189216 139.172637 59.88018168 139.18457494 65.37856865 139.18975449 C67.47448065 139.1934449 69.57038955 139.20065134 71.66627693 139.21146011 C74.60579335 139.22601433 77.54507239 139.22797628 80.48461914 139.22705078 C81.34777237 139.23424133 82.2109256 139.24143188 83.10023499 139.24884033 C89.02973819 139.22868852 94.80464986 139.16469952 99.23828125 134.79296875 C101.17531823 131.72205646 102.68793705 128.61894374 104.1875 125.3125 C110.18369278 112.77006545 119.69945178 103.66915594 132.703125 98.76171875 C144.5461493 94.83418518 158.70615635 95.9408342 170 101 C184.04091331 108.3957353 191.96737802 118.50298951 197.23828125 133.359375 C198.82112378 138.84656245 199.14733213 144.18136287 199.14044189 149.86305237 C199.14489858 151.02313754 199.14489858 151.02313754 199.1494453 152.20665878 C199.15809059 154.78825562 199.15963696 157.36980587 199.16113281 159.95141602 C199.16576373 161.80623472 199.17078875 163.66105248 199.17617798 165.51586914 C199.1892726 170.5466805 199.19574052 175.57747853 199.20018864 180.60830426 C199.20312247 183.7511947 199.20722774 186.89408152 199.21169281 190.03697014 C199.22535637 199.8704586 199.23503015 209.70393877 199.2388947 219.53743607 C199.24338095 230.88993005 199.26095992 242.24230397 199.2898953 253.59476143 C199.31149126 262.37196048 199.32159777 271.14912567 199.32293582 279.92635101 C199.3239848 285.1685183 199.32991321 290.41057254 199.34775543 295.65271187 C199.36420133 300.57998456 199.3664086 305.50705875 199.35761642 310.43434906 C199.35684434 312.2431612 199.3612113 314.05198386 199.37107468 315.86076927 C199.38374446 318.32872786 199.3779449 320.79597798 199.36749268 323.26393127 C199.37957728 324.33902973 199.37957728 324.33902973 199.39190602 325.43584734 C199.3488365 329.77961175 198.69516372 332.55932836 196 336 C193.02706425 337.17352727 191.46130053 337.12081681 188.375 336.3125 C185.58208218 334.76904541 184.58770217 333.77144855 183 331 C182.71435657 328.3502278 182.60068254 325.93826359 182.62818909 323.29048157 C182.62436452 322.50937191 182.62053996 321.72826225 182.6165995 320.9234826 C182.60730622 318.30338074 182.61931113 315.68380618 182.63110352 313.0637207 C182.62863583 311.18612956 182.62479774 309.30853979 182.61968994 307.43095398 C182.61134571 303.38543936 182.61216497 299.34006547 182.61987495 295.29454994 C182.63145007 288.89415085 182.61930096 282.49393305 182.60325623 276.09355164 C182.5670448 260.19195657 182.56082968 244.29036545 182.56335449 228.38873291 C182.56506644 216.03857304 182.55791493 203.68856104 182.52337593 191.3384425 C182.50659729 184.9800085 182.5083642 178.62193519 182.52419865 172.26350272 C182.53000639 168.30022588 182.51923559 164.33711904 182.50395203 160.37387276 C182.50023378 158.54094778 182.5033107 156.70799397 182.51382256 154.87509537 C182.75625713 141.88069811 182.75625713 141.88069811 178 130 C177.54238281 129.20207031 177.08476562 128.40414062 176.61328125 127.58203125 C171.02919186 119.98565739 163.32003134 114.80147571 154 113 C143.92182818 111.89385919 135.71556335 113.74349754 127.75 120.125 C122.07575267 125.47957142 118.82978507 132.20739099 115.5625 139.1875 C111.71755234 146.91378284 106.87739836 151.37140932 98.69747734 154.18492126 C90.11203736 156.07751151 81.17421136 155.55236993 72.42602539 155.51757812 C70.13535112 155.52300378 67.84468033 155.53012893 65.55401611 155.53881836 C59.35822785 155.55699443 53.16270712 155.55000959 46.96691442 155.53730202 C40.47854104 155.52715337 33.9901901 155.53657208 27.5018158 155.54284668 C15.91850583 155.55057894 4.33531778 155.53818194 -7.24797297 155.51780933 C-17.75009205 155.49991073 -28.25203443 155.50307 -38.75415039 155.52148438 C-50.96491644 155.54288479 -63.17555677 155.5508638 -75.38634115 155.53903532 C-81.84515317 155.53279457 -88.3038434 155.53198164 -94.76264763 155.54518127 C-100.82764224 155.55671189 -106.89230182 155.54876489 -112.95726013 155.52560425 C-115.18575038 155.52030391 -117.41426871 155.52185343 -119.64274788 155.53065491 C-122.67802305 155.54154043 -125.71221561 155.52793149 -128.74742126 155.50793457 C-129.63485753 155.51685746 -130.5222938 155.52578034 -131.43662208 155.53497362 C-137.3631887 155.4589167 -137.3631887 155.4589167 -140.51578617 153.18700409 C-142.62832007 150.07416402 -143 147.74200229 -143 144 C-141.54394531 141.81933594 -141.54394531 141.81933594 -139 140 C-135.98272374 139.58220029 -133.3161328 139.39520157 -130.296875 139.390625 C-129.45908508 139.37408875 -128.62129517 139.35755249 -127.75811768 139.34051514 C-125.08867063 139.29202501 -122.41979326 139.27066255 -119.75 139.25 C-117.93747132 139.22184107 -116.1249692 139.19191375 -114.3125 139.16015625 C-109.87504691 139.08626606 -105.43791023 139.03669786 -101 139 C-101.27714844 138.45730469 -101.55429688 137.91460937 -101.83984375 137.35546875 C-102.38318359 136.28232422 -102.38318359 136.28232422 -102.9375 135.1875 C-103.29714844 134.47980469 -103.65679687 133.77210938 -104.02734375 133.04296875 C-108.72839795 123.16886695 -106.67625402 109.73302172 -103.26000977 99.69726562 C-95.58417273 78.88178882 -80.70692871 60.29956915 -60.984375 49.94140625 C-54.9827382 47.30623379 -48.46506375 47.28580312 -42 47 C-41.77828125 46.25878906 -41.5565625 45.51757812 -41.328125 44.75390625 C-38.01170861 34.93683309 -32.74726802 27.39338957 -26.59179688 19.15625 C-25.01801547 17.02440378 -23.49562045 14.86401118 -21.984375 12.6875 C-21.03142643 11.33320917 -20.07830873 9.97903733 -19.125 8.625 C-18.69751465 8.00061035 -18.2700293 7.3762207 -17.82958984 6.73291016 C-13.15198478 0.20892977 -7.69911516 -2.60341214 0 0 Z " fill="#010000" transform="translate(269,43)"/>
<path d="M0 0 C12.18238086 5.7170349 26.34021288 5.17371994 38.8671875 0.7265625 C41.07962597 -0.32736273 43.2877589 -1.39035966 45.4921875 -2.4609375 C55.17257255 -6.69943392 65.46899219 -7.36641972 75.51171875 -3.76171875 C78.39716601 -2.61328664 81.19945843 -1.34026663 84 0 C96.18238086 5.7170349 110.34021288 5.17371994 122.8671875 0.7265625 C125.07962597 -0.32736273 127.2877589 -1.39035966 129.4921875 -2.4609375 C139.17257255 -6.69943392 149.46899219 -7.36641972 159.51171875 -3.76171875 C162.39716601 -2.61328664 165.19945843 -1.34026663 168 0 C180.02508427 5.64616472 193.02531291 4.90504146 205.48828125 0.94921875 C209.91048042 -0.65095274 214.24093242 -2.41258631 218.5390625 -4.3203125 C220.8671875 -5.2734375 220.8671875 -5.2734375 222.8671875 -5.2734375 C222.8671875 6.9365625 222.8671875 19.1465625 222.8671875 31.7265625 C218.724123 31.73536186 218.724123 31.73536186 214.49736023 31.74433899 C188.52423559 31.80092187 162.5511948 31.87395809 136.57815838 31.96227741 C123.22374217 32.00728974 109.86935923 32.04669179 96.51489258 32.07299805 C84.87845627 32.09593416 73.242105 32.12928282 61.60573608 32.17526406 C55.44136997 32.19925556 49.27708839 32.21794543 43.11267662 32.22417641 C37.3154288 32.23020051 31.51839743 32.25010296 25.72122955 32.28083801 C23.58909162 32.28966131 21.45692544 32.29333202 19.32476997 32.29157066 C16.42224844 32.28992939 13.52039584 32.30651868 10.6179657 32.32783508 C9.76680465 32.32298751 8.9156436 32.31813993 8.03868979 32.31314546 C3.82321148 32.25071503 3.82321148 32.25071503 0.1518386 34.03186005 C-1.9763193 36.83931058 -1.49539918 39.34242015 -1.1328125 42.7265625 C-0.01674861 44.52655162 -0.01674861 44.52655162 1.8671875 45.7265625 C4.40620945 46.1784461 4.40620945 46.1784461 7.32200718 46.10573673 C9.03249724 46.11807145 9.03249724 46.11807145 10.77754265 46.13065535 C12.03588903 46.12444353 13.29423541 46.11823172 14.5907135 46.11183167 C15.93656663 46.11583653 17.28241638 46.12116157 18.6282596 46.12769741 C22.33460245 46.14189254 26.04072691 46.13740327 29.74708092 46.12998426 C33.74099131 46.12525717 37.73485051 46.137796 41.72874451 46.14834595 C48.65154943 46.16434308 55.5742958 46.16959479 62.497118 46.16781807 C72.50859584 46.16543829 82.51997981 46.1814014 92.53143316 46.20227062 C108.77623831 46.23581901 125.02103508 46.25746665 141.26586914 46.27026367 C142.23858843 46.27103316 143.21130772 46.27180265 144.21350335 46.27259546 C148.15516961 46.27569795 152.09683589 46.27878077 156.03850219 46.2818355 C166.8919625 46.29036741 177.74541992 46.30126734 188.59887695 46.31323242 C190.05663933 46.31483445 190.05663933 46.31483445 191.54385144 46.31646884 C207.72800685 46.33453958 223.91214224 46.3605191 240.09627813 46.39136356 C250.08703746 46.40995284 260.07775188 46.42083548 270.06852876 46.42188548 C276.90905921 46.4229861 283.74955884 46.43090641 290.59007628 46.44426913 C294.54166037 46.45171308 298.49317706 46.45576104 302.444767 46.45115089 C306.05744485 46.4469763 309.66999021 46.45183247 313.28264873 46.46405875 C315.21862182 46.46816659 317.15460797 46.46232714 319.09057575 46.45621306 C320.22829471 46.46182845 321.36601367 46.46744385 322.53820896 46.47322941 C323.52613392 46.47388151 324.51405889 46.47453362 325.53192097 46.47520548 C327.8671875 46.7265625 327.8671875 46.7265625 329.8671875 48.7265625 C329.24159272 55.04359538 326.59302115 60.51113923 321.8671875 64.7265625 C315.73852322 66.42076349 309.70745806 66.21784889 303.38807678 66.13011169 C301.46554191 66.14350356 299.54303545 66.16168737 297.62058634 66.18424946 C292.33800643 66.23215751 287.05758481 66.21133218 281.77496731 66.1791929 C276.07805934 66.15638824 270.38155174 66.19679209 264.68473816 66.22904968 C253.52467046 66.2818615 242.3654004 66.27495009 231.2052737 66.24653565 C222.13602479 66.22444016 213.06700293 66.22341224 203.99773979 66.23747444 C202.70767967 66.23944873 201.41761954 66.24142301 200.08846669 66.24345713 C197.46784121 66.24754635 194.84721579 66.2516784 192.22659045 66.25585283 C168.34427406 66.29136424 144.46241568 66.26402047 120.58015622 66.2109015 C98.78078118 66.16283755 76.98219637 66.17458325 55.18286133 66.23608398 C30.6899543 66.30499797 6.19756958 66.33462829 -18.29543978 66.30299813 C-20.90680946 66.29974569 -23.51817921 66.29655048 -26.12954903 66.29341316 C-27.4144338 66.29185684 -28.69931857 66.29030053 -30.02313925 66.28869705 C-39.0820929 66.28048481 -48.14073291 66.30050822 -57.19962883 66.33154106 C-68.23895488 66.36866898 -79.27727508 66.36331557 -90.31651657 66.3032242 C-95.95040731 66.27365254 -101.58258157 66.26337692 -107.21643448 66.30506897 C-112.37364619 66.34269514 -117.52758823 66.32499158 -122.68453748 66.26300932 C-124.55051638 66.25029085 -126.41676553 66.25784454 -128.28255009 66.28762727 C-142.12412487 66.49207093 -142.12412487 66.49207093 -147.08724701 62.12980282 C-152.32494442 54.78265174 -152.32494442 54.78265174 -151.86872619 49.90045732 C-151.1328125 47.7265625 -151.1328125 47.7265625 -150.1328125 46.7265625 C-148.54552039 46.62497068 -146.9537232 46.59303763 -145.3631897 46.58853149 C-143.8152195 46.58035149 -143.8152195 46.58035149 -142.23597717 46.57200623 C-141.09414474 46.5709639 -139.95231232 46.56992157 -138.77587891 46.56884766 C-137.58086258 46.56376694 -136.38584625 46.55868622 -135.15461731 46.55345154 C-132.54962294 46.54272024 -129.94468256 46.53372755 -127.33967972 46.52733231 C-123.22212685 46.51667374 -119.10465678 46.49643482 -114.9871521 46.47421265 C-103.27662954 46.41221587 -91.56611133 46.35825994 -79.85546875 46.32519531 C-73.39205303 46.30686562 -66.92877539 46.27795025 -60.46546113 46.2371906 C-57.04311748 46.21609158 -53.62094806 46.20065931 -50.19853592 46.19838333 C-46.38166156 46.19349981 -42.5653051 46.17040705 -38.74853516 46.14306641 C-37.61075119 46.14607254 -36.47296722 46.14907867 -35.30070496 46.1521759 C-34.26308517 46.14108292 -33.22546539 46.12998993 -32.15640259 46.11856079 C-31.25342249 46.11525064 -30.35044239 46.1119405 -29.42009926 46.10853004 C-26.64813787 45.64562382 -25.75756374 44.99523272 -24.1328125 42.7265625 C-23.54947917 39.2265625 -23.54947917 39.2265625 -24.1328125 35.7265625 C-26.45530883 33.26684711 -27.89721873 32.75649337 -31.27130127 32.32783508 C-32.5059613 32.31673203 -33.74062134 32.30562897 -35.01269531 32.29418945 C-35.69602936 32.2839978 -36.3793634 32.27380615 -37.08340454 32.26330566 C-39.33433246 32.23319413 -41.5848347 32.22391297 -43.8359375 32.21484375 C-45.39965222 32.19799562 -46.96335342 32.17984519 -48.52703857 32.16044617 C-52.63691988 32.11295428 -56.74674631 32.08313985 -60.85681152 32.05700684 C-65.79124432 32.02195336 -70.72546639 31.96494297 -75.659729 31.91161346 C-83.15073015 31.83310895 -90.64145564 31.78249694 -98.1328125 31.7265625 C-98.1328125 19.8465625 -98.1328125 7.9665625 -98.1328125 -4.2734375 C-90.2625669 -3.1491167 -90.2625669 -3.1491167 -87.30859375 -1.8984375 C-86.67244141 -1.63546875 -86.03628906 -1.3725 -85.38085938 -1.1015625 C-84.42276367 -0.69164062 -84.42276367 -0.69164062 -83.4453125 -0.2734375 C-69.79179172 5.46401821 -56.94713455 5.24876276 -43.1328125 -0.2734375 C-42.19566406 -0.72847656 -41.25851563 -1.18351562 -40.29296875 -1.65234375 C-26.39577216 -8.34358655 -13.52426075 -6.46907394 0 0 Z " fill="#FCD8B3" transform="translate(167.1328125,389.2734375)"/>
<path d="M0 0 C31.68 0 63.36 0 96 0 C96.495 8.91 96.495 8.91 97 18 C99.4704809 25.98155367 103.19460899 30.14274048 110.3125 34.375 C117.27143992 35.99335812 123.54293908 35.54475352 129.95703125 32.33203125 C135.73706853 28.56340273 137.82984321 24.51047036 140 18 C140.33 12.06 140.66 6.12 141 0 C200.4 0 259.8 0 321 0 C321 14.19 321 28.38 321 43 C314.565 44.485 314.565 44.485 308 46 C303.68293931 47.88081577 303.68293931 47.88081577 299.4375 49.9140625 C289.89962888 54.16330636 280.19983894 52.71646387 270.78125 49.18530273 C267.22765449 47.78223047 263.69160698 46.34258596 260.17553711 44.84790039 C250.71690301 41.16146383 236.45775881 41.2023229 227 44.6875 C225.3188258 45.42615764 223.65204553 46.19830969 222 47 C211.48503156 51.75260418 201.86680343 54.67089687 190.6171875 50.4921875 C187.70443584 49.32180692 184.85515112 48.04672961 182.0078125 46.7265625 C170.82741389 41.70477785 156.9703869 40.98126427 145.12890625 43.98046875 C142.00905686 45.1976969 139.0102454 46.53432189 136 48 C126.30279292 52.32985138 116.87132298 54.31183554 106.609375 50.49609375 C103.70012615 49.32315151 100.85333246 48.04522644 98.0078125 46.7265625 C86.82741389 41.70477785 72.9703869 40.98126427 61.12890625 43.98046875 C58.00919529 45.19764289 55.01088579 46.53602936 52 48 C42.10477374 52.36226172 32.80826802 53.9952757 22.375 50.25 C20.57893387 49.51059759 18.78726551 48.76042845 17 48 C15.06662487 47.28048422 13.12911009 46.57198824 11.1875 45.875 C10.33542969 45.56304687 9.48335937 45.25109375 8.60546875 44.9296875 C5.751544 43.91134554 2.874668 42.95822267 0 42 C0 28.14 0 14.28 0 0 Z " fill="#FDE6C6" transform="translate(69,327)"/>
<path d="M0 0 C1.42662964 -0.01418472 1.42662964 -0.01418472 2.88208008 -0.02865601 C3.90712646 -0.02258331 4.93217285 -0.01651062 5.98828125 -0.01025391 C7.04233154 -0.01312408 8.09638184 -0.01599426 9.18237305 -0.01895142 C11.41162656 -0.02099354 13.64089792 -0.01545339 15.87011719 -0.00292969 C19.28751593 0.01312129 22.7037319 -0.00277399 26.12109375 -0.02197266 C28.28515887 -0.01999025 30.44922325 -0.01614663 32.61328125 -0.01025391 C33.63832764 -0.0163266 34.66337402 -0.02239929 35.71948242 -0.02865601 C36.67056885 -0.01919952 37.62165527 -0.00974304 38.6015625 0 C39.43856689 0.00238678 40.27557129 0.00477356 41.13793945 0.00723267 C43.80250586 0.47655458 44.6910027 1.24598102 46.30078125 3.38818359 C46.671875 5.95458984 46.671875 5.95458984 46.73828125 8.95068359 C47.27942437 17.2482115 48.99191815 23.69023461 55.30078125 29.38818359 C62.4616855 35.2064183 69.36168955 35.18631678 78.30078125 34.38818359 C81.40303443 33.37995131 83.51687066 32.15489609 86.30078125 30.38818359 C87.29078125 30.05818359 88.28078125 29.72818359 89.30078125 29.38818359 C90.42020707 27.55113481 90.42020707 27.55113481 91.30078125 25.38818359 C91.81318359 24.44652344 91.81318359 24.44652344 92.3359375 23.48583984 C95.24786182 17.71735098 95.80040282 12.64231018 95.9296875 6.20849609 C96.30078125 3.38818359 96.30078125 3.38818359 97.44818115 1.73716736 C100.09457329 -0.18982165 102.05861585 0.00024388 105.31347656 -0.01586914 C106.5519635 -0.02855331 107.79045044 -0.04123749 109.06646729 -0.05430603 C110.4206153 -0.05225382 111.77476217 -0.04926516 113.12890625 -0.04541016 C114.5203273 -0.04997258 115.9117461 -0.05527834 117.30316162 -0.06129456 C120.22189473 -0.07023315 123.14035439 -0.0677967 126.05908203 -0.05786133 C129.78599993 -0.04640699 133.51196534 -0.06652332 137.23875809 -0.09577847 C140.11456231 -0.11420044 142.99014121 -0.11383559 145.86598969 -0.10814095 C147.23901449 -0.10798826 148.61205508 -0.11398856 149.9850235 -0.12643242 C163.64981042 -0.23277566 163.64981042 -0.23277566 169.30078125 4.38818359 C173.19564115 8.74184521 172.6897369 13.52878257 172.59375 19.06396484 C172.58950516 19.98912399 172.58526031 20.91428314 172.58088684 21.86747742 C172.56414118 24.81217989 172.52649647 27.75618919 172.48828125 30.70068359 C172.4732291 32.70132473 172.45954162 34.70197663 172.44726562 36.70263672 C172.41425108 41.59808467 172.362497 46.49301674 172.30078125 51.38818359 C171.13506592 51.40276611 169.96935059 51.41734863 168.76831055 51.43237305 C164.44622003 51.49031476 160.12465278 51.56754753 155.80297852 51.65063477 C153.93197111 51.68390361 152.06086287 51.71192944 150.18969727 51.73461914 C147.50102742 51.76812948 144.81328327 51.82044225 142.125 51.87646484 C140.8686097 51.88604973 140.8686097 51.88604973 139.58683777 51.89582825 C135.3100276 51.88605287 135.3100276 51.88605287 131.58308411 53.69645691 C129.43291976 56.53314279 129.87428996 58.9762533 130.30078125 62.38818359 C132.79862463 65.22847324 134.44503962 65.40400485 138.24316406 65.82055664 C139.82976117 65.86185304 141.41682111 65.88739078 143.00390625 65.89990234 C144.26059113 65.92682915 144.26059113 65.92682915 145.54266357 65.95429993 C148.21198532 66.00837415 150.88112856 66.04228891 153.55078125 66.07568359 C155.36330607 66.10885927 157.17580735 66.14334917 158.98828125 66.17919922 C163.42565239 66.26409883 167.86297086 66.33092357 172.30078125 66.38818359 C172.30078125 71.33818359 172.30078125 76.28818359 172.30078125 81.38818359 C112.90078125 81.38818359 53.50078125 81.38818359 -7.69921875 81.38818359 C-7.69921875 76.43818359 -7.69921875 71.48818359 -7.69921875 66.38818359 C-6.31748474 66.38231735 -4.93575073 66.37645111 -3.512146 66.3704071 C9.49579623 66.31324733 22.5035702 66.24052102 35.51134109 66.15246868 C42.1991196 66.10770032 48.88682939 66.06808943 55.57470703 66.04174805 C62.02628904 66.01577976 68.47763392 65.97542307 74.92906952 65.92499733 C77.39305425 65.90828479 79.85708005 65.89679793 82.32111359 65.89056969 C85.76673877 65.88097647 89.21175121 65.85297364 92.65722656 65.82055664 C93.68077744 65.82199173 94.70432831 65.82342682 95.75889587 65.8249054 C96.69836563 65.81236725 97.63783539 65.7998291 98.60577393 65.78691101 C99.42063892 65.78230205 100.23550392 65.77769308 101.0750618 65.77294445 C103.84754905 65.29366366 105.24575054 64.27858486 107.30078125 62.38818359 C108.02586554 59.50497442 107.63716201 57.41561047 107.30078125 54.38818359 C104.12372218 52.27014422 103.32811602 52.13416793 99.68806458 52.10971069 C98.74155533 52.09854721 97.79504608 52.08738373 96.81985474 52.07588196 C95.78335785 52.07372177 94.74686096 52.07156158 93.67895508 52.06933594 C92.5861171 52.05929031 91.49327911 52.04924469 90.36732483 52.03889465 C86.74749284 52.00795172 83.12773518 51.99099652 79.5078125 51.97412109 C77.00102595 51.9554184 74.49424576 51.93584568 71.98747253 51.91543579 C66.05897208 51.86927239 60.13045729 51.83189823 54.20187348 51.79876292 C46.79011403 51.75680102 39.37846727 51.70122726 31.96679688 51.64599609 C18.74485289 51.54911754 5.5228598 51.46437267 -7.69921875 51.38818359 C-7.77518063 44.60725059 -7.82778125 37.82642699 -7.86401367 31.04516602 C-7.87911551 28.73750712 -7.89959844 26.42987699 -7.92553711 24.12231445 C-7.9618585 20.8085216 -7.97893111 17.49510767 -7.9921875 14.18115234 C-8.00767136 13.14669479 -8.02315521 12.11223724 -8.03910828 11.0464325 C-8.03933487 10.08566299 -8.03956146 9.12489349 -8.03979492 8.13500977 C-8.04645676 7.28895676 -8.05311859 6.44290375 -8.0599823 5.57121277 C-7.27913683 0.84621094 -4.36139743 0.01243685 0 0 Z " fill="#FCE5C6" transform="translate(217.69921875,230.61181640625)"/>
<path d="M0 0 C3.10367497 -0.14515677 6.20648027 -0.23400853 9.3125 -0.3125 C10.19357422 -0.35439453 11.07464844 -0.39628906 11.98242188 -0.43945312 C14.41801685 -0.48575721 16.61106652 -0.48309672 19 0 C20.98046875 2.45703125 20.98046875 2.45703125 22 5 C24.58374263 6.29187131 26.43709688 6.1284695 29.33177185 6.13307858 C30.47010751 6.13731962 31.60844316 6.14156067 32.78127384 6.14593023 C34.04253306 6.1455441 35.30379229 6.14515797 36.60327148 6.14476013 C37.9482582 6.14789226 39.29324395 6.15146669 40.63822842 6.15544754 C44.34676305 6.16517012 48.05528227 6.1687 51.7638278 6.17129052 C55.75842244 6.175177 59.75300338 6.18481454 63.74758911 6.19384766 C70.67312339 6.20880181 77.59865658 6.22033922 84.52420044 6.22979546 C94.53964935 6.24364942 104.55507288 6.26483388 114.57050359 6.28822399 C130.82141047 6.32616167 147.07232194 6.36112391 163.32324219 6.39282227 C164.29652698 6.39472276 165.26981177 6.39662325 166.27259004 6.39858133 C180.0908597 6.42542428 193.90913291 6.44929462 207.72740996 6.47196633 C208.70069475 6.47356363 209.67397954 6.47516094 210.67675781 6.47680664 C211.64886212 6.47840011 212.62096642 6.47999357 213.62252843 6.48163532 C229.81117779 6.50837051 245.99980007 6.54275548 262.1884203 6.58346039 C272.18294386 6.6082812 282.17743823 6.62658221 292.17198777 6.636616 C299.01580539 6.64398795 305.85958386 6.65848509 312.70337558 6.67868023 C316.65697256 6.69010969 320.61050626 6.69820334 324.56412125 6.69767189 C328.17869858 6.69724641 331.79313325 6.70587964 335.40767395 6.72192169 C337.34468161 6.72809047 339.28171285 6.72434527 341.21872616 6.72032636 C342.35706182 6.72717516 343.49539747 6.73402395 344.66822815 6.74108028 C345.65669518 6.74281653 346.64516222 6.74455278 347.6635828 6.74634165 C350 7 350 7 352 9 C351.37440522 15.31703288 348.72583365 20.78457673 344 25 C337.87133572 26.69420099 331.84027056 26.49128639 325.52088928 26.40354919 C323.59835441 26.41694106 321.67584795 26.43512487 319.75339884 26.45768696 C314.47081893 26.50559501 309.19039731 26.48476968 303.90777981 26.4526304 C298.21087184 26.42982574 292.51436424 26.47022959 286.81755066 26.50248718 C275.65748296 26.555299 264.4982129 26.54838759 253.3380862 26.51997315 C244.26883729 26.49787766 235.19981543 26.49684974 226.13055229 26.51091194 C224.84049217 26.51288623 223.55043204 26.51486051 222.22127919 26.51689463 C219.60065371 26.52098385 216.98002829 26.5251159 214.35940295 26.52929033 C190.47708656 26.56480174 166.59522818 26.53745797 142.71296872 26.484339 C120.91359368 26.43627505 99.11500887 26.44802075 77.31567383 26.50952148 C52.8227668 26.57843547 28.33038208 26.60806579 3.83737272 26.57643563 C1.22600304 26.57318319 -1.38536671 26.56998798 -3.99673653 26.56685066 C-5.2816213 26.56529434 -6.56650607 26.56373803 -7.89032675 26.56213455 C-16.9492804 26.55392231 -26.00792041 26.57394572 -35.06681633 26.60497856 C-46.10614238 26.64210648 -57.14446258 26.63675307 -68.18370407 26.5766617 C-73.81759481 26.54709004 -79.44976907 26.53681442 -85.08362198 26.57850647 C-90.24083369 26.61613264 -95.39477573 26.59842908 -100.55172498 26.53644682 C-102.41770388 26.52372835 -104.28395303 26.53128204 -106.14973759 26.56106477 C-119.99131237 26.76550843 -119.99131237 26.76550843 -124.95443451 22.40324032 C-130.19213192 15.05608924 -130.19213192 15.05608924 -129.73591369 10.17389482 C-129 8 -129 8 -128 7 C-126.41488003 6.90058593 -124.82533917 6.87091456 -123.23710632 6.86869812 C-122.20657135 6.86468994 -121.17603638 6.86068176 -120.11427307 6.85655212 C-118.403881 6.8573452 -118.403881 6.8573452 -116.65893555 6.8581543 C-115.46552551 6.85467987 -114.27211548 6.85120544 -113.0425415 6.84762573 C-110.44084328 6.84025235 -107.83913869 6.83491545 -105.23743248 6.83133507 C-101.12380632 6.82543574 -97.01026719 6.80890523 -92.89668274 6.78999329 C-91.48952394 6.78365548 -90.08236509 6.77732986 -88.67520618 6.77101612 C-87.6179565 6.7662674 -87.6179565 6.7662674 -86.53934824 6.76142275 C-76.95894627 6.71931583 -67.37858401 6.68637332 -57.7980957 6.67407227 C-51.34086894 6.66569605 -44.88385662 6.64322019 -38.42673713 6.6047166 C-35.00822264 6.58493713 -31.59002886 6.57255735 -28.17145348 6.57755089 C-24.35705493 6.5798936 -20.54352902 6.55781345 -16.72924805 6.5300293 C-15.59505936 6.53663071 -14.46087067 6.54323212 -13.29231262 6.55003357 C-11.73382095 6.53133209 -11.73382095 6.53133209 -10.1438446 6.51225281 C-9.2417863 6.50986445 -8.33972799 6.5074761 -7.41033459 6.50501537 C-4.23635894 5.84000127 -3.04421118 4.45748295 -1 2 C-0.67 1.34 -0.34 0.68 0 0 Z " fill="#E1E7EB" transform="translate(145,429)"/>
<path d="M0 0 C23.08930457 -0.12032643 23.08930457 -0.12032643 32.91210938 -0.14648438 C39.62141005 -0.16443559 46.33058821 -0.18569864 53.03979492 -0.22631836 C58.44735751 -0.25885356 63.85478875 -0.27684073 69.26244164 -0.28463173 C71.32817847 -0.29018574 73.39390791 -0.30103101 75.459589 -0.31719017 C78.34732365 -0.33888675 81.23451175 -0.34197018 84.12231445 -0.34057617 C84.98114731 -0.351362 85.83998016 -0.36214783 86.72483826 -0.3732605 C92.65784352 -0.34215648 92.65784352 -0.34215648 96 3 C96 18.84 96 34.68 96 51 C64.32 51 32.64 51 0 51 C0 34.17 0 17.34 0 0 Z " fill="#FEE7C7" transform="translate(69,231)"/>
<path d="M0 0 C14.53140482 6.39381812 24.9819964 28.18196262 31 42 C32.97533774 47.92601323 32.98070838 54.5928067 30.625 60.375 C18.44868435 72.55131565 -1.04139038 76.09555536 -17.625 76.3125 C-27.2523903 76.27011193 -36.54678644 74.5773751 -44 68 C-47.90027544 63.16321774 -48.64296148 57.99790606 -48.375 51.91015625 C-46.48658883 37.25529877 -37.60121033 23.84761492 -28 13 C-27.43667969 12.35417969 -26.87335938 11.70835938 -26.29296875 11.04296875 C-18.99154141 3.19436185 -11.00652225 -1.95671507 0 0 Z " fill="#DF3B3D" transform="translate(226,107)"/>
<path d="M0 0 C0.495 0.99 0.495 0.99 1 2 C7.27 2 13.54 2 20 2 C20.33 1.34 20.66 0.68 21 0 C21.4021875 1.670625 21.4021875 1.670625 21.8125 3.375 C22.65809019 7.21840951 22.65809019 7.21840951 26 9 C28.89659349 9.24121349 31.7053355 9.37299442 34.60546875 9.4140625 C35.44467361 9.43342865 36.28387848 9.4527948 37.14851379 9.4727478 C39.82807258 9.53251213 42.5076744 9.57891612 45.1875 9.625 C47.00457599 9.6631827 48.82163394 9.70223461 50.63867188 9.7421875 C55.09230132 9.83821103 59.54601551 9.92225359 64 10 C64 14.95 64 19.9 64 25 C4.6 25 -54.8 25 -116 25 C-116 20.05 -116 15.1 -116 10 C-114.61826599 9.99413376 -113.23653198 9.98826752 -111.81292725 9.98222351 C-98.80498502 9.92506373 -85.79721105 9.85233743 -72.78944016 9.76428509 C-66.10166165 9.71951673 -59.41395186 9.67990583 -52.72607422 9.65356445 C-46.27449221 9.62759617 -39.82314733 9.58723948 -33.37171173 9.53681374 C-30.907727 9.5201012 -28.4437012 9.50861434 -25.97966766 9.50238609 C-22.53404248 9.49279288 -19.08903004 9.46479005 -15.64355469 9.43237305 C-14.62000381 9.43380814 -13.59645294 9.43524323 -12.54188538 9.4367218 C-11.60241562 9.42418365 -10.66294586 9.41164551 -9.69500732 9.39872742 C-8.47270983 9.39181397 -8.47270983 9.39181397 -7.22571945 9.38476086 C-4.4220245 8.90008518 -3.04708453 7.95469244 -1 6 C-0.19053578 2.89802603 -0.19053578 2.89802603 0 0 Z " fill="#F8BA52" transform="translate(326,287)"/>
<path d="M0 0 C0 3.84003269 -1.61078337 6.33100978 -3.375 9.625 C-8.77869624 20.17276755 -11.40198179 31.67973534 -8.34765625 43.53125 C-4.95913334 51.09361872 1.49407302 55.12627941 8.88671875 58.23828125 C13.20875421 59.79613137 16.89997491 60.11863648 21.515625 60.09765625 C23.39121094 60.09282227 23.39121094 60.09282227 25.3046875 60.08789062 C26.60664063 60.07951172 27.90859375 60.07113281 29.25 60.0625 C30.56742188 60.05798828 31.88484375 60.05347656 33.2421875 60.04882812 C36.49483741 60.03704316 39.74739584 60.02059011 43 60 C32.47048629 70.87024778 14.40833011 73.97306169 -0.24047852 74.24145508 C-10.73778995 74.28347794 -20.76871871 73.26401091 -29 66 C-32.90027544 61.16321774 -33.64296148 55.99790606 -33.375 49.91015625 C-31.12256847 32.43034909 -18.97971943 15.4064201 -6 4 C-4.04576884 2.54619006 -2.08266602 1.26991831 0 0 Z " fill="#C1232F" transform="translate(211,109)"/>
<path d="M0 0 C5.90036675 1.20415648 10.02265821 3.39258426 14 8 C16.75916168 12.6128568 17.42712804 16.39404786 17.36076355 21.66891479 C17.36332682 22.42133143 17.3658901 23.17374806 17.36853105 23.94896519 C17.37345585 26.45952456 17.35699799 28.96947689 17.34057617 31.47998047 C17.33972962 33.28379807 17.3402056 35.08761671 17.34190369 36.89143372 C17.34276395 41.78150912 17.32513305 46.67136348 17.30418181 51.56138754 C17.28542028 56.67430594 17.28366498 61.78722949 17.28010559 66.900177 C17.2707836 76.57920988 17.24616768 86.25814104 17.21605712 95.93712914 C17.18251795 106.9576005 17.16602831 117.97807672 17.15097082 128.99858642 C17.1196183 151.66578066 17.06685475 174.33288463 17 197 C14.03 197 11.06 197 8 197 C8.00037703 196.0679285 8.00075405 195.13585701 8.0011425 194.17554092 C8.00895734 171.46393209 7.98227616 148.75256163 7.9197216 126.0410347 C7.89026335 115.05774228 7.87188816 104.07464288 7.87988281 93.09130859 C7.88682504 83.51477922 7.87268827 73.93854873 7.83356392 64.36209273 C7.81358773 59.29445225 7.80394711 54.2272807 7.81957626 49.15961456 C7.83397612 44.38232602 7.82003162 39.60593045 7.78504753 34.82875633 C7.77712818 33.08257572 7.77925625 31.33631361 7.79260826 29.59016609 C7.86731277 18.91078323 6.88899047 11.29065179 1 2 C0.67 1.34 0.34 0.68 0 0 Z " fill="#C3232F" transform="translate(397,224)"/>
<path d="M0 0 C31.68 0 63.36 0 96 0 C96 4.95 96 9.9 96 15 C64.32 15 32.64 15 0 15 C0 10.05 0 5.1 0 0 Z " fill="#FFBF54" transform="translate(69,297)"/>
<path d="M0 0 C23.08930457 -0.12032643 23.08930457 -0.12032643 32.91210938 -0.14648438 C39.62141005 -0.16443559 46.33058821 -0.18569864 53.03979492 -0.22631836 C58.44735751 -0.25885356 63.85478875 -0.27684073 69.26244164 -0.28463173 C71.32817847 -0.29018574 73.39390791 -0.30103101 75.459589 -0.31719017 C78.34732365 -0.33888675 81.23451175 -0.34197018 84.12231445 -0.34057617 C84.98114731 -0.351362 85.83998016 -0.36214783 86.72483826 -0.3732605 C92.65784352 -0.34215648 92.65784352 -0.34215648 96 3 C96 18.84 96 34.68 96 51 C64.32 51 32.64 51 0 51 C0 34.17 0 17.34 0 0 Z M17 1 C17 17.17 17 33.34 17 50 C41.42 50 65.84 50 91 50 C91.020625 42.6575 91.04125 35.315 91.0625 27.75 C91.071604 25.43709961 91.08070801 23.12419922 91.09008789 20.74121094 C91.09300883 18.90559955 91.09555697 17.06998751 91.09765625 15.234375 C91.10277222 14.28320801 91.10788818 13.33204102 91.11315918 12.35205078 C91.11328003 11.43891113 91.11340088 10.52577148 91.11352539 9.58496094 C91.115746 8.79442322 91.11796661 8.0038855 91.12025452 7.18939209 C91.05094686 4.66838727 91.05094686 4.66838727 90 1 C65.91 1 41.82 1 17 1 Z " fill="#FBD7B3" transform="translate(69,231)"/>
<path d="M0 0 C9.78661243 2.84937439 9.78661243 2.84937439 13 7 C14.1968723 9.3937446 14.1376542 10.89504662 14.15821838 13.56838989 C14.1680072 14.53035278 14.17779602 15.49231567 14.18788147 16.48342896 C14.19363693 17.5422226 14.1993924 18.60101624 14.20532227 19.69189453 C14.21522186 20.80409363 14.22512146 21.91629272 14.23532104 23.06219482 C14.26700455 26.75237878 14.29172056 30.44257563 14.31640625 34.1328125 C14.33696986 36.6858657 14.35796617 39.23891545 14.37937927 41.79196167 C14.42900543 47.83383707 14.47425484 53.87573004 14.51740164 59.91765392 C14.56676067 66.79547277 14.62168374 73.67324364 14.67708123 80.55101609 C14.79092526 94.70063262 14.89775902 108.85029522 15 123 C15.66 123.33 16.32 123.66 17 124 C14.12529507 125.43735246 12.18105412 125.38172649 9 125 C6.48958601 122.85115597 5.17472266 121.07654233 4.63868713 117.77379417 C4.49441117 114.93446913 4.48594174 112.12095774 4.51757812 109.27807617 C4.51366562 108.19779648 4.50975311 107.11751678 4.50572205 106.00450134 C4.49974824 103.66098298 4.50291485 101.31742752 4.5141449 98.97392845 C4.53139425 95.26192724 4.5239044 91.55070574 4.5098877 87.83869934 C4.48237228 79.28606084 4.4915626 70.73355169 4.50258636 62.18090057 C4.51305046 53.72336957 4.50782441 45.26619242 4.47593689 36.8087101 C4.46885005 33.15702192 4.48551422 29.50593461 4.50305176 25.85429382 C4.49734238 23.60622842 4.49052436 21.35816547 4.48242188 19.11010742 C4.49939369 17.5941095 4.49939369 17.5941095 4.51670837 16.04748535 C4.46138606 9.61087938 3.30367087 5.54391573 0 0 Z " fill="#C3232F" transform="translate(175,223)"/>
<path d="M0 0 C5.94 0 11.88 0 18 0 C18 15.84 18 31.68 18 48 C12.06 46.02 6.12 44.04 0 42 C0 28.14 0 14.28 0 0 Z " fill="#FAD7B2" transform="translate(69,327)"/>
<path d="M0 0 C8.55185146 4.9314474 16.99805317 10.3764385 23.77734375 17.6015625 C-9.95091208 24.1025617 -9.95091208 24.1025617 -17.22265625 19.6015625 C-18.97884091 16.93490466 -20.2152661 14.09233071 -21.47265625 11.1640625 C-21.82328125 10.38740234 -22.17390625 9.61074219 -22.53515625 8.81054688 C-23.89988245 5.76353318 -25.16611152 2.77119669 -26.22265625 -0.3984375 C-18.19656523 -4.16302053 -7.99867218 -3.69988497 0 0 Z " fill="#8FB437" transform="translate(288.22265625,126.3984375)"/>
<path d="M0 0 C0.66 0 1.32 0 2 0 C9.08964213 32.93101056 9.08964213 32.93101056 2 45 C0.22275596 47.40450665 -0.96865534 47.98858221 -3.8203125 49.02734375 C-7 49 -7 49 -9.9921875 46.75390625 C-10.97287412 45.70828227 -11.93344617 44.6434959 -12.875 43.5625 C-13.37257812 43.05267578 -13.87015625 42.54285156 -14.3828125 42.01757812 C-17.02274743 39.09116674 -18.33630933 36.92392586 -18.4609375 32.9296875 C-17.33844777 23.35998693 -11.13790143 15.47840195 -5.75 7.75 C-4.95287598 6.60446655 -4.95287598 6.60446655 -4.13964844 5.43579102 C-3.38216309 4.37702759 -3.38216309 4.37702759 -2.609375 3.296875 C-2.15530273 2.66104492 -1.70123047 2.02521484 -1.23339844 1.37011719 C-0.62286621 0.69190918 -0.62286621 0.69190918 0 0 Z " fill="#8FB336" transform="translate(260,64)"/>
<path d="M0 0 C7 1 7 1 19 6 C18.67 15.9 18.34 25.8 18 36 C12.06 36 6.12 36 0 36 C0 24.12 0 12.24 0 0 Z " fill="#FABF96" transform="translate(69,385)"/>
<path d="M0 0 C12.07384494 -0.06943244 24.14764258 -0.12277691 36.22164631 -0.15543652 C41.82776745 -0.17110947 47.43375226 -0.19237755 53.03979492 -0.22631836 C58.44735751 -0.25885356 63.85478875 -0.27684073 69.26244164 -0.28463173 C71.32817847 -0.29018574 73.39390791 -0.30103101 75.459589 -0.31719017 C78.34732365 -0.33888675 81.23451175 -0.34197018 84.12231445 -0.34057617 C84.98114731 -0.351362 85.83998016 -0.36214783 86.72483826 -0.3732605 C92.65784352 -0.34215648 92.65784352 -0.34215648 96 3 C96 18.84 96 34.68 96 51 C64.32 51 32.64 51 0 51 C0 50.67 0 50.34 0 50 C30.03 50 60.06 50 91 50 C90.67 33.83 90.34 17.66 90 1 C60.3 1 30.6 1 0 1 C0 0.67 0 0.34 0 0 Z " fill="#DEC1A2" transform="translate(69,231)"/>
<path d="M0 0 C5.94 0 11.88 0 18 0 C18 4.62 18 9.24 18 14 C43.74 14 69.48 14 96 14 C96 14.33 96 14.66 96 15 C64.32 15 32.64 15 0 15 C0 10.05 0 5.1 0 0 Z " fill="#E6983E" transform="translate(69,297)"/>
<path d="M0 0 C3.31787727 0.92163258 4.86861168 1.84856585 7.14746094 4.47509766 C9.57564076 9.09529537 9.50998013 12.64122521 9.390625 17.7734375 C9.38496521 18.6971817 9.37930542 19.6209259 9.37347412 20.57266235 C9.35118052 23.50731418 9.30099748 26.44072061 9.25 29.375 C9.22992592 31.37107605 9.21167674 33.36717134 9.1953125 35.36328125 C9.15474919 40.24304694 9.07644692 45.12013855 9 50 C-3.21 50 -15.42 50 -28 50 C-28 49.67 -28 49.34 -28 49 C-17.77 49 -7.54 49 3 49 C2.90291167 42.98563353 2.80008416 36.97193144 2.68261719 30.95800781 C2.64440761 28.91347181 2.6095409 26.86887043 2.578125 24.82421875 C2.53230013 21.87997114 2.4743344 18.93617052 2.4140625 15.9921875 C2.40251129 15.0825827 2.39096008 14.17297791 2.37905884 13.23580933 C2.26844464 8.44576061 1.84538495 4.50014926 0 0 Z " fill="#E9C9A8" transform="translate(381,232)"/>
<path d="M0 0 C1.98 0 3.96 0 6 0 C6 14.19 6 28.38 6 43 C4.02 43 2.04 43 0 43 C0 28.81 0 14.62 0 0 Z " fill="#F0CFAC" transform="translate(384,327)"/>
<path d="M0 0 C0.515625 0.2475 1.03125 0.495 1.5625 0.75 C0.881875 1.348125 0.20125 1.94625 -0.5 2.5625 C-5.97709186 8.0551077 -9.75502583 15.1214631 -12.9375 22.125 C-15.5567132 27.51749777 -18.82249414 30.41815574 -24.44140625 32.48828125 C-26.08798328 32.97726473 -27.76156119 33.37376884 -29.4375 33.75 C-29.07398438 33.23953125 -28.71046875 32.7290625 -28.3359375 32.203125 C-25.32864859 27.85412258 -22.80017076 23.54500877 -20.5625 18.75 C-17.03214489 11.52337231 -9.51338806 -0.97573211 0 0 Z " fill="#BF232F" transform="translate(407.4375,157.25)"/>
<path d="M0 0 C5.19649585 0.96866719 9.8633281 1.88858733 13.0625 6.375 C15.53262747 11.03790729 15.68697966 15.85038688 15.859375 21.046875 C15.97847517 23.54797864 16.2825368 25.61617065 17 28 C10.64096386 28.48915663 10.64096386 28.48915663 7.625 26.1875 C4.8747403 22.48522732 4.87117572 19.28893957 4.6875 14.8125 C4.28895384 8.8741622 3.07396722 5.05717188 0 0 Z " fill="#C1242F" transform="translate(274,223)"/>
<path d="M0 0 C0 12.21 0 24.42 0 37 C-1.98 37 -3.96 37 -6 37 C-6.495 19.675 -6.495 19.675 -7 2 C-2 0 -2 0 0 0 Z " fill="#F0B891" transform="translate(390,384)"/>
<path d="M0 0 C3.97780988 1.56171057 7.84733014 3.29144804 11.71875 5.09765625 C21.67227492 9.03475258 32.81286584 6.81392532 43 5 C43.66 5.99 44.32 6.98 45 8 C11.8231329 14.39472102 11.8231329 14.39472102 4 10 C2.63671875 7.6171875 2.63671875 7.6171875 1.6875 4.875 C1.36136719 3.96492187 1.03523438 3.05484375 0.69921875 2.1171875 C0.46847656 1.41851562 0.23773438 0.71984375 0 0 Z " fill="#82A131" transform="translate(267,136)"/>
<path d="M0 0 C0.95123749 -0.00960754 1.90247498 -0.01921509 2.88253784 -0.02911377 C3.9179068 -0.03336365 4.95327576 -0.03761353 6.02001953 -0.04199219 C7.60533981 -0.0505423 7.60533981 -0.0505423 9.22268677 -0.05926514 C11.46387729 -0.06873167 13.70508184 -0.07525565 15.94628906 -0.07910156 C19.38126844 -0.08880626 22.81564953 -0.1198142 26.25048828 -0.15136719 C28.4236618 -0.1578969 30.59683961 -0.1631475 32.77001953 -0.16699219 C33.80134003 -0.17933899 34.83266052 -0.19168579 35.89523315 -0.20440674 C36.85277496 -0.20140564 37.81031677 -0.19840454 38.796875 -0.1953125 C39.6399118 -0.19895813 40.48294861 -0.20260376 41.35153198 -0.20635986 C44.03191088 0.24625218 44.91252827 1.00838504 46.52783203 3.16113281 C46.89892578 5.69238281 46.89892578 5.69238281 46.96533203 8.66113281 C47.3231111 15.03893368 49.05194075 20.31111993 51.52783203 26.16113281 C46.96113704 24.59037363 44.98994069 23.09380268 42.61767578 18.94433594 C41.24362259 15.43532912 41.04614487 12.08051808 40.88720703 8.36035156 C40.83089111 7.319776 40.83089111 7.319776 40.7734375 6.25817871 C40.68276919 4.55961029 40.60408419 2.86040944 40.52783203 1.16113281 C34.33439955 1.22997408 28.14164447 1.31792426 21.94873047 1.42358398 C19.84203605 1.45683563 17.73525249 1.48486681 15.62841797 1.50756836 C12.59971128 1.54110964 9.57182165 1.59342572 6.54345703 1.64941406 C5.60165588 1.65580399 4.65985474 1.66219391 3.68951416 1.66877747 C2.8089032 1.68857162 1.92829224 1.70836578 1.02099609 1.72875977 C0.24822327 1.73986282 -0.52454956 1.75096588 -1.32073975 1.7624054 C-3.99584066 2.25818586 -5.4286456 3.41025994 -7.47216797 5.16113281 C-5.33668244 0.74779605 -4.95513197 0.04020896 0 0 Z " fill="#E8CAAA" transform="translate(217.47216796875,230.8388671875)"/>
<path d="M0 0 C2.64 0 5.28 0 8 0 C8 5.94 8 11.88 8 18 C5.36 18 2.72 18 0 18 C-1.82116003 16.17883997 -1.1323508 13.69328236 -1.13671875 11.2734375 C-1.13285156 10.52320313 -1.12898438 9.77296875 -1.125 9 C-1.12886719 8.24976563 -1.13273437 7.49953125 -1.13671875 6.7265625 C-1.12661053 1.12661053 -1.12661053 1.12661053 0 0 Z " fill="#C3232F" transform="translate(61,198)"/>
<path d="M0 0 C1.65 0 3.3 0 5 0 C5.05607422 1.79244141 5.05607422 1.79244141 5.11328125 3.62109375 C5.57502858 15.58740885 5.57502858 15.58740885 9 27 C5.68595838 26.07943288 4.12823547 25.14682032 1.84375 22.53125 C-0.58400763 17.8814769 -0.45159484 14.27342202 -0.25 9.125 C-0.23195312 8.24585938 -0.21390625 7.36671875 -0.1953125 6.4609375 C-0.14848379 4.3068168 -0.07674994 2.15326226 0 0 Z " fill="#F8D5B1" transform="translate(160,327)"/>
<path d="M0 0 C0 3.30656064 -0.75499558 5.30301344 -1.9375 8.375 C-4.0259187 13.80937984 -5.14029744 18.47769233 -5.0625 24.3125 C-5.04896484 25.63701172 -5.04896484 25.63701172 -5.03515625 26.98828125 C-5.02355469 27.65214844 -5.01195312 28.31601563 -5 29 C-7.5 27.5 -7.5 27.5 -10 25 C-11.49141314 17.40735131 -7.8546077 11.40961143 -4 5 C-2.69842571 3.30841497 -1.37372321 1.63353607 0 0 Z " fill="#7D9B2F" transform="translate(252,76)"/>
<path d="M0 0 C1.98 0 3.96 0 6 0 C6 4.62 6 9.24 6 14 C4.02 14 2.04 14 0 14 C0 9.38 0 4.76 0 0 Z " fill="#FDA543" transform="translate(159,297)"/>
<path d="M0 0 C-4.22295082 6.93770492 -4.22295082 6.93770492 -8 8 C-10.125 7.875 -10.125 7.875 -12 7 C-13.1171875 4.9453125 -13.1171875 4.9453125 -14 3 C-12.42274653 2.29866401 -10.83788667 1.614417 -9.25 0.9375 C-7.92742187 0.36322266 -7.92742187 0.36322266 -6.578125 -0.22265625 C-3.84743691 -1.04600008 -2.63098653 -0.9773992 0 0 Z " fill="#83A231" transform="translate(264,105)"/>
<path d="M0 0 C1.65 0 3.3 0 5 0 C5 4.62 5 9.24 5 14 C3.35 14 1.7 14 0 14 C0 9.38 0 4.76 0 0 Z " fill="#FFA542" transform="translate(384,297)"/>
</svg>
